<?xml version="1.0" standalone="no"?>
<!DOCTYPE svg PUBLIC "-//W3C//DTD SVG 1.1//EN" "http://www.w3.org/Graphics/SVG/1.1/DTD/svg11.dtd" >
<svg>
<metadata>
Created by FontForge 20090914 at Tue Jan 21 06:49:51 2014
 By www-data
Copyright 1990-1993 Bitstream Inc.  All rights reserved.
</metadata>
<defs>
<font id="BauerBodoniBT-Roman" horiz-adv-x="2429" >
  <font-face 
    font-family="BauerBodoni BT"
    font-weight="400"
    font-stretch="normal"
    units-per-em="2048"
    panose-1="2 7 6 3 8 7 6 2 3 3"
    ascent="1638"
    descent="-410"
    x-height="815"
    cap-height="1356"
    bbox="-342 -511.997 2077 1917"
    underline-thickness="115"
    underline-position="-189"
    unicode-range="U+0020-U+F002"
  />
<missing-glyph horiz-adv-x="1024" 
d="M64 0v1917h896v-1917h-896zM896 64v1789h-768v-1789h768z" />
    <glyph glyph-name=".notdef" horiz-adv-x="1024" 
d="M64 0v1917h896v-1917h-896zM896 64v1789h-768v-1789h768z" />
    <glyph glyph-name="space" unicode=" " horiz-adv-x="494" 
 />
    <glyph glyph-name="exclam" unicode="!" horiz-adv-x="674" 
d="M238 63c0 24.667 9.00195 46 27.002 64s39.667 27 65 27s46.666 -8.66699 63.999 -26s26 -39 26 -65c0 -24 -8.83301 -45.333 -26.5 -64s-38.834 -28 -63.501 -28c-26 0 -47.833 9.16699 -65.5 27.5s-26.5 39.833 -26.5 64.5zM350.002 295h-31.001v55
c0 201.333 -7 367.5 -21 498.5s-36.333 239.5 -67 325.5c21.333 30.667 40.333 63 57 97s32 71.667 46 113l23 -57c7.33301 -17.333 16 -36.333 26 -57c18 -34 37 -66 57 -96c-29.333 -85.333 -51.666 -196.333 -66.999 -333s-23 -301.667 -23 -495v-51z" />
    <glyph glyph-name="quotedbl" unicode="&#x22;" horiz-adv-x="678" 
d="M518 864l-31 -0.000976562l-65 457l-1 6l-3 33c0 32.667 7.5 57.834 22.5 75.501s36.167 26.5 63.5 26.5c26 0 46.5 -8.83301 61.5 -26.5s22.5 -42.167 22.5 -73.5l-1 -23l-1 -18zM190 863.999h-31.999l-64 457l-3 26l-1 15c0 32 7.16699 56.667 21.5 74
s35.166 26 62.499 26s48.5 -8.66699 63.5 -26s22.5 -42 22.5 -74l-3 -34l-1 -7z" />
    <glyph glyph-name="numbersign" unicode="#" horiz-adv-x="1575" 
d="M700 868l-100 -286h289l102 286h-291zM778 1456h133l-168 -471h287l168 471h131l-166 -471h307l-40 -117h-310l-100 -286h332l-43 -115h-330l-166 -469h-133l166 469h-287l-166 -469h-131l166 469h-324l43 115h322l100 286h-348l43 117h348z" />
    <glyph glyph-name="dollar" unicode="$" horiz-adv-x="985" 
d="M420 801l15 -4l107 -23l1 544l-45 8l-39 3l-25 -1l-14 -1v-526zM377 811l-0.00195312 508c-65.333 -18 -117.166 -52.333 -155.499 -103s-57.5 -110 -57.5 -178c0 -63.333 17.333 -113.5 52 -150.5s88.334 -62.5 161.001 -76.5zM585.998 27
c76.667 14 137.833 47.333 183.5 100s68.5 114.667 68.5 186c0 70 -22 128 -66 174s-106 77 -186 93v-553zM419.997 41c17.333 -4.66699 36.333 -8.66699 57 -12l66 -4v563l-61 12l-62 8v-567zM67.9971 14l0.00292969 471.004h24c0 -57.333 7 -109.333 21 -156
s33.667 -89 59 -127c46 -70 114.333 -120.333 205 -151v563c-91.333 12 -163.333 45.667 -216 101s-79 123.666 -79 204.999c0 110 25.333 202.167 76 276.5s123.667 126.166 219 155.499v170h43v-164l30 3l19 1c11.333 0 20.333 -0.666992 27 -2
c9.33301 0 24.666 -2 45.999 -6l1 168h43v-179c30.667 -10 64.667 -28.5 102 -55.5s63.333 -40.5 78 -40.5c16 0 28.167 7.5 36.5 22.5s12.5 37.5 12.5 67.5v11h21v-420h-23c0 46 -6.33301 89.333 -19 130s-29.667 78.667 -51 114c-38 64 -90.333 108.333 -157 133v-539
c113.333 -14.667 198.666 -50.5 255.999 -107.5s86 -134.5 86 -232.5c0 -110.667 -31 -205.334 -93 -284.001s-145 -128 -249 -148v-291h-43v291h-17h-23c-11.333 2 -20.833 3.5 -28.5 4.5s-15.834 1.83301 -24.501 2.5c-13.333 3.33301 -23.333 5.66602 -30 6.99902v-305
h-43v311c-40 12.667 -84.833 31.167 -134.5 55.5s-81.5 36.5 -95.5 36.5s-25.667 -7.66699 -35 -23c-4 -8 -7.33301 -17.667 -10 -29s-4 -24.333 -4 -39z" />
    <glyph glyph-name="percent" unicode="%" horiz-adv-x="1442" 
d="M979 346c0 -124 10 -210.335 30 -259.002s55 -73 105 -73s85.333 24.167 106 72.5s31 134.833 31 259.5c0 126.667 -10.167 213.334 -30.5 260.001s-55.833 70 -106.5 70c-50 0 -85 -23.167 -105 -69.5s-30 -133.166 -30 -260.499zM846 345.998
c0 102.667 26.001 188.166 78.001 256.499s115.333 102.5 190 102.5c76 0 140 -34.167 192 -102.5s78 -153.833 78 -256.5c0 -102 -26.333 -187.5 -79 -256.5s-116.334 -103.5 -191.001 -103.5s-138 34.333 -190 103s-78 154.334 -78 257.001zM188.001 990.997
c0 -124.667 10.499 -211.167 31.499 -259.5s56.5 -72.5 106.5 -72.5s85.333 24.167 106 72.5s31 134.833 31 259.5c0 126.667 -10.167 213.667 -30.5 261s-55.833 71 -106.5 71c-49.333 0 -84.666 -24.167 -105.999 -72.5s-32 -134.833 -32 -259.5zM57 990.997
c0 102.667 26.167 188.501 78.5 257.501s115.833 103.5 190.5 103.5s138.334 -34.5 191.001 -103.5s79 -154.833 79 -257.5c0 -102 -26.333 -187.5 -79 -256.5s-116.334 -103.5 -191.001 -103.5s-138.167 34.167 -190.5 102.5s-78.5 154.166 -78.5 257.499zM391 -25.002h-61
l719 1385h63z" />
    <glyph glyph-name="ampersand" unicode="&#x26;" horiz-adv-x="1464" 
d="M778 227c-68 -86 -132.67 -148.331 -194.003 -186.998s-123.666 -58 -186.999 -58c-80 0 -152.5 34 -217.5 102s-97.5 143.667 -97.5 227c0 68 29.167 135.333 87.5 202s143.833 129.667 256.5 189c-26 37.333 -47.5 70 -64.5 98s-31.167 54.667 -42.5 80
c-20 46 -30 88.667 -30 128c0 68 28 129.333 84 184s118.667 82 188 82c67.333 0 121.666 -19.333 162.999 -58s62 -89.667 62 -153c0 -52.667 -15.667 -102.5 -47 -149.5s-79 -92.167 -143 -135.5l157 -217l115 -153l18 22c116 146 204.333 219 265 219
c32 0 59.5 -10.667 82.5 -32s34.5 -47.333 34.5 -78c0 -36 -9.83301 -64.833 -29.5 -86.5s-46.167 -32.5 -79.5 -32.5c-23.333 0 -44 6 -62 18c-15.333 12 -26.666 29 -33.999 51c-1.33301 5.33301 -2.66602 11.666 -3.99902 18.999s-2 15 -2 23c0 16 -2 24.667 -6 26
c-4.66699 0 -12 -4.83301 -22 -14.5s-22.667 -23.834 -38 -42.501l-102 -119c64 -87.333 121 -150.5 171 -189.5s96.667 -58.5 140 -58.5c30 0 56.333 10.833 79 32.5s46.334 58.5 71.001 110.5l30 -20c-56 -106 -104.167 -177.167 -144.5 -213.5
s-86.833 -54.5 -139.5 -54.5c-46.667 0 -91.667 15.5 -135 46.5s-104.333 95.167 -183 192.5zM577.997 803.002c58 39.333 101.5 80.499 130.5 123.499s43.5 89.167 43.5 138.5c0 50.667 -15.667 92.334 -47 125.001s-71 49 -119 49c-45.333 0 -81.333 -12.333 -108 -37
s-40 -58 -40 -100c0 -62 46 -161 138 -297zM755.997 256.001c-30 36.667 -68.667 86.5 -116 149.5l-156 211.5l-44 61c-66.667 -35.333 -115 -72.333 -145 -111s-45 -83 -45 -133c0 -76 31 -149.167 93 -219.5s128.667 -105.5 200 -105.5c35.333 0 70 11.5 104 34.5
s70.333 60.5 109 112.5z" />
    <glyph glyph-name="quotesingle" unicode="'" horiz-adv-x="348" 
d="M190 864l-32 -0.000976562l-66 457c0 6.66699 -0.666992 12 -2 16v23c0 32.667 7 57.834 21 75.501s35 26.5 63 26.5c27.333 0 48.5 -8.66699 63.5 -26s22.5 -42 22.5 -74l-3 -34l-1 -7z" />
    <glyph glyph-name="parenleft" unicode="(" horiz-adv-x="664" 
d="M639 1352c-108.667 -90.667 -188.667 -198.833 -240 -324.5s-77 -276.5 -77 -452.5v-221c0 -176.667 25.333 -327.167 76 -451.5s131 -232.5 241 -324.5v-33c-149.333 104.667 -265.5 237.667 -348.5 399s-124.5 335 -124.5 521c0 186.667 41 360 123 520
s198.667 293 350 399v-32z" />
    <glyph glyph-name="parenright" unicode=")" horiz-adv-x="664" 
d="M25 1352v32c150 -104 266.333 -236.667 349 -398s124 -335 124 -521c0 -186.667 -41.167 -360.334 -123.5 -521.001s-198.833 -293.667 -349.5 -399v33c108 91.333 187.833 199.5 239.5 324.5s77.5 275.5 77.5 451.5v221c0 176.667 -25.5 327.334 -76.5 452.001
s-131.167 233 -240.5 325z" />
    <glyph glyph-name="asterisk" unicode="*" horiz-adv-x="1024" 
d="M506 979c-9.33301 107.333 -39.9951 204.001 -91.9951 290.001l-11 21c0 4 1.33301 7 4 9l13 4h8l45 -7l12 56c2.66699 12 5.66699 20.333 9 25s8 7 14 7c10 0 18 -10 24 -30l17 -56l41 11l3 1l3 1c4.66699 0 8.66699 -2 12 -6c2 -1.33301 3.33301 -5.66602 4 -12.999
c-0.666992 -2 -1.16699 -3.83301 -1.5 -5.5s-2.5 -6.16699 -6.5 -13.5c-46 -88.667 -69 -186 -69 -292c90 46 172 103 246 171c8.66699 8 15.667 14 21 18l9 6c4 -1.33301 6.66699 -2.83301 8 -4.5s2 -4.5 2 -8.5l6 -53l60 6h6c6 0 10.167 -1 12.5 -3
s4.16602 -6.33301 5.49902 -13l-1 -13l-3 -4l-55 -41l16 -36l7 -13l4 -8c-2 -4.66699 -3.83301 -7.83398 -5.5 -9.50098s-4.83398 -2.5 -9.50098 -2.5l-8 2c-27.333 8 -56 12 -86 12c-74.667 0 -125.334 -2.66699 -152.001 -8c-28.667 -4 -54.334 -12.333 -77.001 -25
c52.667 -54.667 110.167 -102.167 172.5 -142.5s93.5 -62.5 93.5 -66.5c0 -3.33301 -5 -7.66602 -15 -12.999l-36 -13l26 -53l4 -12l2 -9c0 -5.33301 -1.83301 -10.333 -5.5 -15s-8.5 -7 -14.5 -7h-5l-7 4l-62 41l-35 -35l-5 -5l-5 -1c-7.33301 0 -14.333 16.667 -21 50
l-1 7c-10 57.333 -23.833 106.666 -41.5 147.999s-39.5 76 -65.5 104c-34 -68 -59 -138.333 -75 -211c-7.33301 -34.667 -13.333 -61.334 -18 -80.001l-7 -27l-3 1l-3 4l-37 36l-51 -45l-13 -10l-10 -2c-4.66699 0 -9 1.66699 -13 5c-2 2.66699 -3.66699 8 -5 16v5l4 11
l18 57l-43 17l-11 6c-2 2 -3 5.33301 -3 10l91 65c60 42.667 112.667 97 158 163l-54 10l-64 4c-32.667 0 -55.667 -0.5 -69 -1.5s-32.333 -3.16699 -57 -6.5l-67 -7c-10.667 0 -18.334 1.5 -23.001 4.5s-7.66699 7.16699 -9 12.5l2 4l30 39l-63 39l-12 9l-2 11
c0 4.66699 1.5 8 4.5 10s9.5 3.66699 19.5 5h21l49 -5l2 52c0 7.33301 1.5 13 4.5 17s7.5 6.33301 13.5 7c2.66699 -1.33301 5 -2.83301 7 -4.5s7.33301 -6.5 16 -14.5c73.333 -72.667 159.333 -127 258 -163z" />
    <glyph glyph-name="plus" unicode="+" horiz-adv-x="1706" 
d="M795 1221h118v-551h539v-117h-539v-553h-118v553h-541v117h541v551z" />
    <glyph glyph-name="comma" unicode="," horiz-adv-x="494" 
d="M225 -393l-20.002 22c54.667 54 97 109 127 165s45 109 45 159c0 16 -3.83301 28.833 -11.5 38.5s-18.167 14.5 -31.5 14.5c-10 0 -27.5 -4.83301 -52.5 -14.5s-46.5 -14.5 -64.5 -14.5c-33.333 0 -60 9 -80 27c-18.667 18.667 -28 43.334 -28 74.001
c0 30 11.667 55.167 35 75.5s53 30.5 89 30.5c51.333 0 93.333 -19.833 126 -59.5s49 -90.834 49 -153.501c0 -66 -15.333 -129.333 -46 -190c-15.333 -30 -34.166 -59.5 -56.499 -88.5s-49.166 -57.5 -80.499 -85.5z" />
    <glyph glyph-name="hyphen" unicode="-" horiz-adv-x="786" 
d="M170 344v131h446v-131h-446z" />
    <glyph glyph-name="period" unicode="." horiz-adv-x="494" 
d="M156 76c0 25.333 8.66699 47.002 26 65.002s38.666 27 63.999 27c24 0 45.333 -9 64 -27s28 -39.667 28 -65c0 -24.667 -8.83301 -45.834 -26.5 -63.501s-39.5 -26.5 -65.5 -26.5c-25.333 0 -46.666 8.66699 -63.999 26s-26 38.666 -26 63.999z" />
    <glyph glyph-name="slash" unicode="/" horiz-adv-x="569" 
d="M-4 -190h-55l573 1574h55z" />
    <glyph glyph-name="zero" unicode="0" horiz-adv-x="985" 
d="M246 668c0 -250.667 18.667 -424 56 -520s101.333 -144 192 -144c89.333 0 152.5 48.5 189.5 145.5s55.5 269.833 55.5 518.5c0 250 -18.167 422.333 -54.5 517s-99.833 142 -190.5 142s-154.667 -48.167 -192 -144.5s-56 -267.833 -56 -514.5zM57 668
c0 48 2.33301 93.5 7 136.5s12.167 84.5 22.5 124.5s22.666 77.167 36.999 111.5s32.5 69.166 54.5 104.499c44.667 72.667 93 126 145 160s109 51 171 51c62.667 0 119.834 -17.167 171.501 -51.5s99.5 -87.5 143.5 -159.5c40.667 -65.333 71 -137.166 91 -215.499
s30 -165.5 30 -261.5s-9.83301 -182.833 -29.5 -260.5s-50.167 -150.167 -91.5 -217.5c-44 -72.667 -92 -126.667 -144 -162s-109 -53 -171 -53c-62.667 0 -119.5 17.5 -170.5 52.5s-99.5 89.167 -145.5 162.5c-40 65.333 -70.167 137.5 -90.5 216.5
s-30.5 166.167 -30.5 261.5z" />
    <glyph glyph-name="one" unicode="1" horiz-adv-x="985" 
d="M287 0l-0.000976562 35h168v1044c0 26 -1.66699 44.5 -5 55.5s-8 16.5 -14 16.5c-16.667 0 -54.667 -14 -114 -42s-125 -65.333 -197 -112l-6 35c112.667 66 200.334 121 263.001 165s121.667 90.667 177 140h70v-1302h151v-35h-493z" />
    <glyph glyph-name="two" unicode="2" horiz-adv-x="985" 
d="M39 0c26 80.667 130 209.002 312 385.002l52 51c112 110.667 188.167 206 228.5 286s60.5 166.333 60.5 259c0 105.333 -26.333 188.333 -79 249s-124 91 -214 91c-74 0 -140.667 -24.333 -200 -73c-29.333 -24.667 -51.333 -49.5 -66 -74.5s-22 -51.5 -22 -79.5
c0 -20 4.66699 -34.667 14 -44c9.33301 -8 30 -13.333 62 -16c29.333 0 53 -7.66699 71 -23s27 -36.333 27 -63c0 -28 -9.16699 -51.667 -27.5 -71s-41.5 -29 -69.5 -29c-36.667 0 -67.334 16 -92.001 48s-37 74 -37 126c0 93.333 37 172.333 111 237s168.333 97 283 97
c130.667 0 235 -34.5 313 -103.5s117 -160.833 117 -275.5c0 -76.667 -22.167 -148.834 -66.5 -216.501s-130.833 -153.834 -259.5 -258.501l-78 -62c-141.333 -111.333 -241.666 -204 -300.999 -278h682l33 209h31l-56 -371h-829z" />
    <glyph glyph-name="three" unicode="3" horiz-adv-x="985" 
d="M221 768c14 0 25 -0.666992 33 -2h51c139.333 0 237 22 293 66s84 121 84 231c0 83.333 -21.167 148.5 -63.5 195.5s-101.833 70.5 -178.5 70.5c-63.333 0 -121.5 -14.833 -174.5 -44.5s-79.5 -59.167 -79.5 -88.5c0 -5.33301 3.33301 -10 10 -14l29 -4h17
c20.667 0 38 -7.16699 52 -21.5s21 -32.5 21 -54.5c0 -26.667 -8 -49.334 -24 -68.001s-35.333 -28 -58 -28c-32.667 0 -58.834 11.167 -78.501 33.5s-29.5 52.5 -29.5 90.5c0 65.333 30.833 119.333 92.5 162s140.834 64 237.501 64c122 0 217.333 -26.667 286 -80
s103 -127 103 -221c0 -76.667 -29.167 -141.834 -87.5 -195.501s-137.166 -86.834 -236.499 -99.501c123.333 -17.333 218.666 -58.333 285.999 -123s101 -148 101 -250c0 -113.333 -47.333 -210.333 -142 -291s-210.334 -121 -347.001 -121
c-112.667 0 -203.667 24.5 -273 73.5s-104 112.167 -104 189.5c0 40.667 11.5 74.667 34.5 102s51.833 41 86.5 41c25.333 0 48.333 -9.83301 69 -29.5s31 -42.5 31 -68.5c0 -27.333 -8.83301 -50.666 -26.5 -69.999s-38.834 -29 -63.501 -29l-32 3l-21 3
c-5.33301 0 -10.166 -3.16699 -14.499 -9.5s-6.5 -13.833 -6.5 -22.5c0 -33.333 30.5 -66.666 91.5 -99.999s129.5 -50 205.5 -50c107.333 0 189.833 31.167 247.5 93.5s86.5 152.833 86.5 271.5c0 130.667 -31.167 225.834 -93.5 285.501s-162.166 89.5 -299.499 89.5h-25
c-8 0 -18.333 -0.666992 -31 -2l-59 -4v26z" />
    <glyph glyph-name="four" unicode="4" horiz-adv-x="985" 
d="M422 0v35h149v446h-553l11 15l702 899l23 -17l-592 -755h409v458h177v-458h198v-142h-198v-446h157v-35h-483z" />
    <glyph glyph-name="five" unicode="5" horiz-adv-x="985" 
d="M150 713l-31.0029 18.002c15.333 22 26.333 53.333 33 94s10 94.667 10 162c0 69.333 -3 130.666 -9 183.999c-2.66699 26 -6 51.167 -10 75.5s-9.33301 47.833 -16 70.5c13.333 6.66699 27.333 12.167 42 16.5s32.334 8.16602 53.001 11.499s44.834 6 72.501 8
s55.834 3 84.501 3c62 0 128 -6 198 -18l117 -17c20 0 35.333 4.5 46 13.5s16 21.5 16 37.5v8h22v-26c0 -61.333 -16.333 -106.666 -49 -135.999s-83 -44 -151 -44c-34 0 -80.667 4.33301 -140 13s-99.666 13 -120.999 13c-19.333 0 -32.5 -0.5 -39.5 -1.5
s-19.167 -3.66699 -36.5 -8s-35.666 -12.166 -54.999 -23.499l7 -75l2 -107v-20v-17v-14v-12c0 -12.667 -0.333008 -25 -1 -37s-2 -23 -4 -33c-3.33301 -32.667 -8.66602 -59.334 -15.999 -80.001c39.333 19.333 81.333 34.666 126 45.999
c23.333 5.33301 45.166 9.33301 65.499 12s43.166 4 68.499 4c146.667 0 264.334 -38.333 353.001 -115s133 -178.334 133 -305.001c0 -124 -49.833 -228.167 -149.5 -312.5s-224.167 -126.5 -373.5 -126.5c-106.667 0 -192.667 25.667 -258 77s-98 117.333 -98 198
c0 38.667 11 70.167 33 94.5s50 36.5 84 36.5c27.333 0 49.833 -9.16699 67.5 -27.5s26.5 -41.833 26.5 -70.5c0 -24.667 -7.33301 -44.167 -22 -58.5s-35.334 -21.5 -62.001 -21.5h-21c-14.667 0 -25.5 -2.83301 -32.5 -8.5s-10.5 -15.167 -10.5 -28.5
c0 -36 28.167 -71.333 84.5 -106s121.166 -52 194.499 -52c108 0 193.333 35 256 105s94 166.667 94 290c0 124 -29.333 220.667 -88 290s-142 104 -250 104c-48 0 -92 -6.66699 -132 -20s-77.667 -34.666 -113 -63.999z" />
    <glyph glyph-name="six" unicode="6" horiz-adv-x="985" 
d="M520 811c-88.667 0 -158.668 -31.668 -210.001 -95.001s-77 -150.333 -77 -261c0 -146.667 23.167 -258.5 69.5 -335.5s113.5 -115.5 201.5 -115.5c76.667 0 136.834 37.833 180.501 113.5s65.5 179.834 65.5 312.501c0 120 -20.167 213.5 -60.5 280.5
s-96.833 100.5 -169.5 100.5zM833.999 1378l11.998 -21.999c-196 -50 -343 -130 -441 -240c-50 -56.667 -88.667 -120.834 -116 -192.501s-41 -150.834 -41 -237.501c44.667 58 90.834 101.167 138.501 129.5s99.167 42.5 154.5 42.5c112 0 205.5 -40.833 280.5 -122.5
s112.5 -185.5 112.5 -311.5c0 -121.333 -43 -226.5 -129 -315.5s-189 -133.5 -309 -133.5c-126 0 -230.667 47.667 -314 143c-42 48.667 -73.333 102.334 -94 161.001s-31 124.667 -31 198c0 232.667 66.333 426 199 580s325.334 261 578.001 321z" />
    <glyph glyph-name="seven" unicode="7" horiz-adv-x="985" 
d="M86 1018l-25 3.99805l25 207l16 108h856l-354 -770c-41.333 -89.333 -77 -174.666 -107 -255.999c-26.667 -76 -40 -123 -40 -141c0 -4 2 -7.66699 6 -11c4 -2 11.333 -3 22 -3h17l22 -1l14 -1c24.667 -4.66699 43.167 -14.167 55.5 -28.5s18.5 -33.5 18.5 -57.5
c0 -27.333 -8 -50 -24 -68c-16.667 -16.667 -38 -25 -64 -25c-32 0 -57.333 12.833 -76 38.5s-28 59.5 -28 101.5c0 28.667 5.33301 64 16 106c5.33301 21.333 12.333 45 21 71s19.334 55 32.001 87l304 792h-572h-33.5c-10.333 0 -19.5 -0.666992 -27.5 -2
c-10 0 -18.333 -2.16699 -25 -6.5s-13.334 -16.166 -20.001 -35.499z" />
    <glyph glyph-name="eight" unicode="8" horiz-adv-x="985" 
d="M500 735c71.333 16 122.333 49.3311 153 99.998c15.333 24.667 27 56.334 35 95.001s12 84.334 12 137.001c0 87.333 -16.167 152.833 -48.5 196.5s-81.5 65.5 -147.5 65.5c-69.333 0 -121.833 -23.333 -157.5 -70s-53.5 -116 -53.5 -208c0 -90 17 -161.167 51 -213.5
s86 -86.5 156 -102.5zM500 710.998c-80.667 -22 -143.5 -64.1689 -188.5 -126.502s-67.5 -139.166 -67.5 -230.499c0 -105.333 23.667 -189.666 71 -252.999s110.333 -95 189 -95s140 27.833 184 83.5s66 132.167 66 229.5c0 109.333 -21.167 196.5 -63.5 261.5
s-105.833 108.5 -190.5 130.5zM457 722.996c-105.333 24 -187.668 63.334 -247.001 118.001s-89 119 -89 193c0 87.333 37.333 163.833 112 229.5s163.667 98.5 267 98.5c99.333 0 186.5 -32.167 261.5 -96.5s112.5 -138.833 112.5 -223.5
c0 -78 -28.167 -144.333 -84.5 -199s-137.833 -94.667 -244.5 -120c130.667 -40 229.834 -95.167 297.501 -165.5s101.5 -151.833 101.5 -244.5c0 -96 -42.333 -176.333 -127 -241s-191 -97 -319 -97c-128.667 0 -235 32.5 -319 97.5s-126 146.5 -126 244.5
c0 90.667 35.5 171.667 106.5 243s170.167 125.666 297.5 162.999z" />
    <glyph glyph-name="nine" unicode="9" horiz-adv-x="985" 
d="M459 526c88 0 157.667 31.999 209 95.999s77 151 77 261c0 146 -23.167 257.5 -69.5 334.5s-113.833 115.5 -202.5 115.5c-74.667 0 -134 -37.667 -178 -113s-66 -179.666 -66 -312.999c0 -120 20.333 -213.5 61 -280.5s97 -100.5 169 -100.5zM145 -41.001l-12 22.999
c197.333 51.333 344.333 131.333 441 240c50 56.667 88.667 120.834 116 192.501s41 150.5 41 236.5c-44 -58 -90.333 -101.167 -139 -129.5s-100.667 -42.5 -156 -42.5c-112 0 -205.167 40.833 -279.5 122.5s-111.5 185.5 -111.5 311.5c0 122.667 43 228.167 129 316.5
s188.333 132.5 307 132.5c126.667 0 231.834 -47.667 315.501 -143s125.5 -215 125.5 -359c0 -234 -66.333 -428 -199 -582s-325.334 -260.333 -578.001 -319z" />
    <glyph glyph-name="colon" unicode=":" horiz-adv-x="674" 
d="M246 750c0 25.333 9 46.667 27 64s39.667 26 65 26s46.666 -8.66699 63.999 -26s26 -38.666 26 -63.999c0 -26.667 -8.66699 -48.834 -26 -66.501s-38.666 -26.5 -63.999 -26.5c-24 0 -45.333 9 -64 27s-28 40 -28 66zM246 76.001c0 25.333 9.00195 46.667 27.002 64
s39.667 26 65 26s46.666 -8.66699 63.999 -26s26 -38.666 26 -63.999c0 -26 -8.83301 -47.5 -26.5 -64.5s-38.834 -25.5 -63.501 -25.5c-26.667 0 -48.667 8.66699 -66 26s-26 38.666 -26 63.999z" />
    <glyph glyph-name="semicolon" unicode=";" horiz-adv-x="674" 
d="M299 -393l-23.002 22.002c55.333 53.333 98 108.166 128 164.499s45 109.5 45 159.5c0 17.333 -3.5 30.5 -10.5 39.5s-17.167 13.5 -30.5 13.5c-10 0 -27.5 -4.83301 -52.5 -14.5s-46.5 -14.5 -64.5 -14.5c-33.333 0 -59.833 9 -79.5 27s-29.5 42.667 -29.5 74
c0 30.667 11.5 56 34.5 76s52.5 30 88.5 30c50.667 0 92.334 -19.833 125.001 -59.5s49 -90.834 49 -153.501c0 -66 -14.667 -129 -44 -189s-74.666 -118.333 -135.999 -175zM245.998 750.002c0 24.667 8.66895 45.833 26.002 63.5s38.666 26.5 63.999 26.5
c26 0 47.833 -8.66699 65.5 -26s26.5 -38.666 26.5 -63.999c0 -26 -9 -48 -27 -66s-39.667 -27 -65 -27c-24.667 0 -45.834 9.16699 -63.501 27.5s-26.5 40.166 -26.5 65.499z" />
    <glyph glyph-name="less" unicode="&#x3c;" horiz-adv-x="1706" 
d="M1442 1145v-127l-1000 -408l1000 -405v-129l-1178 483v103z" />
    <glyph glyph-name="equal" unicode="=" horiz-adv-x="1706" 
d="M254 477h1198v-117h-1198v117zM254 860h1198v-117h-1198v117z" />
    <glyph glyph-name="greater" unicode="&#x3e;" horiz-adv-x="1706" 
d="M264 1145l1178 -483v-103l-1178 -483v129l1000 405l-1000 408v127z" />
    <glyph glyph-name="question" unicode="?" horiz-adv-x="920" 
d="M256 61c0 26.667 8.66797 48.8301 26.001 66.4971s38.666 26.5 63.999 26.5c24.667 0 45.834 -9.16699 63.501 -27.5s26.5 -40.166 26.5 -65.499s-8.66699 -46.666 -26 -63.999c-16 -17.333 -37.333 -26 -64 -26c-24.667 0 -45.834 8.83301 -63.501 26.5
s-26.5 38.834 -26.5 63.501zM346.001 278.996l-24.001 -4.99609c-9.33301 35.333 -16.666 72 -21.999 110c-2 18.667 -3.66699 37 -5 55s-2 37 -2 57c0 124.667 58.333 238 175 340l11 10l5 4c124 108 186 204.333 186 289c0 62 -22.333 113.333 -67 154
s-101.667 61 -171 61c-52 0 -97 -11.833 -135 -35.5s-57 -48.167 -57 -73.5c0 -7.33301 4 -15 12 -23c6.66699 -5.33301 21.834 -12.333 45.501 -21s41.5 -19.834 53.5 -33.501s18 -30.834 18 -51.501c0 -27.333 -7.83301 -49.166 -23.5 -65.499
s-37.834 -24.5 -66.501 -24.5c-32 0 -58.667 11 -80 33c-19.333 22.667 -29 52 -29 88c0 70 24.5 127 73.5 171s112.5 66 190.5 66c90 0 162.333 -31.333 217 -94s82 -145.334 82 -248.001c0 -68.667 -13.167 -129.834 -39.5 -183.501s-73.833 -111.834 -142.5 -174.501
l-49 -43c-106.667 -94.667 -160 -184.667 -160 -270l1 -47z" />
    <glyph glyph-name="at" unicode="@" horiz-adv-x="2019" 
d="M1190 336c-41.333 -70.667 -87.834 -123.501 -139.501 -158.501s-108.167 -52.5 -169.5 -52.5c-83.333 0 -150.333 30.833 -201 92.5s-76 142.834 -76 243.501c0 72.667 16.167 144.667 48.5 216s78.5 135.666 138.5 192.999c42.667 41.333 90.334 74.333 143.001 99
s104.667 37 156 37c58 0 105.667 -16.333 143 -49s63.333 -81.334 78 -146.001l53 180h143l-170 -610l-1 -5c-11.333 -40 -17 -74.667 -17 -104c0 -31.333 8.5 -56.166 25.5 -74.499s39.833 -27.5 68.5 -27.5c23.333 0 49.833 5.83301 79.5 17.5
s57.834 27.834 84.501 48.501c80.667 59.333 142.834 136.333 186.501 231s65.5 199.667 65.5 315c0 94.667 -16.5 178.5 -49.5 251.5s-84.167 140.833 -153.5 203.5c-58.667 50.667 -130.5 91 -215.5 121s-174.167 45 -267.5 45c-126 0 -239.833 -19.333 -341.5 -58
s-193.5 -97.334 -275.5 -176.001c-84.667 -82.667 -150.334 -180.667 -197.001 -294c-22 -56 -38.667 -114.5 -50 -175.5s-17 -125.5 -17 -193.5c0 -115.333 19 -216.666 57 -303.999s98.333 -165.666 181 -234.999c37.333 -31.333 77.833 -59.166 121.5 -83.499
s90.167 -45.166 139.5 -62.499c98.667 -33.333 205.334 -50 320.001 -50c108 0 213.5 17.167 316.5 51.5s201.833 85.833 296.5 154.5l30 -36c-97.333 -72.667 -201.5 -127.834 -312.5 -165.501s-225.167 -56.5 -342.5 -56.5c-126 0 -240.167 15.333 -342.5 46
s-193.5 77 -273.5 139c-99.333 74.667 -175.5 166 -228.5 274s-79.5 227.667 -79.5 359c0 137.333 28.5 264.666 85.5 381.999s140.5 221.333 250.5 312c87.333 73.333 184.333 128.333 291 165c53.333 18.667 108.166 32.667 164.499 42s116.166 14 179.499 14
c231.333 0 415.833 -62.167 553.5 -186.5s206.5 -290.833 206.5 -499.5c0 -104.667 -19.167 -203.5 -57.5 -296.5s-92.833 -171.833 -163.5 -236.5c-36.667 -32.667 -78 -59.334 -124 -80.001c-23.333 -9.33301 -45.5 -16.333 -66.5 -21s-43.5 -7 -67.5 -7
c-64 0 -113.667 17.333 -149 52c-18 18.667 -32.167 41.167 -42.5 67.5s-15.5 56.833 -15.5 91.5zM1098 964.999c-36.667 0 -69.666 -9.99902 -98.999 -29.999s-60 -53.667 -92 -101c-47.333 -70.667 -85.333 -148.334 -114 -233.001s-43 -160 -43 -226
c0 -62.667 13.5 -111.834 40.5 -147.501s63.167 -53.5 108.5 -53.5c44.667 0 86.667 14.667 126 44s77.833 74.333 115.5 135s68 127.834 91 201.501s34.5 139.5 34.5 197.5c0 62 -15.833 113 -47.5 153s-71.834 60 -120.501 60z" />
    <glyph glyph-name="A" unicode="A" horiz-adv-x="934" 
d="M162 469h397l-207 580zM-145 0v29h26c72 0 121 41 147 123l396 1218h22l482 -1341h135v-29h-520v29h176l-150 411h-417l-101 -326l-6 -21l-2 -15c0 -15.333 9.66699 -27 29 -35c10.667 -3.33301 28 -6.5 52 -9.5s52.333 -4.5 85 -4.5v-29h-354z" />
    <glyph glyph-name="B" unicode="B" horiz-adv-x="1165" 
d="M379 29l88 0.000976562c137.333 0 238.5 28.167 303.5 84.5s97.5 144.166 97.5 263.499c0 110 -36.333 193.167 -109 249.5s-181.667 84.5 -327 84.5l-26 -1l-27 -1v-680zM379 736.001l33.999 -2.99902h52c133.333 0 230.833 22.167 292.5 66.5
s92.5 115.166 92.5 212.499c0 96 -32.167 172.167 -96.5 228.5s-153.166 84.5 -266.499 84.5h-108v-589zM24.999 0.00195312l0.000976562 29h151v1298h-151v29h536c154 0 273.5 -28.167 358.5 -84.5s127.5 -135.5 127.5 -237.5c0 -87.333 -34.333 -160 -103 -218
c-36 -29.333 -77.5 -52.833 -124.5 -70.5s-98.833 -26.5 -155.5 -26.5c137.333 -13.333 242.166 -49.833 314.499 -109.5s108.5 -139.167 108.5 -238.5c0 -108.667 -42.333 -197.667 -127 -267s-195 -104 -331 -104h-604z" />
    <glyph glyph-name="C" unicode="C" horiz-adv-x="1241" 
d="M1094 485h26.001v-458h-26c-4.66699 30.667 -13 54.334 -25 71.001c-10.667 16.667 -24.334 25 -41.001 25c-16 0 -45.667 -14.667 -89 -44l-29 -19l-2 -2c-86 -58 -169.667 -87 -251 -87c-77.333 0 -152.666 19 -225.999 57s-139.5 91 -198.5 159
s-102.333 139.667 -130 215s-41.5 157.666 -41.5 246.999c0 104 15.667 201 47 291c15.333 46 34 88.5 56 127.5s48 75.833 78 110.5c56 64.667 120.833 115.167 194.5 151.5s150.167 54.5 229.5 54.5c81.333 0 168.333 -27.667 261 -83l15 -9l28 -17
c31.333 -20 54 -30 68 -30c16.667 0 30 7 40 21c4.66699 6.66699 8.5 15.334 11.5 26.001s4.5 22.334 4.5 35.001h26v-405h-26c-12.667 125.333 -58.334 229 -137.001 311s-171 123 -277 123c-130.667 0 -228.5 -58 -293.5 -174s-97.5 -291 -97.5 -525
c0 -104 6.33301 -195.167 19 -273.5s31.667 -140.5 57 -186.5c32 -59.333 74.667 -107 128 -143c28 -18 55.167 -31.167 81.5 -39.5s54.5 -12.5 84.5 -12.5c68 0 134.333 19.333 199 58s120 93 166 163c19.333 29.333 34.666 64.666 45.999 105.999
c6.66699 25.333 12.334 50.666 17.001 75.999s7 52 7 80z" />
    <glyph glyph-name="D" unicode="D" horiz-adv-x="1337" 
d="M379 29h119c185.333 0 323.5 53.5 414.5 160.5s136.5 269.833 136.5 488.5c0 219.333 -45.333 382.333 -136 489s-229 160 -415 160h-119v-1298zM25 0v29h151v1298h-151v29h512c113.333 0 210 -12.167 290 -36.5s151 -63.5 213 -117.5
c75.333 -66 132.5 -143.333 171.5 -232s58.5 -186 58.5 -292c0 -106.667 -19.167 -203.834 -57.5 -291.501s-95.833 -164.5 -172.5 -230.5c-60.667 -53.333 -132 -92.666 -214 -117.999s-178.333 -38 -289 -38h-512z" />
    <glyph glyph-name="E" unicode="E" horiz-adv-x="1284" 
d="M178 29l0.000976562 1298h-143v29h1003l25 -330h-31c-10 116.667 -41.5 196 -94.5 238s-152.5 63 -298.5 63h-256v-622h63c117.333 0 195.833 16 235.5 48s59.5 93 59.5 183v8h29v-508h-29v17c0 86 -17.833 144.333 -53.5 175s-116.167 46 -241.5 46h-63v-645h262
c175.333 0 296.666 26.667 363.999 80s101 146.666 101 279.999v6h29v-395h-1104v29h143z" />
    <glyph glyph-name="F" unicode="F" horiz-adv-x="1171" 
d="M39 0v29h158v1298h-158v29h1026l29 -346h-33c-10 118.667 -46.667 201.167 -110 247.5s-175.666 69.5 -336.999 69.5h-213v-622h54c135.333 0 222.666 16.833 261.999 50.5s59 99.167 59 196.5v9h29v-525l-29 1c0 94 -19.5 157.333 -58.5 190s-126.5 49 -262.5 49h-54
v-647h166v-29h-528z" />
    <glyph glyph-name="G" unicode="G" horiz-adv-x="1346" 
d="M1198 178c-74.667 -66.667 -154.665 -118.332 -239.998 -154.999c-42 -17.333 -84 -30.333 -126 -39s-85.333 -13 -130 -13c-191.333 0 -345.666 63.333 -462.999 190s-176 295.667 -176 507c0 115.333 17.5 218.166 52.5 308.499s87.833 168.833 158.5 235.5
c57.333 55.333 121.666 97.833 192.999 127.5s143.666 44.5 216.999 44.5c34.667 0 67.667 -3.33301 99 -10c33.333 -6 65.333 -16.333 96 -31c28.667 -12 62.167 -31.667 100.5 -59s64.166 -41 77.499 -41c18.667 0 33.5 7.16699 44.5 21.5s16.5 35.166 16.5 62.499v14h27
v-413h-29c-16 129.333 -62.333 233 -139 311s-170.334 117 -281.001 117c-125.333 0 -225.166 -57.167 -299.499 -171.5s-111.5 -270.166 -111.5 -467.499c0 -240 35 -419.167 105 -537.5s175 -177.5 315 -177.5c94 0 165.5 25.833 214.5 77.5s73.5 127.5 73.5 227.5v99
h-162v28h506v-28h-139v-228z" />
    <glyph glyph-name="H" unicode="H" horiz-adv-x="1460" 
d="M25 0v29h151v1298h-151v29h512v-29h-158v-606h702v606h-157v29h512v-29h-152v-1298h152v-29h-512v29h157v663h-702v-663h158v-29h-512z" />
    <glyph glyph-name="I" unicode="I" horiz-adv-x="555" 
d="M25 0v29h153v1298h-153v29h505v-29h-145v-1298h145v-29h-505z" />
    <glyph glyph-name="J" unicode="J" horiz-adv-x="707" 
d="M293 1327l-158.001 0.000976562v29h508v-29h-147v-989c0 -174 -24.833 -298.833 -74.5 -374.5s-130.167 -113.5 -241.5 -113.5c-67.333 0 -124.666 16.833 -171.999 50.5s-71 74.5 -71 122.5c0 31.333 10 57.833 30 79.5s46 32.5 78 32.5c25.333 0 46 -8 62 -24
s24 -37.333 24 -64c0 -24 -8 -44.167 -24 -60.5s-38.667 -27.5 -68 -33.5c6 -20 19 -36.667 39 -50c20 -12 46 -18 78 -18c49.333 0 84.5 18.667 105.5 56s31.5 102.666 31.5 195.999v1190z" />
    <glyph glyph-name="K" unicode="K" horiz-adv-x="1063" 
d="M-29 0l0.00195312 29h156v1298h-156v29h508v-29h-145v-627l471 463c13.333 13.333 24.666 25.333 33.999 36s18.666 22 27.999 34c14.667 20.667 22 37 22 49c0 29.333 -47.667 44 -143 44l-27 1v29h485v-29h-12c-54.667 0 -104.167 -10 -148.5 -30
s-107.5 -67.333 -189.5 -142l-369 -344l633 -782h146v-29h-551v29h166l-525 651l-20 -21v-630h145v-29h-508z" />
    <glyph glyph-name="L" unicode="L" horiz-adv-x="1180" 
d="M25 0v29h153v1298h-153v29h505v-29h-145v-1298h229c206 0 342.833 26 410.5 78s101.5 151.667 101.5 299v36h29v-442h-1130z" />
    <glyph glyph-name="M" unicode="M" horiz-adv-x="1565" 
d="M25 0v29c33.333 0 60.333 2 81 6s35.667 9.66699 45 17c16.667 13.333 25 53.333 25 120v1155h-151v29h350l416 -1022l399 1022h352v-29h-147v-1298h147v-29h-508v29h156v1233l-481 -1233h-17l-475 1179v-1036c0 -66.667 9.83301 -107.167 29.5 -121.5
s69.167 -21.5 148.5 -21.5v-29h-370z" />
    <glyph glyph-name="N" unicode="N" horiz-adv-x="1352" 
d="M217 186c0 -64 10.3359 -105.335 31.0029 -124.002c11.333 -9.33301 29.666 -17.166 54.999 -23.499s56.666 -9.5 93.999 -9.5v-29h-374v29c31.333 0 56.833 2.83301 76.5 8.5s35.167 13.834 46.5 24.501c18.667 18.667 28 60.667 28 126v1139h-151v29h387l725 -994v807
c0 64.667 -10.667 106.334 -32 125.001c-10.667 9.33301 -28.834 17.166 -54.501 23.499s-57.167 9.5 -94.5 9.5v29h373v-29c-30 0 -55.5 -3.16699 -76.5 -9.5s-36.5 -14.5 -46.5 -24.5c-18.667 -18.667 -28 -60.667 -28 -126v-1177h-23l-936 1278v-1082z" />
    <glyph glyph-name="O" unicode="O" horiz-adv-x="1346" 
d="M289 678c0 -211.333 34 -376.834 102 -496.501s162.333 -179.5 283 -179.5c119.333 0 213 59.167 281 177.5s102 284.5 102 498.5c0 212.667 -34 378.834 -102 498.501s-161.667 179.5 -281 179.5s-213.333 -60 -282 -180s-103 -286 -103 -498zM66 677.999
c0 96 13.998 185.17 41.998 267.503s69.667 155.5 125 219.5c62 72 130.333 126.5 205 163.5s153.334 55.5 236.001 55.5s161.334 -18.333 236.001 -55s142.667 -91.334 204 -164.001c54.667 -63.333 96 -136 124 -218s42 -171.667 42 -269s-13.833 -186.833 -41.5 -268.5
s-69.167 -154.834 -124.5 -219.501c-60.667 -70.667 -128.5 -124.834 -203.5 -162.501s-153.833 -56.5 -236.5 -56.5s-161.167 18.5 -235.5 55.5s-142.833 91.5 -205.5 163.5c-54 64 -95.333 137.167 -124 219.5s-43 171.833 -43 268.5z" />
    <glyph glyph-name="P" unicode="P" horiz-adv-x="1124" 
d="M383 1329l0.000976562 -667c16.667 -6 33.167 -11.167 49.5 -15.5s37.166 -9 62.499 -14s52 -7.5 80 -7.5c92 0 165.333 30.833 220 92.5s82 144.167 82 247.5c0 122 -36.333 213.5 -109 274.5s-182 91.5 -328 91.5l-28 -1zM25.001 0v29h155v1298h-155v29h530
c167.333 0 295.5 -31.833 384.5 -95.5s133.5 -156.167 133.5 -277.5c0 -118 -42.5 -213.333 -127.5 -286s-196.833 -109 -335.5 -109c-26.667 0 -46 0.5 -58 1.5s-29 3.16699 -51 6.5c-36 6 -75.333 15 -118 27v-594h147v-29h-505z" />
    <glyph glyph-name="Q" unicode="Q" horiz-adv-x="1346" 
d="M569 -18c-153.333 38 -275.504 119.169 -366.504 243.502s-136.5 275.166 -136.5 452.499c0 96 14 185.167 42 267.5s69.667 155.5 125 219.5c62 72 130.333 126.5 205 163.5s153.334 55.5 236.001 55.5s161.334 -18.333 236.001 -55s142.667 -91.334 204 -164.001
c54.667 -63.333 96 -136 124 -218s42 -171.667 42 -269c0 -177.333 -46 -328.5 -138 -453.5s-216.667 -205.833 -374 -242.5v-152c0 -78.667 15.167 -136.5 45.5 -173.5s78.5 -55.5 144.5 -55.5c19.333 0 40 3 62 9c20.667 4.66699 42.334 13 65.001 25l11 -26
c-34 -15.333 -68.167 -27.333 -102.5 -36s-67.833 -13 -100.5 -13c-101.333 0 -180.666 25.167 -237.999 75.5s-86 120.5 -86 210.5v136zM288.996 678.002c0 -211.333 34 -376.834 102 -496.501s162.333 -179.5 283 -179.5c119.333 0 213 59.167 281 177.5
s102 284.5 102 498.5c0 212.667 -34 378.834 -102 498.501s-161.667 179.5 -281 179.5s-213.333 -60 -282 -180s-103 -286 -103 -498z" />
    <glyph glyph-name="R" unicode="R" horiz-adv-x="1237" 
d="M387 1327v-605.998h68c136 0 236.833 24.167 302.5 72.5s98.5 123.166 98.5 224.499c0 107.333 -26 185.666 -78 234.999s-136 74 -252 74h-139zM25 0.00195312l-0.000976562 28.9951h153v1298h-153v29h569c154.667 0 271.834 -27.167 351.501 -81.5
s119.5 -134.5 119.5 -240.5c0 -92 -32.167 -165.167 -96.5 -219.5s-159.833 -88.166 -286.5 -101.499c116 -16.667 198.833 -50.167 248.5 -100.5s81.5 -132.166 95.5 -245.499l9 -93c14 -163.333 54 -245 120 -245l38 3c5.33301 0.666992 11.166 2 17.499 4
s12.5 4.33301 18.5 7l12 -27c-29.333 -9.33301 -60 -16.666 -92 -21.999c-14.667 -2.66699 -29.167 -4.66699 -43.5 -6s-29.833 -2 -46.5 -2c-42.667 0 -79.167 7.83301 -109.5 23.5s-56.166 39.834 -77.499 72.501c-28 44.667 -49.333 132.334 -64 263.001
c0 24.667 -1.33301 47 -4 67c-4.66699 24.667 -7.66699 41.667 -9 51c-12 85.333 -42.333 144.5 -91 177.5s-131.667 49.5 -249 49.5h-68v-661h143v-29h-505z" />
    <glyph glyph-name="S" unicode="S" horiz-adv-x="1014" 
d="M94 485l28.9971 -0.000976562c0 -71.333 11.667 -137.666 35 -198.999c21.333 -55.333 52.333 -106.666 93 -153.999c76.667 -86.667 174 -130 292 -130c94 0 172.333 29.5 235 88.5s94 132.5 94 220.5c0 36.667 -7.16699 71.167 -21.5 103.5
s-35.833 60.166 -64.5 83.499c-44 39.333 -147.667 74.333 -311 105l-26 5c-128.667 25.333 -219.667 67.166 -273 125.499s-80 141.5 -80 249.5c0 123.333 33.667 221 101 293s158 108 272 108c72 0 144.333 -19.333 217 -58l113 -58c14.667 0 26.834 6.16699 36.501 18.5
s14.5 28.5 14.5 48.5v11h29v-400h-29c-16 130.667 -57.167 231.667 -123.5 303s-152.166 107 -257.499 107c-89.333 0 -159.166 -23.833 -209.499 -71.5s-75.5 -114.834 -75.5 -201.501c0 -25.333 2 -48.333 6 -69s10.667 -40 20 -58c16.667 -33.333 44.334 -62 83.001 -86
c22.667 -14 73.167 -27.167 151.5 -39.5s138.5 -23.5 180.5 -33.5c122 -28 209.167 -71.667 261.5 -131s78.5 -142.666 78.5 -249.999c0 -133.333 -38.167 -240.5 -114.5 -321.5s-176.833 -121.5 -301.5 -121.5c-74.667 0 -153.834 17.833 -237.501 53.5
s-130.167 53.5 -139.5 53.5c-13.333 0 -25 -7.33301 -35 -22c-4 -6.66699 -7.5 -15.167 -10.5 -25.5s-4.5 -21.166 -4.5 -32.499h-28v485z" />
    <glyph glyph-name="T" unicode="T" horiz-adv-x="1223" 
d="M1198 1356l-0.000976562 -395.002h-29v51c0 68 -3.16699 119.5 -9.5 154.5s-18.166 62.5 -35.499 82.5c-23.333 28 -57 48 -101 60s-118.667 18 -224 18h-86v-1298h149v-29h-506v29h150v1298h-84c-105.333 0 -180.333 -5.66699 -225 -17s-79 -31.666 -103 -60.999
c-15.333 -18.667 -27 -46.667 -35 -84c-2.66699 -16 -5 -37.667 -7 -65s-3 -56.666 -3 -87.999v-51h-29v395h1178z" />
    <glyph glyph-name="U" unicode="U" horiz-adv-x="1346" 
d="M168 1327h-156v29h535v-29h-168v-895c0 -92 3 -156.667 9 -194s17.333 -68.333 34 -93c26 -40.667 65.5 -71.667 118.5 -93s115.833 -32 188.5 -32c77.333 0 144.333 12 201 36s103.667 60.667 141 110c21.333 28.667 37 62.167 47 100.5s15 99.166 15 182.499v22v684
c0 82.667 -9.16699 132 -27.5 148s-64.5 24 -138.5 24h-35v29h401v-29h-16c-62 0 -102.167 -8.16699 -120.5 -24.5s-27.5 -66.166 -27.5 -149.499v-696c0 -49.333 -1 -90 -3 -122s-5.5 -58.833 -10.5 -80.5s-11.167 -41.167 -18.5 -58.5s-17 -34.333 -29 -51
c-40.667 -57.333 -97.667 -101 -171 -131c-36 -14 -76 -24.667 -120 -32s-92.333 -11 -145 -11c-94.667 0 -177.167 11.5 -247.5 34.5s-126.5 56.5 -168.5 100.5c-31.333 33.333 -53.833 73 -67.5 119s-20.5 122 -20.5 228v874z" />
    <glyph glyph-name="V" unicode="V" horiz-adv-x="1010" 
d="M-133 1327v28.9971h524v-29h-166l361 -1042l309 889l19 59l8 35c0 18.667 -8.66699 32.334 -26 41.001c-10.667 4.66699 -26 8.83398 -46 12.501s-44.667 5.5 -74 5.5v29h375v-29c-35.333 0 -64.5 -2.16699 -87.5 -6.5s-41.5 -11.166 -55.5 -20.499
c-23.333 -14 -45.333 -50.667 -66 -110l-432 -1229l-10 -6l-492 1372h-141z" />
    <glyph glyph-name="W" unicode="W" horiz-adv-x="1511" 
d="M14 1327l-141.001 -0.00195312v29h440v-29h-82l361 -1042l143 411l-223 631h-141v29h786v-29c-34.667 0 -63.5 -2.16699 -86.5 -6.5s-41.5 -11.166 -55.5 -20.499c-24 -14 -46.333 -50.667 -67 -110l-86 -248l225 -657l312 889l17 57l7 37
c0 18.667 -7.5 31.834 -22.5 39.501s-33.167 13 -54.5 16s-43.333 4.5 -66 4.5v28h373v-29c-65.333 0 -111.666 -8.66699 -138.999 -26c-23.333 -13.333 -46 -50.333 -68 -111l-432 -1229l-10 -6l-248 684l-240 -678l-10 -6zM728.999 1327l115.001 -325.999l59 173l18 58
l7 38c0 19.333 -7.83301 33.666 -23.5 42.999s-40.834 14 -75.501 14h-100z" />
    <glyph glyph-name="X" unicode="X" horiz-adv-x="1114" 
d="M-141 0v29.001c80.667 0 137.167 6.83301 169.5 20.5s63.833 44.167 94.5 91.5l336 525l-381 661h-137v29h501v-29h-120l264 -463l184 287l34 55c8 13.333 14.667 25.5 20 36.5s8.66602 22.167 9.99902 33.5c0 34 -47.333 51 -142 51h-10v29h379v-29
c-89.333 0 -164.666 -47 -225.999 -141l-2 -3l-227 -358l447 -796h121v-29h-515v29h150l-332 596l-268 -420c-20 -30.667 -36 -57.334 -48 -80.001s-18 -37.667 -18 -45c0 -34 39 -51 117 -51h19v-29h-420z" />
    <glyph glyph-name="Y" unicode="Y" horiz-adv-x="1014" 
d="M233 0v29h177v483l-363 815h-160v29h523v-29h-146l328 -729l264 598l16 43l5 31c0 19.333 -9 34 -27 44c-18.667 8.66699 -48.667 13 -90 13h-19v29h349v-29h-31c-22.667 0 -40.667 -1.33301 -54 -4s-26 -8 -38 -16c-19.333 -12.667 -40 -42.667 -62 -90l-295 -666v-522
h174v-29h-551z" />
    <glyph glyph-name="Z" unicode="Z" horiz-adv-x="1223" 
d="M43 0l808.999 1327h-225c-197.333 0 -327.666 -20.167 -390.999 -60.5s-95 -115.166 -95 -224.499v-32c0 -9.33301 0.666992 -16.333 2 -21h-28v367h995l-821 -1327h262c209.333 0 350.333 23.333 423 70s109 131 109 253l-1 21l-1 22h29v-395h-1067z" />
    <glyph glyph-name="bracketleft" unicode="[" horiz-adv-x="664" 
d="M639 -436h-444v1792h444v-31h-303v-1726h303v-35z" />
    <glyph glyph-name="backslash" unicode="\" horiz-adv-x="569" 
d="M627 -190h-54l-573 1574h55z" />
    <glyph glyph-name="bracketright" unicode="]" horiz-adv-x="664" 
d="M25 -436v35h303v1726h-303v31h444v-1792h-444z" />
    <glyph glyph-name="asciicircum" unicode="^" horiz-adv-x="2048" 
d="M934 1462h178l520 -565h-92l-518 436l-520 -436h-90z" />
    <glyph glyph-name="underscore" unicode="_" horiz-adv-x="1024" 
d="M0 -365h1024v-118h-1024v118z" />
    <glyph glyph-name="grave" unicode="`" horiz-adv-x="1024" 
d="M688 950h-67l-330 205c-19.333 12.667 -35 26 -47 40c-10 14 -15 28 -15 42c0 21.333 7 38.666 21 51.999s31.667 20 53 20c13.333 0 26.833 -4.16699 40.5 -12.5s32.167 -24.166 55.5 -47.499z" />
    <glyph glyph-name="a" unicode="a" horiz-adv-x="901" 
d="M922 88c-29.333 -37.333 -58.002 -64.335 -86.002 -81.002s-58.333 -25 -91 -25c-41.333 0 -76.333 10.833 -105 32.5s-48 53.834 -58 96.501c-26 -45.333 -63.667 -79.333 -113 -102s-108.666 -34 -177.999 -34c-34.667 0 -65.667 4.66699 -93 14
s-52.666 24.333 -75.999 45c-44.667 39.333 -67 88 -67 146c0 88 44 156 132 204c43.333 23.333 96.666 41.333 159.999 54s135.333 19 216 19h10v207c0 52 -12.333 89.5 -37 112.5s-64.667 34.5 -120 34.5c-46.667 0 -87.667 -11.167 -123 -33.5s-53 -44.5 -53 -66.5
c2 -3.33301 4.5 -6.66602 7.5 -9.99902s9.83301 -10 20.5 -20c19.333 -18 29 -38 29 -60c0 -29.333 -8 -52.833 -24 -70.5s-37.333 -26.5 -64 -26.5c-28.667 0 -51.667 8.66699 -69 26c-16.667 18.667 -25 42.334 -25 71.001c0 59.333 29.167 110.666 87.5 153.999
s130.833 65 217.5 65c42 0 82 -5.83301 120 -17.5s73.667 -29.5 107 -53.5s56 -48.667 68 -74s18 -66.666 18 -123.999v-411c0 -43.333 5 -76 15 -98c10.667 -20.667 26.334 -31 47.001 -31c16 0 32 5.66699 48 17s34.667 31.666 56 60.999zM572.998 149.998
l0.000976562 276l-24 1l-37 1c-94 0 -164 -18.167 -210 -54.5s-69 -93.166 -69 -170.499c0 -58.667 12.667 -103.834 38 -135.501s60.666 -47.5 105.999 -47.5c40 0 77.667 11.5 113 34.5s63 54.833 83 95.5z" />
    <glyph glyph-name="b" unicode="b" horiz-adv-x="1010" 
d="M301 578l0.00195312 -369c28 -66.667 64.167 -117.167 108.5 -151.5s96.166 -51.5 155.499 -51.5c68 0 117.167 22.333 147.5 67s45.5 118 45.5 220v235c0 92.667 -16.333 162 -49 208s-82 69 -148 69c-55.333 0 -105.833 -19.833 -151.5 -59.5
s-81.834 -95.5 -108.501 -167.5zM10.002 29h119v1298h-119v29h101c38 0 71.333 3.66699 100 11c16 4 31 9 45 15s29 13.667 45 23v-754c26.667 59.333 64 105.666 112 138.999s101.333 50 160 50c99.333 0 186 -42.167 260 -126.5s111 -185.5 111 -303.5
c0 -129.333 -36.167 -234.166 -108.5 -314.499s-165.833 -120.5 -280.5 -120.5c-52 0 -99 13.167 -141 39.5s-80.333 66.5 -115 120.5v-135h-289v29z" />
    <glyph glyph-name="c" unicode="c" horiz-adv-x="801" 
d="M764 272c-8.66699 -92 -40.168 -164.502 -94.501 -217.502s-123.166 -79.5 -206.499 -79.5c-118 0 -214.5 38 -289.5 114s-112.5 174 -112.5 294c0 127.333 41.167 235.666 123.5 324.999s182.5 134 300.5 134c75.333 0 138.666 -18.167 189.999 -54.5
s77 -80.5 77 -132.5c0 -22.667 -10.333 -44 -31 -64c-20.667 -18.667 -43.334 -28 -68.001 -28c-23.333 0 -44.666 9 -63.999 27c-17.333 18.667 -26 41 -26 67c0 28.667 15.333 59.334 46 92.001l9 13c0 10.667 -13.333 22.834 -40 36.501s-57 20.5 -91 20.5
c-20 0 -37.667 -1.33301 -53 -4s-32 -8 -50 -16c-30 -11.333 -55.667 -29.5 -77 -54.5s-37.666 -56.167 -48.999 -93.5c-9.33301 -37.333 -14 -95.333 -14 -174v-63v-68c0 -73.333 4 -128.666 12 -165.999s22 -68.333 42 -93s43.667 -43.667 71 -57
c27.333 -12 60.666 -18 99.999 -18c76.667 0 137.334 22 182.001 66s72 108.667 82 194h31z" />
    <glyph glyph-name="d" unicode="d" horiz-adv-x="1010" 
d="M246 291c0 -100.667 15 -173.333 45 -218s79 -67 147 -67c58.667 0 110.5 17 155.5 51s81.167 84.667 108.5 152v366c-26 72 -61.667 127.667 -107 167s-96.333 59 -153 59c-64.667 0 -113.5 -23.167 -146.5 -69.5s-49.5 -114.833 -49.5 -205.5v-235zM705 135.001
c-35.333 -53.333 -73.999 -93.333 -115.999 -120s-88.667 -40 -140 -40c-114.667 0 -208.334 40 -281.001 120s-109 185 -109 315c0 115.333 37.167 215.5 111.5 300.5s160.833 127.5 259.5 127.5c59.333 0 112.333 -16 159 -48s84.334 -79 113.001 -141v678h-116v29h98
c35.333 0 68.666 4 99.999 12s61.333 20.333 90 37v-1376h119v-29h-288v135z" />
    <glyph glyph-name="e" unicode="e" horiz-adv-x="801" 
d="M233 518l316.001 -0.000976562v96c0 66 -13 115.333 -39 148s-66.333 49 -121 49c-52.667 0 -91.834 -18.667 -117.501 -56s-38.5 -93.666 -38.5 -168.999v-68zM233.001 488.999l-0.000976562 -237c0 -85.333 16.333 -147.333 49 -186s84.667 -58 156 -58
c70.667 0 132 23 184 69s89 111 111 195h31c-24 -94 -65.5 -167.333 -124.5 -220s-128.833 -79 -209.5 -79c-104.667 0 -194.667 41.667 -270 125s-113 184.333 -113 303c0 124.667 33.833 229 101.5 313s150.5 126 248.5 126c93.333 0 174 -33 242 -99
c34.667 -34.667 61.834 -73.167 81.501 -115.5s29.5 -87.833 29.5 -136.5h-517z" />
    <glyph glyph-name="f" unicode="f" horiz-adv-x="541" 
d="M47 0l0.000976562 28.999h119v757h-119v29h118l-1 34v52c0 162 25.167 286.833 75.5 374.5s122.833 131.5 217.5 131.5c48.667 0 89.5 -16.167 122.5 -48.5s49.5 -72.166 49.5 -119.499c0 -30 -8.83301 -53.833 -26.5 -71.5s-41.834 -26.5 -72.501 -26.5
c-22 0 -40.333 7.33301 -55 22c-13.333 15.333 -20 35.333 -20 60c0 24 16 46 48 66s48 34.667 48 44c0 12 -8.16699 22.167 -24.5 30.5s-38.166 12.5 -65.499 12.5c-46.667 0 -79.834 -22 -99.501 -66s-29.5 -123.667 -29.5 -239v-256h180v-29h-180v-757h117v-29h-402z" />
    <glyph glyph-name="g" unicode="g" horiz-adv-x="905" 
d="M549 -37l-180.001 0.00195312c-77.333 0 -137 -18.833 -179 -56.5s-63 -91.167 -63 -160.5c0 -68.667 25.333 -123.334 76 -164.001s119.667 -61 207 -61c110.667 0 203.834 30.167 279.501 90.5s113.5 132.5 113.5 216.5c0 49.333 -18.167 84.166 -54.5 104.499
s-102.833 30.5 -199.5 30.5zM261.999 528.002c0 -78.667 13.666 -135.832 40.999 -171.499s71 -53.5 131 -53.5c58.667 0 100.334 19.167 125.001 57.5s37 107.166 37 206.499c0 87.333 -12.833 150.5 -38.5 189.5s-67.5 58.5 -125.5 58.5
c-62 0 -105.833 -20.833 -131.5 -62.5s-38.5 -116.5 -38.5 -224.5zM218.998 -42.9961c-44.667 4 -82.1699 24.499 -112.503 61.499s-45.5 81.5 -45.5 133.5c0 55.333 16.667 98.333 50 129c18 16.667 38.667 29.334 62 38.001s51 13 83 13
c-49.333 33.333 -86.666 68.333 -111.999 105c-23.333 36.667 -35 76.667 -35 120c0 80.667 31 148 93 202s140 81 234 81c44 0 83.833 -6.66699 119.5 -20s67.5 -34 95.5 -62c22 24.667 45.5 43.834 70.5 57.501s51.5 20.5 79.5 20.5c27.333 0 50.5 -7.83301 69.5 -23.5
s28.5 -35.167 28.5 -58.5c0 -20 -6.16699 -36.333 -18.5 -49s-29.5 -19 -51.5 -19s-40 5.83301 -54 17.5s-21 25.5 -21 41.5c0 10 2 20.5 6 31.5s10.667 20.5 20 28.5c-17.333 -2.66699 -35.666 -9.66699 -54.999 -21c-15.333 -9.33301 -33 -24.333 -53 -45
c25.333 -30.667 44.333 -61.334 57 -92.001c6 -15.333 10.667 -30.5 14 -45.5s5 -30.5 5 -46.5c0 -76 -31.333 -141.833 -94 -197.5s-136.667 -83.5 -222 -83.5c-21.333 0 -53 5.16699 -95 15.5s-71.667 15.5 -89 15.5c-40 0 -74.333 -10 -103 -30s-43 -44 -43 -72
c0 -30.667 13.333 -52.334 40 -65.001c28 -11.333 88.667 -17 182 -17h172c142.667 0 237 -17.667 283 -53s69 -99.666 69 -192.999c0 -112.667 -40.5 -205.334 -121.5 -278.001s-185.833 -109 -314.5 -109c-115.333 0 -208.666 22.833 -279.999 68.5
s-107 104.834 -107 177.501c0 43.333 16.833 84.333 50.5 123s81.5 72 143.5 100z" />
    <glyph glyph-name="h" unicode="h" horiz-adv-x="995" 
d="M25 0v29h116v1298h-116v29h98c40.667 0 74.667 3.66699 102 11c15.333 4 30.166 9 44.499 15s28.833 13.667 43.5 23v-748c38.667 62.667 81.5 108.834 128.5 138.501s100.5 44.5 160.5 44.5c79.333 0 142.5 -22.833 189.5 -68.5s70.5 -108.167 70.5 -187.5v-555h119v-29
h-403v29h114v614c0 60 -8.33301 101.333 -25 124s-45.667 34 -87 34c-53.333 0 -101.666 -16.333 -144.999 -49s-84 -83.334 -122 -152.001v-571h113v-29h-401z" />
    <glyph glyph-name="i" unicode="i" horiz-adv-x="455" 
d="M141 786h-115.999v29h98c41.333 0 78.666 2 111.999 6s59.333 10.333 78 19v-811h113v-29h-401v29h116v757zM135.001 1305c0 24.667 8.99805 46.167 26.998 64.5s39 27.5 63 27.5c24.667 0 45.834 -9.16699 63.501 -27.5s26.5 -39.833 26.5 -64.5
c0 -26 -8.66699 -47.667 -26 -65c-16 -17.333 -37.333 -26 -64 -26c-25.333 0 -46.666 9 -63.999 27s-26 39.333 -26 64z" />
    <glyph glyph-name="j" unicode="j" horiz-adv-x="455" 
d="M152 786l-118.999 -0.000976562v29h98c42.667 0 80.167 2 112.5 6s58.5 10.333 78.5 19v-854c0 -155.333 -26.167 -276.5 -78.5 -363.5s-124.5 -130.5 -216.5 -130.5c-48 0 -88.333 16 -121 48s-49 72 -49 120c0 30 8.5 53.5 25.5 70.5s40.5 25.5 70.5 25.5
c21.333 0 39.666 -7.16699 54.999 -21.5s23 -32.166 23 -53.499c0 -28 -16.167 -51.833 -48.5 -71.5s-49.166 -34.167 -50.499 -43.5c0 -12 8.33301 -22.167 25 -30.5s38.667 -12.5 66 -12.5c47.333 0 80.666 21.167 99.999 63.5s29 128.833 29 259.5v940zM143.001 1305
c0 24.667 9 46.166 27 64.499s39 27.5 63 27.5c25.333 0 46.833 -9.16699 64.5 -27.5s26.5 -39.833 26.5 -64.5c0 -26 -8.66699 -47.667 -26 -65s-39 -26 -65 -26c-24.667 0 -46 8.66699 -64 26c-17.333 18.667 -26 40.334 -26 65.001z" />
    <glyph glyph-name="k" unicode="k" horiz-adv-x="948" 
d="M25 0l-0.000976562 29h116v1298h-116v29h98c38.667 0 71.667 3.66699 99 11c14.667 4 29.834 9.16699 45.501 15.5s31.5 13.833 47.5 22.5v-1059l265 262l5 5c62 60 93 98.667 93 116c0 9.33301 -8 16.833 -24 22.5s-39.333 8.5 -70 8.5h-29v28h344v-28h-14
c-33.333 0 -63.5 -6 -90.5 -18s-59.167 -35.333 -96.5 -70l-198 -191l358 -452h115v-29h-434v29h102l-254 340l-72 -72v-268h111v-29h-401z" />
    <glyph glyph-name="l" unicode="l" horiz-adv-x="455" 
d="M25 0l0.000976562 29h116v1298h-116v29h98c40.667 0 74.667 3.66699 102 11c15.333 4 30.166 9 44.499 15s28.833 13.667 43.5 23v-1376h113v-29h-401z" />
    <glyph glyph-name="m" unicode="m" horiz-adv-x="1546" 
d="M141 786h-116v29h98c41.333 0 78.666 2 111.999 6s59.333 10.333 78 19v-183c38.667 62.667 81.5 108.834 128.5 138.501s100.5 44.5 160.5 44.5c68.667 0 125.334 -17 170.001 -51s72.667 -81.333 84 -142c40 64.667 84.167 113 132.5 145s103.166 48 164.499 48
c79.333 0 142.5 -22.833 189.5 -68.5s70.5 -108.167 70.5 -187.5v-555h119v-29h-404v29h115v614c0 60 -8.33301 101.333 -25 124s-46 34 -88 34c-50.667 0 -97.5 -16 -140.5 -48s-85.5 -83 -127.5 -153v-571h119v-29h-403v29h114v614c0 60 -8.33301 101.333 -25 124
s-45.667 34 -87 34c-53.333 0 -101.666 -16.333 -144.999 -49s-84 -83.334 -122 -152.001v-571h113v-29h-401v29h116v757z" />
    <glyph glyph-name="n" unicode="n" horiz-adv-x="995" 
d="M25 0v29h116v757h-116v29h98c41.333 0 78.666 2 111.999 6s59.333 10.333 78 19v-183c38.667 62.667 81.5 108.834 128.5 138.501s100.5 44.5 160.5 44.5c79.333 0 142.5 -22.833 189.5 -68.5s70.5 -108.167 70.5 -187.5v-555h119v-29h-403v29h114v614
c0 60 -8.33301 101.333 -25 124s-45.667 34 -87 34c-53.333 0 -101.666 -16.333 -144.999 -49s-84 -83.334 -122 -152.001v-571h113v-29h-401z" />
    <glyph glyph-name="o" unicode="o" horiz-adv-x="891" 
d="M47 408c0 56.667 10.498 110.831 31.498 162.498s52.167 99.834 93.5 144.501c38.667 40.667 81.334 71.667 128.001 93s95.334 32 146.001 32c106 0 198.833 -43.167 278.5 -129.5s119.5 -187.166 119.5 -302.499c0 -56.667 -10.5 -111.167 -31.5 -163.5
s-52.167 -100.5 -93.5 -144.5c-36.667 -38.667 -78.5 -68.834 -125.5 -90.501s-96.167 -32.5 -147.5 -32.5c-52 0 -101.167 10.5 -147.5 31.5s-88.5 51.5 -126.5 91.5c-40.667 42.667 -71.667 90.334 -93 143.001s-32 107.667 -32 165zM230.998 284.997
c0 -95.333 17.665 -165.668 52.998 -211.001s89.333 -68 162 -68s126.334 22.833 161.001 68.5s52 115.834 52 210.501v247c0 95.333 -17.167 165.666 -51.5 210.999s-88.166 68 -161.499 68c-72.667 0 -126.667 -22.667 -162 -68s-53 -115.666 -53 -210.999v-247z" />
    <glyph glyph-name="p" unicode="p" horiz-adv-x="1010" 
d="M301 578l-0.000976562 -369c26.667 -66 62.334 -116.333 107.001 -151s97.667 -52 159 -52c68 0 117.167 22.333 147.5 67s45.5 118 45.5 220v235c0 92 -16.167 161.167 -48.5 207.5s-81.833 69.5 -148.5 69.5c-55.333 0 -106.5 -20 -153.5 -60
s-83.167 -95.667 -108.5 -167zM300.999 -465h119v-29h-408v29h119v1251h-119v29h99c41.333 0 77.833 2 109.5 6s58.5 10.333 80.5 19v-189c26.667 59.333 64 105.666 112 138.999s101.333 50 160 50c100 0 187.167 -42.333 261.5 -127s111.5 -185.667 111.5 -303
c0 -129.333 -36.167 -234.166 -108.5 -314.499s-165.833 -120.5 -280.5 -120.5c-52 0 -99 13.167 -141 39.5s-80.333 66.5 -115 120.5v-600z" />
    <glyph glyph-name="q" unicode="q" horiz-adv-x="1010" 
d="M707 578c-26 71.333 -61.999 127 -107.999 167s-97 60 -153 60c-64.667 0 -113.5 -23.167 -146.5 -69.5s-49.5 -115.5 -49.5 -207.5v-235c0 -101.333 15.167 -174.5 45.5 -219.5s79.166 -67.5 146.499 -67.5c59.333 0 111.5 17 156.5 51s81.167 84.667 108.5 152v369z
M709.001 -465l0.000976562 599.998c-32 -52 -70 -92 -114 -120c-22 -13.333 -44.167 -23.333 -66.5 -30s-47.5 -10 -75.5 -10c-114.667 0 -208.334 40 -281.001 120s-109 185 -109 315c0 118 37.167 219.167 111.5 303.5s160.833 126.5 259.5 126.5
c60 0 113.5 -16.167 160.5 -48.5s84.5 -79.166 112.5 -140.499v189c20 -7.33301 46.333 -13.666 79 -18.999c31.333 -4 68.333 -6 111 -6h100v-29h-118v-1251h118v-29h-407v29h119z" />
    <glyph glyph-name="r" unicode="r" horiz-adv-x="682" 
d="M25 0l0.000976562 29.0029h116v757h-116v29h98c41.333 0 78.666 2 111.999 6s59.333 10.333 78 19v-213c28.667 71.333 61.5 124.666 98.5 159.999s79.5 53 127.5 53c37.333 0 68.5 -10.167 93.5 -30.5s37.5 -45.833 37.5 -76.5s-7.66699 -54.667 -23 -72
c-14 -17.333 -33.667 -26 -59 -26c-24 0 -45.667 8.33301 -65 25c-18 17.333 -27 37.666 -27 60.999c0 11.333 3.16699 23.666 9.5 36.999s15.833 27.666 28.5 42.999l-15 3l-9 1c-40 0 -77.667 -26.667 -113 -80s-63.333 -125.666 -84 -216.999v-479h113v-29h-401z" />
    <glyph glyph-name="s" unicode="s" horiz-adv-x="674" 
d="M72 -6v287h20c25.333 -94.667 58.333 -163.5 99 -206.5s93.667 -64.5 159 -64.5c57.333 0 102.5 17 135.5 51s49.5 80 49.5 138c0 49.333 -17.333 87.5 -52 114.5s-83.667 40.5 -147 40.5c-82 0 -146.5 20.667 -193.5 62s-70.5 98.666 -70.5 171.999
c0 71.333 21.667 130.833 65 178.5s97.333 71.5 162 71.5c56 0 113.667 -15 173 -45l22 -9c8 0 14 3 18 9s6 14.667 6 26l-1 12l-1 8l33 1v-240h-23c-14.667 71.333 -40.5 124.333 -77.5 159s-85.5 52 -145.5 52c-48 0 -88 -14.167 -120 -42.5s-48 -63.833 -48 -106.5
c0 -18 3 -34.833 9 -50.5s15.333 -30.5 28 -44.5c24 -23.333 76.667 -39 158 -47c17.333 0 30.5 -0.5 39.5 -1.5s21.167 -3.16699 36.5 -6.5c68 -10 121.167 -36.667 159.5 -80s57.5 -99.333 57.5 -168c0 -87.333 -23.667 -157.666 -71 -210.999s-109.666 -80 -186.999 -80
c-68 0 -134 21 -198 63c-15.333 10 -25.333 15 -30 15c-12.667 0 -22.334 -4.33301 -29.001 -13c-2.66699 -4 -4.66699 -9.33301 -6 -16s-2 -16 -2 -28h-28z" />
    <glyph glyph-name="t" unicode="t" horiz-adv-x="592" 
d="M305 143c0 -45.333 6.66699 -77.5 20 -96.5s36 -28.5 68 -28.5c34 0 63.667 9.83301 89 29.5s44.333 47.5 57 83.5h30c-14.667 -50 -40.167 -88.5 -76.5 -115.5s-79.833 -40.5 -130.5 -40.5c-32.667 0 -63.167 5.16699 -91.5 15.5s-53.5 25.833 -75.5 46.5
c-15.333 14 -27 31.333 -35 52c-6.66699 22 -10 50.333 -10 85v41v571h-142v29c80.667 0 142.667 21.667 186 65s72.333 112.333 87 207h24v-272h227v-29h-227v-643z" />
    <glyph glyph-name="u" unicode="u" horiz-adv-x="991" 
d="M686 786h-118.998v29h99c42 0 79.167 2 111.5 6s58.5 10.333 78.5 19v-811h115v-29h-287v182c-42.667 -62.667 -87.334 -108.667 -134.001 -138s-99.667 -44 -159 -44c-79.333 0 -142.833 23 -190.5 69s-71.5 108.333 -71.5 187v530h-117v29h99c42 0 79.167 2 111.5 6
s58.5 10.333 78.5 19v-645c0 -56.667 9.16699 -96.834 27.5 -120.501s49.5 -35.5 93.5 -35.5c47.333 0 92.666 16.333 135.999 49s86 83.334 128 152.001v546z" />
    <glyph glyph-name="v" unicode="v" horiz-adv-x="901" 
d="M92 786h-86v29h381v-29h-117l244 -575l188 461l13 35l4 28c0 17.333 -7.66699 30 -23 38c-8.66699 4 -21.5 7.33301 -38.5 10s-40.167 4 -69.5 4v28h284v-29h-12c-27.333 0 -50 -10 -68 -30s-41.667 -63.667 -71 -131l-262 -639l-17 -11z" />
    <glyph glyph-name="w" unicode="w" horiz-adv-x="1352" 
d="M6 786l0.000976562 29h381v-29h-117l244 -575l141 342l-102 233h-131v29h450v-29h-139l242 -575l188 460l15 40l4 24c0 17.333 -7.66699 30 -23 38c-7.33301 3.33301 -20.333 6.33301 -39 9s-42.334 4 -71.001 4v29h284v-29h-12c-26 0 -47.833 -9 -65.5 -27
s-41.5 -62.667 -71.5 -134l-264 -639l-17 -11l-229 531l-215 -520l-17 -11l-352 811h-84z" />
    <glyph glyph-name="x" unicode="x" horiz-adv-x="891" 
d="M37 786l0.000976562 29.002h399v-29h-102l149 -247l115 145c10.667 12.667 18.167 23.5 22.5 32.5s6.5 17.167 6.5 24.5c0 15.333 -8 26.666 -24 33.999s-41 11 -75 11v29h301v-29h-10c-70 0 -128.333 -29.667 -175 -89l-5 -7l-139 -180l293 -481h100v-29h-428v29h135
l-194 323l-150 -188c-14.667 -19.333 -25.834 -36.333 -33.501 -51s-11.5 -26.334 -11.5 -35.001c0 -16 7.83301 -28.167 23.5 -36.5s39.167 -12.5 70.5 -12.5h12v-29h-319v29h16c65.333 0 130.333 41.667 195 125l4 6l174 221l-244 405h-106z" />
    <glyph glyph-name="y" unicode="y" horiz-adv-x="901" 
d="M541 139c-28 -76 -57.166 -169.335 -87.499 -280.002s-47.833 -173 -52.5 -187c-20.667 -68 -44.667 -115.333 -72 -142s-64 -40 -110 -40c-28.667 0 -52.5 9.83301 -71.5 29.5s-28.5 43.834 -28.5 72.501c0 26 8.16699 48 24.5 66s37.5 27 63.5 27
c24 0 44.333 -9 61 -27s25 -40 25 -66l-1 -10l-1 -14l1 -3l5 -1c21.333 0 42.333 26.833 63 80.5s48.667 161.834 84 324.501l-352 817h-86v29h381v-29h-117l252 -602l180 487l13 40l4 28c0 31.333 -53.667 47 -161 47h-7v29h321v-29h-10c-28 0 -52.333 -11.5 -73 -34.5
s-43.334 -65.833 -68.001 -128.5z" />
    <glyph glyph-name="z" unicode="z" horiz-adv-x="782" 
d="M25 0l503.001 786.001h-198c-80 0 -136.167 -17.333 -168.5 -52s-48.5 -96.334 -48.5 -185.001v-39h-31v305h672l-518 -786h202c81.333 0 141.666 21 180.999 63s59 105.667 59 191v20h27v-303h-680z" />
    <glyph glyph-name="braceleft" unicode="{" horiz-adv-x="1024" 
d="M846 1516l-0.00195312 -51.001c-93.333 0 -157.666 -18.333 -192.999 -55s-53 -106.667 -53 -210v-143c0 -150.667 -20 -253.167 -60 -307.5s-115.667 -92.5 -227 -114.5c109.333 -20 184.5 -57.667 225.5 -113s61.5 -158.333 61.5 -309v-143
c0 -103.333 17.333 -173 52 -209s99.334 -54 194.001 -54v-51h-10c-144.667 0 -244 24.333 -298 73s-81 139.667 -81 273v213c0 105.333 -19.667 178 -59 218c-20.667 21.333 -48.667 38.333 -84 51c-40.667 14.667 -86.667 22 -138 22v60
c56.667 5.33301 103 13.833 139 25.5s64 27.834 84 48.501c38.667 40 58 112 58 216v213c0 132.667 27.167 223.667 81.5 273s153.5 74 297.5 74h10z" />
    <glyph glyph-name="bar" unicode="|" horiz-adv-x="1024" 
d="M449 1565h126v-2048h-126v2048z" />
    <glyph glyph-name="braceright" unicode="}" horiz-adv-x="1024" 
d="M178 1516l10 0.000976562c144.667 0 244 -24.667 298 -74s81 -140.333 81 -273v-213c0 -104.667 19 -176.334 57 -215.001s112.667 -63.667 224 -75v-60c-51.333 0 -95.833 -6.66699 -133.5 -20s-66.667 -30.5 -87 -51.5s-35.5 -49.5 -45.5 -85.5s-15 -80.667 -15 -134
v-213c0 -131.333 -27.333 -221.833 -82 -271.5s-153.667 -74.5 -297 -74.5h-10v51c94 0 158.667 18.333 194 55c17.333 17.333 30.333 43 39 77s13 77.667 13 131v143c0 150 20.167 252.667 60.5 308s115.833 93.333 226.5 114c-110 20 -185.333 57.833 -226 113.5
s-61 158.5 -61 308.5v143c0 104 -17.5 174.167 -52.5 210.5s-99.5 54.5 -193.5 54.5v51z" />
    <glyph glyph-name="asciitilde" unicode="~" horiz-adv-x="1706" 
d="M1530 758l0.00390625 -131.001c-66.667 -48 -132.334 -84 -197.001 -108s-128 -36 -190 -36c-27.333 0 -58 3.16699 -92 9.5s-67 14.833 -99 25.5l-34 11.5c-16.667 5.66699 -34.334 12.167 -53.001 19.5c-134 48 -234.667 72 -302 72
c-56.667 0 -114.667 -12.667 -174 -38c-30 -12 -62.833 -28.167 -98.5 -48.5s-73.167 -44.833 -112.5 -73.5v133c69.333 47.333 136.333 83.333 201 108s126.667 37 186 37c38 0 77.167 -4.16699 117.5 -12.5s98.166 -25.833 173.499 -52.5l35 -13
c110 -39.333 194.667 -59 254 -59c55.333 0 113.166 11.833 173.499 35.5s130.833 63.834 211.5 120.501z" />
    <glyph glyph-name="nonbreakingspace" unicode="&#xa0;" horiz-adv-x="985" 
 />
    <glyph glyph-name="exclamdown" unicode="&#xa1;" horiz-adv-x="674" 
d="M432 1292c0 -24.667 -8.6709 -45.832 -26.0039 -63.499s-38.666 -26.5 -63.999 -26.5s-46.666 8.66699 -63.999 26s-26 38.666 -26 63.999s8.83301 47 26.5 65s38.834 27 63.501 27s45.834 -8.83301 63.501 -26.5s26.5 -39.5 26.5 -65.5zM318.996 1063
l33.001 -0.00195312v-55c0 -203.333 7 -370.666 21 -501.999s36.333 -239.333 67 -324c-21.333 -32 -40.333 -64.667 -57 -98c-8 -16.667 -15.833 -34.5 -23.5 -53.5s-14.834 -38.833 -21.501 -59.5c-8.66699 23.333 -16.5 43.166 -23.5 59.499s-15.833 34.5 -26.5 54.5
c-16.667 34 -35.667 66.333 -57 97c29.333 84.667 51.333 192.334 66 323.001s22 298.334 22 503.001v55z" />
    <glyph glyph-name="cent" unicode="&#xa2;" horiz-adv-x="985" 
d="M487 35l0.000976562 796.001c-74 -14.667 -125.667 -46.334 -155 -95.001c-14 -24 -24.667 -61.167 -32 -111.5s-11 -114.5 -11 -192.5c0 -158 14.167 -261.167 42.5 -309.5s80.166 -77.5 155.499 -87.5zM487.001 -173.999l0.000976562 174.001
c-119.333 10 -212.666 50.667 -279.999 122s-101 165 -101 281c0 118.667 35.167 219.5 105.5 302.5s162.166 132.5 275.499 148.5v162h37l1 -158c40.667 0 77 -4.5 109 -13.5s61.333 -22.833 88 -41.5c50 -34 75 -77.667 75 -131c0 -24.667 -9.66699 -45.834 -29 -63.501
s-42 -26.5 -68 -26.5c-25.333 0 -47 8.83301 -65 26.5s-27 39.5 -27 65.5c0 28 15.333 58.333 46 91l10 13c0 10.667 -12.333 22.167 -37 34.5s-53.334 18.5 -86.001 18.5h-17l1 -798c37.333 0 70.333 5.83301 99 17.5s54.667 29.5 78 53.5c44 44 70 107 78 189h29
c-10 -88.667 -40 -159 -90 -211c-26 -26.667 -55 -47 -87 -61s-68 -21 -108 -21v-174h-37z" />
    <glyph glyph-name="sterling" unicode="&#xa3;" horiz-adv-x="985" 
d="M328 168c-18.667 8.66699 -39 16.001 -61 22.001s-41.333 9 -58 9c-37.333 0 -66.833 -8.83301 -88.5 -26.5s-32.5 -41.834 -32.5 -72.501c0 -22 7.33301 -40.333 22 -55s33.334 -22 56.001 -22c25.333 0 51.666 12 78.999 36s55 60.333 83 109zM82 633.001v37.0049h182
c-44 57.333 -78.333 114.333 -103 171c-10.667 28 -19 55.667 -25 83s-9 54 -9 80c0 101.333 37.5 186 112.5 254s169.167 102 282.5 102c93.333 0 167.833 -21.833 223.5 -65.5s83.5 -102.5 83.5 -176.5c0 -50 -11.333 -91.5 -34 -124.5s-50 -49.5 -82 -49.5
c-28.667 0 -52.667 9.5 -72 28.5s-29 42.167 -29 69.5c0 26.667 8 49.167 24 67.5s34.667 27.5 56 27.5l15 -1l14 -1c14 0 25.667 4.16699 35 12.5s14 19.833 14 34.5c0 33.333 -21.333 64.833 -64 94.5s-91 44.5 -145 44.5c-76 0 -138.333 -28.833 -187 -86.5
s-73 -131.834 -73 -222.501c0 -52 6.16699 -105.833 18.5 -161.5s31.5 -115.834 57.5 -180.501h399v-37h-393c12 -32.667 21 -67.334 27 -104.001c2.66699 -16 5 -34.333 7 -55s3 -40.667 3 -60v-42c-2 -11.333 -3.5 -20.833 -4.5 -28.5s-1.83301 -14.834 -2.5 -21.501
s-3 -18.334 -7 -35.001c83.333 -25.333 172 -62.5 266 -111.5s150.667 -73.5 170 -73.5c18 0 36.333 6.66699 55 20s39 34.666 61 63.999l21 -16c-36.667 -68 -73.167 -117.5 -109.5 -148.5s-74.833 -46.5 -115.5 -46.5c-56 0 -142 33 -258 99l-138 73
c-31.333 -56.667 -62.666 -97.667 -93.999 -123s-65.333 -38 -102 -38c-32.667 0 -60 10.667 -82 32s-33 48 -33 80c0 54.667 24.167 101.834 72.5 141.501s108.166 59.5 179.499 59.5l35 -2h25c8 -2 13.667 -3.33301 17 -4l4 41l1 26c0 48.667 -7.16699 95 -21.5 139
s-37.833 88.667 -70.5 134h-207z" />
    <glyph glyph-name="currency" unicode="&#xa4;" horiz-adv-x="1241" 
d="M623 1200c-86.667 0 -160.667 -30.667 -222 -92s-92 -135 -92 -221c0 -86.667 30.5 -161 91.5 -223s135.167 -93 222.5 -93c85.333 0 158.833 31.167 220.5 93.5s92.5 136.5 92.5 222.5s-30.333 159.667 -91 221s-134.667 92 -222 92zM158 1419l206.998 -207.001
c38.667 29.333 79.334 51.833 122.001 67.5s87.334 23.5 134.001 23.5c48.667 0 93.667 -7.66699 135 -23c43.333 -14 85 -36.667 125 -68l204 207l72 -73l-205 -205c27.333 -37.333 48.5 -77.833 63.5 -121.5s22.5 -88.5 22.5 -134.5
c0 -47.333 -7.16699 -92.5 -21.5 -135.5s-35.833 -83.167 -64.5 -120.5l205 -205l-72 -74l-204 207c-38.667 -29.333 -79.667 -51.333 -123 -66s-89 -22 -137 -22s-93 7 -135 21s-82.333 36.333 -121 67l-207 -207l-72 74l207 205c-29.333 38.667 -51.333 79.667 -66 123
s-22 87.666 -22 132.999c0 46.667 7.16699 91.334 21.5 134.001s36.5 83.334 66.5 122.001l-207 205z" />
    <glyph glyph-name="yen" unicode="&#xa5;" horiz-adv-x="1096" 
d="M313 0l-0.000976562 29h170v475l-49 112h-397v48h377l-66 147h-311v47h289l-199 451h-158v28h477v-28h-141l322 -719l262 590l13 38l5 33c0 20 -8.66699 34.667 -26 44s-46.666 14 -87.999 14h-19v28h344v-28h-28c-41.333 0 -72.333 -7 -93 -21s-41 -44 -61 -90
l-150 -340h271v-47h-293l-64 -147h357v-48h-379l-33 -71v-516h172v-29h-504z" />
    <glyph glyph-name="brokenbar" unicode="&#xa6;" horiz-adv-x="1024" 
d="M449 408h126v-758h-126v758zM449 1432h126v-758h-126v758z" />
    <glyph glyph-name="section" unicode="&#xa7;" horiz-adv-x="1024" 
d="M301 791c-54 -52 -92 -95.835 -114 -131.502s-33 -69.834 -33 -102.501c0 -37.333 11.5 -71.166 34.5 -101.499s58.5 -57.833 106.5 -82.5l159 -78c95.333 -44.667 177.333 -85 246 -121c43.333 38 76.5 77.333 99.5 118s34.5 80 34.5 118
c0 32.667 -8.16699 60.834 -24.5 84.501s-45.833 49.834 -88.5 78.501c-47.333 32 -119.333 69.5 -216 112.5s-164.667 78.167 -204 105.5zM279 806.998c-28 30 -49.333 62.333 -64 97s-22 72 -22 112c0 98.667 33.833 184.667 101.5 258s148.5 110 242.5 110
c82.667 0 150.667 -20.667 204 -62s80 -93.666 80 -156.999c0 -36.667 -10.167 -67 -30.5 -91s-46.833 -36 -79.5 -36c-24.667 0 -45.834 9.16699 -63.501 27.5s-26.5 40.833 -26.5 67.5c0 25.333 7.83301 46 23.5 62s36.5 24 62.5 24c13.333 0 26.333 -3.33301 39 -10
l22 -9l9 1l3 5c0 34 -24.667 67.833 -74 101.5s-105 50.5 -167 50.5c-69.333 0 -128.333 -24 -177 -72s-73 -106.667 -73 -176c0 -44 12.5 -80.167 37.5 -108.5s84.833 -64.5 179.5 -108.5c168.667 -76 279 -140.5 331 -193.5s78 -116.833 78 -191.5
c0 -55.333 -16.333 -113.5 -49 -174.5s-79.667 -120.167 -141 -177.5c44.667 -32.667 78.334 -69.5 101.001 -110.5s34 -84.833 34 -131.5c0 -115.333 -34.167 -208.666 -102.5 -279.999s-159.166 -107 -272.499 -107c-88 0 -161.5 23.333 -220.5 70
s-88.5 102.334 -88.5 167.001c0 36 11.5 67.333 34.5 94s49.833 40 80.5 40c26.667 0 49 -9.5 67 -28.5s27 -43.167 27 -72.5c0 -22 -8.33301 -40.833 -25 -56.5s-36.334 -23.5 -59.001 -23.5c-8.66699 0 -19 2.33301 -31 7l-24 6c-4.66699 0 -8.66699 -1.33301 -12 -4
c-2 -2.66699 -3.66699 -6.33398 -5 -11.001c0 -40.667 25.167 -77 75.5 -109s108.5 -48 174.5 -48c88 0 159.5 23.167 214.5 69.5s82.5 106.166 82.5 179.499c0 89.333 -118 188.666 -354 297.999l-17 8c-142 65.333 -231 120 -267 164s-54 99.667 -54 167
c0 30 3.66699 59 11 87s19.333 57.333 36 88c30.667 57.333 80 120 148 188z" />
    <glyph glyph-name="dieresis" unicode="&#xa8;" horiz-adv-x="1024" 
d="M604 1151c0 26.667 9.83398 50 29.501 70s42.5 30 68.5 30c25.333 0 48.666 -10 69.999 -30c10 -10 17.667 -20.667 23 -32s8 -24 8 -38c0 -28 -9.83301 -51.333 -29.5 -70s-43.5 -28 -71.5 -28s-51.333 9.33301 -70 28s-28 42 -28 70zM223.001 1151
c0 26.667 9.83203 50 29.499 70s42.834 30 69.501 30c26 0 49 -10 69 -30c10 -10 17.667 -20.667 23 -32s8 -24 8 -38c0 -28 -9.66699 -51.333 -29 -70c-10 -9.33301 -20.5 -16.333 -31.5 -21s-24.167 -7 -39.5 -7c-28 0 -51.5 9.33301 -70.5 28s-28.5 42 -28.5 70z" />
    <glyph glyph-name="copyright" unicode="&#xa9;" horiz-adv-x="1683" 
d="M1120 1096l34.998 0.00195312l2 -314h-41c-22 90.667 -56.333 159.167 -103 205.5s-105.667 69.5 -177 69.5c-82.667 0 -144.667 -31.5 -186 -94.5s-62 -155.833 -62 -278.5c0 -126.667 22.167 -221.834 66.5 -285.501s110.833 -95.5 199.5 -95.5
c57.333 0 109.166 14.167 155.499 42.5s88.833 72.166 127.5 131.499l34 -24c-38 -70 -85.667 -122.333 -143 -157c-28.667 -17.333 -59.167 -30.333 -91.5 -39s-68.166 -13 -107.499 -13c-110.667 0 -205.5 41.167 -284.5 123.5s-118.5 181.166 -118.5 296.499
c0 124.667 38.667 228.834 116 312.501s172.333 125.5 285 125.5c49.333 0 98.333 -11 147 -33s76.334 -33.667 83.001 -35c18.667 0 32.834 4.83301 42.501 14.5s16.5 25.5 20.5 47.5zM843.998 1303c-82.667 0 -161.833 -16.167 -237.5 -48.5s-142.667 -78 -201 -137
s-103 -126.667 -134 -203s-46.5 -155.166 -46.5 -236.499c0 -43.333 3.66699 -84 11 -122s19.333 -77 36 -117c31.333 -75.333 76.333 -142.333 135 -201s125.334 -103.5 200.001 -134.5s153 -46.5 235 -46.5c84 0 162.833 15.167 236.5 45.5s139.667 75.666 198 135.999
s103.166 128.166 134.499 203.499s47 154 47 236s-15.667 161.833 -47 239.5s-75.5 145.334 -132.5 203.001s-123.833 102.5 -200.5 134.5s-154.667 48 -234 48zM843.999 1382c90 0 178 -17.668 264 -53.001s162.333 -85.666 229 -150.999
c64 -63.333 114.667 -139.666 152 -228.999c18 -44 31.667 -88.333 41 -133s14 -90.667 14 -138c0 -94 -17.5 -183.333 -52.5 -268s-86.5 -161.334 -154.5 -230.001c-65.333 -66 -140.5 -116.667 -225.5 -152s-174.833 -53 -269.5 -53
c-95.333 0 -184.666 17.333 -267.999 52s-158.833 85.334 -226.5 152.001s-119.334 142.5 -155.001 227.5s-53.5 175.5 -53.5 271.5c0 94 17.667 183.667 53 269s86 161.666 152 228.999c64 64.667 139.5 115.167 226.5 151.5s178.167 54.5 273.5 54.5z" />
    <glyph glyph-name="ordfeminine" unicode="&#xaa;" horiz-adv-x="676" 
d="M692 848c-22 -26 -43.668 -44.8311 -65.001 -56.498s-44 -17.5 -68 -17.5c-32 0 -58.5 7.83301 -79.5 23.5s-35.5 37.834 -43.5 66.501c-18.667 -30.667 -46.334 -54.334 -83.001 -71.001c-17.333 -7.33301 -37.166 -13 -59.499 -17s-47.166 -6 -74.499 -6
c-50.667 0 -93 13.5 -127 40.5s-51 61.167 -51 102.5c0 60.667 33.167 108 99.5 142s160.166 51 281.499 51h8v145c0 36 -9.33301 62.167 -28 78.5s-49 24.5 -91 24.5c-33.333 0 -63.5 -8.16699 -90.5 -24.5s-40.5 -31.5 -40.5 -45.5l21 -21
c14.667 -12.667 22 -26.667 22 -42c0 -19.333 -6 -36 -18 -50c-12 -12 -27.667 -18 -47 -18c-21.333 0 -38.666 6.16699 -51.999 18.5s-20 28.833 -20 49.5c0 42.667 21.833 78.834 65.5 108.501s98.167 44.5 163.5 44.5c32 0 62.333 -4 91 -12s55.667 -20.333 81 -37
c23.333 -16.667 39.833 -34.334 49.5 -53.001s14.5 -47.334 14.5 -86.001v-287c0 -30.667 3.66699 -53.334 11 -68.001s18.666 -22 33.999 -22c12 0 23.333 3.5 34 10.5s25.334 21.167 44.001 42.5zM429.999 891.002v193.999h-45c-70 0 -122.333 -12.833 -157 -38.5
s-52 -65.167 -52 -118.5c0 -40 9.16699 -71.167 27.5 -93.5s44.833 -33.5 79.5 -33.5c29.333 0 57 7.83301 83 23.5s47.333 37.834 64 66.501z" />
    <glyph glyph-name="guillemotleft" unicode="&#xab;" horiz-adv-x="909" 
d="M449 410l121.999 113l87 82c44.667 42.667 83.334 81.334 116.001 116.001h27c-18 -36.667 -46.333 -81 -85 -133c-35.333 -48.667 -82.333 -108 -141 -178c56 -68 102.667 -127.333 140 -178s66 -95.334 86 -134.001h-27c-32 34 -70.667 72.667 -116 116zM110.999 410
l121.999 112.999l87 82c44.667 42.667 83.334 81.334 116.001 116.001h29c-20 -37.333 -47.667 -80.333 -83 -129c-32.667 -45.333 -80.667 -106 -144 -182l81 -100.5c25.333 -32.333 46.333 -60.166 63 -83.499c36 -48.667 63.667 -91.334 83 -128.001h-29
c-32 34 -70.667 72.667 -116 116z" />
    <glyph glyph-name="logicalnot" unicode="&#xac;" horiz-adv-x="1706" 
d="M254 858h1198v-502h-115v385h-1083v117z" />
    <glyph glyph-name="minus" unicode="&#xad;" horiz-adv-x="786" 
d="M170 344v131h446v-131h-446z" />
    <glyph glyph-name="registered" unicode="&#xae;" horiz-adv-x="1683" 
d="M729 719c13.333 0 24 -0.668945 32 -2.00195h34c73.333 0 130.833 15 172.5 45s62.5 73 62.5 129c0 48.667 -17.667 87.834 -53 117.501s-83 44.5 -143 44.5c-34 0 -60 -6.16699 -78 -18.5s-27 -30.166 -27 -53.499v-262zM469 1092l393.003 -0.000976562
c98 0 175.5 -18.167 232.5 -54.5s85.5 -85.166 85.5 -146.499c0 -50 -23.167 -91.167 -69.5 -123.5s-118.833 -57.5 -217.5 -75.5c61.333 -18.667 108.666 -44.667 141.999 -78c31.333 -31.333 55 -75.666 71 -132.999c0.666992 -2.66699 2.33398 -11.5 5.00098 -26.5
s4.66699 -27.167 6 -36.5c8 -58.667 27.667 -88 59 -88c20.667 0 37 11.167 49 33.5s18 55.5 18 99.5h43v-12c0 -58 -13.333 -102.333 -40 -133s-66.667 -46 -120 -46c-30.667 0 -56.834 5.66699 -78.501 17s-37.834 27.666 -48.501 48.999
c-6.66699 14 -11.834 30.167 -15.501 48.5s-5.5 39.833 -5.5 64.5c0 21.333 -0.833008 40.333 -2.5 57s-3.83398 29.667 -6.50098 39c-13.333 45.333 -36.833 78.833 -70.5 100.5s-79.167 32.5 -136.5 32.5h-33v-248c0 -36 8.66699 -61.333 26 -76
c10 -8 23.167 -14.167 39.5 -18.5s36.166 -6.5 59.499 -6.5v-40h-385v40c45.333 0 77.833 7.66699 97.5 23s29.5 41.333 29.5 78v516c0 36 -8.66699 61.333 -26 76c-9.33301 8 -22.166 14.167 -38.499 18.5s-37.166 6.5 -62.499 6.5v43zM844.003 1303
c-80 0 -158.499 -16 -235.499 -48s-144.667 -77.667 -203 -137s-103 -127.166 -134 -203.499s-46.5 -155.166 -46.5 -236.499c0 -84 15.5 -163.667 46.5 -239s76 -142.333 135 -201s125.833 -103.5 200.5 -134.5s153 -46.5 235 -46.5c84 0 162.833 15.167 236.5 45.5
s139.667 75.666 198 135.999s103.166 128.166 134.499 203.499s47 154 47 236c0 81.333 -15.667 161.333 -47 240s-75.5 146.5 -132.5 203.5s-123.833 101.5 -200.5 133.5s-154.667 48 -234 48zM844.004 1382c91.333 0 180.669 -18 268.002 -54s163.333 -86.333 228 -151
s115 -141 151 -229c18 -44 31.333 -88 40 -132s13 -90.667 13 -140c0 -92 -18.333 -181.167 -55 -267.5s-89.334 -163.833 -158.001 -232.5c-66 -66 -140.833 -116 -224.5 -150s-173.834 -51 -270.501 -51c-91.333 0 -178.666 17.333 -261.999 52
s-158.833 85.334 -226.5 152.001s-119.334 142.5 -155.001 227.5s-53.5 175.5 -53.5 271.5c0 94 17.667 183.667 53 269s86 161.666 152 228.999c64 64.667 139.5 115.167 226.5 151.5s178.167 54.5 273.5 54.5z" />
    <glyph glyph-name="macron" unicode="&#xaf;" horiz-adv-x="1024" 
d="M254 1042v125h516v-125h-516z" />
    <glyph glyph-name="degree" unicode="&#xb0;" horiz-adv-x="674" 
d="M338 1372c-56.667 0 -104.666 -19.332 -143.999 -57.999s-59 -86.334 -59 -143.001c0 -56 20 -103.667 60 -143s87.667 -59 143 -59c56 0 103.5 19.667 142.5 59s58.5 87 58.5 143s-19.333 103.5 -58 142.5s-86.334 58.5 -143.001 58.5zM338.001 1454
c78 0 144.668 -27.665 200.001 -82.998s83 -122 83 -200c0 -76.667 -27.833 -142.834 -83.5 -198.501s-122.834 -83.5 -201.501 -83.5c-78 0 -144.333 27.167 -199 81.5s-82 121.166 -82 200.499s27.667 146.333 83 201s122 82 200 82z" />
    <glyph glyph-name="plusminus" unicode="&#xb1;" horiz-adv-x="1706" 
d="M254 158h1198v-117h-1198v117zM795 1180h118v-344h539v-117h-539v-344h-118v344h-541v117h541v344z" />
    <glyph glyph-name="twosuperior" unicode="&#xb2;" horiz-adv-x="649" 
d="M27 535c16 48 82 123 198 225l41 37c73.333 65.333 123.5 122 150.5 170s40.5 99.667 40.5 155c0 63.333 -17.333 113.333 -52 150s-81.667 55 -141 55c-50 0 -94.167 -14.667 -132.5 -44s-57.5 -60.333 -57.5 -93c0 -11.333 3 -20 9 -26c6 -4 19.333 -7 40 -9
c20.667 0 36.667 -4.66699 48 -14s17 -21.666 17 -36.999c0 -16 -6 -30.333 -18 -43s-27 -19 -45 -19c-24 0 -44.667 9.66699 -62 29c-16 20 -24 45.333 -24 76c0 55.333 24.667 102.666 74 141.999s111.333 59 186 59c86 0 154.667 -20.667 206 -62s77 -96.666 77 -165.999
c0 -46.667 -14.5 -89.834 -43.5 -129.501s-85.833 -91.5 -170.5 -155.5l-54 -39c-90 -64.667 -155.667 -119.667 -197 -165h450l23 127h20l-37 -223h-546z" />
    <glyph glyph-name="threesuperior" unicode="&#xb3;" horiz-adv-x="649" 
d="M146 995c9.33301 0 16.668 -0.669922 22.001 -2.00293h33c92 0 156.667 13.5 194 40.5s56 72.833 56 137.5c0 50.667 -14 90 -42 118s-67.333 42 -118 42c-22.667 0 -43.5 -2 -62.5 -6s-37.167 -10.667 -54.5 -20c-34 -17.333 -51 -35.333 -51 -54
c2.66699 -3.33301 5.5 -5.83301 8.5 -7.5s9.16699 -2.5 18.5 -2.5h10c14 0 25.667 -4.16699 35 -12.5s14 -19.166 14 -32.499c0 -16 -5.33301 -29.5 -16 -40.5s-23.667 -16.5 -39 -16.5c-22 0 -39.5 6.33301 -52.5 19s-19.5 30.667 -19.5 54c0 38.667 20.5 71 61.5 97
s93.5 39 157.5 39c79.333 0 141.833 -16 187.5 -48s68.5 -76.333 68.5 -133c0 -46 -19 -84.833 -57 -116.5s-90 -51.5 -156 -59.5c80.667 -10.667 143.167 -35.5 187.5 -74.5s66.5 -89.167 66.5 -150.5c0 -67.333 -31.167 -125.166 -93.5 -173.499
s-138.5 -72.5 -228.5 -72.5c-74.667 0 -134.834 14.667 -180.501 44s-68.5 67.333 -68.5 114c0 24.667 7.66699 45.167 23 61.5s34 24.5 56 24.5c16.667 0 31.834 -6 45.501 -18s20.5 -25.667 20.5 -41c0 -17.333 -5.66699 -31.666 -17 -42.999s-25.333 -17 -42 -17l-20 2
l-15 2c-1.33301 -0.666992 -2.83301 -1.33398 -4.5 -2.00098s-3.33398 -2.33398 -5.00098 -5.00098s-2.5 -7 -2.5 -13c0 -20 19.833 -40 59.5 -60s84.5 -30 134.5 -30c71.333 0 126 18.833 164 56.5s57 91.834 57 162.501c0 78.667 -20.333 135.834 -61 171.501
s-107 53.5 -199 53.5l-28 -1l-47 -3v16z" />
    <glyph glyph-name="acute" unicode="&#xb4;" horiz-adv-x="1024" 
d="M336 950l289.002 298.999c22 22 40.333 37.667 55 47c3.33301 2 9.16602 4.66699 17.499 8s16.166 5 23.499 5c22 0 39.833 -6.66699 53.5 -20s20.5 -30.666 20.5 -51.999c0 -14.667 -5.16699 -28.5 -15.5 -41.5s-25.833 -26.5 -46.5 -40.5l-330 -205h-67z" />
    <glyph glyph-name="mu" unicode="&#xb5;" horiz-adv-x="1120" 
d="M164 193c-17.333 -85.333 -34.667 -198.332 -52 -338.999c-22 -181.333 -59.333 -272 -112 -272c-23.333 0 -42.666 8 -57.999 24c-6.66699 7.33301 -12 16.333 -16 27s-6 23 -6 37c0 12.667 5.5 42.667 16.5 90s27.167 108.666 48.5 183.999
c42.667 156 77.667 298.333 105 427l109 514h147l-104 -492l-10 -59l-3 -53c0 -54.667 14.167 -97.5 42.5 -128.5s67.5 -46.5 117.5 -46.5c65.333 0 119.666 22.667 162.999 68s75 112.333 95 201l111 510h149l-114 -531l-17 -88l-4 -49
c0 -32.667 8.66699 -58.834 26 -78.501s39.333 -29.5 66 -29.5c22 0 43.167 5.83301 63.5 17.5s38.166 28.834 53.499 51.501c12.667 20 26 50.667 40 92s27.333 62 40 62c8 0 14.333 -3.5 19 -10.5s7 -15.833 7 -26.5c0 -10 -0.666992 -19.5 -2 -28.5s-4 -21 -8 -36
s-8.33301 -29.333 -13 -43s-10.334 -27.834 -17.001 -42.501c-25.333 -54.667 -57.166 -95.5 -95.499 -122.5s-83.166 -40.5 -134.499 -40.5c-44.667 0 -80.667 17.167 -108 51.5s-41 80.5 -41 138.5v23c-30 -72.667 -68.333 -127.167 -115 -163.5s-102 -54.5 -166 -54.5
s-114.667 17.833 -152 53.5s-61 89.834 -71 162.501z" />
    <glyph glyph-name="paragraph" unicode="&#xb6;" horiz-adv-x="1024" 
d="M948 1479l-0.000976562 -78.001h-125v-1401h-94v1401h-182v-1401h-96v782c-56 0 -106.833 8.83301 -152.5 26.5s-86.167 42.834 -121.5 75.501c-67.333 63.333 -101 145.333 -101 246c0 104 35.833 188.167 107.5 252.5s166.834 96.5 285.501 96.5h479z" />
    <glyph glyph-name="cedilla" unicode="&#xb8;" horiz-adv-x="1024" 
d="M258 -342l21 41.001c44.667 -16.667 86 -30 124 -40s67.667 -15 89 -15c30.667 0 54.667 8.66699 72 26s26 41.333 26 72c0 28.667 -7.66699 51.5 -23 68.5s-35.666 25.5 -60.999 25.5h-11l-18 -3v167h35v-124l16 1h27c58.667 0 104.667 -12.167 138 -36.5
s50 -57.833 50 -100.5c0 -40.667 -20.333 -74.334 -61 -101.001c-20.667 -13.333 -43.834 -23.333 -69.501 -30s-55.834 -10 -90.501 -10c-34 0 -73.667 5 -119 15s-93.666 24.667 -144.999 44z" />
    <glyph glyph-name="onesuperior" unicode="&#xb9;" horiz-adv-x="651" 
d="M188 535v20h111v627c0 13.333 -1 23.5 -3 30.5s-5 11.167 -9 12.5c-11.333 0 -36.5 -8.5 -75.5 -25.5s-82.167 -39.167 -129.5 -66.5l-4 20c71.333 38.667 128 71.5 170 98.5s82.333 55.5 121 85.5h45v-782h100v-20h-326z" />
    <glyph glyph-name="ordmasculine" unicode="&#xba;" horiz-adv-x="668" 
d="M35 1071c0 39.333 7.99902 77.499 23.999 114.499s39.167 70.333 69.5 100s63 51.834 98 66.501s71.5 22 109.5 22c79.333 0 148.666 -30.167 207.999 -90.5s89 -131.166 89 -212.499c0 -40 -8 -77.667 -24 -113s-39.333 -69.333 -70 -102
c-26.667 -27.333 -57.667 -48.5 -93 -63.5s-72 -22.5 -110 -22.5c-38.667 0 -75.667 7.16699 -111 21.5s-67.666 36.166 -96.999 65.499s-52.166 62.333 -68.499 99s-24.5 75 -24.5 115zM173.999 984.999c0 -66.667 13.167 -115.668 39.5 -147.001s67.166 -47 122.499 -47
c54 0 94.167 15.667 120.5 47s39.5 80.333 39.5 147v174c0 66 -13 115 -39 147s-66.333 48 -121 48c-53.333 0 -93.666 -16.167 -120.999 -48.5s-41 -81.166 -41 -146.499v-174z" />
    <glyph glyph-name="guillemotright" unicode="&#xbb;" horiz-adv-x="909" 
d="M459 410l-209.999 -195.999l-116 -116h-29c18.667 34.667 46.5 77.5 83.5 128.5s85.167 112.167 144.5 183.5c-60 71.333 -108.333 132 -145 182c-17.333 24 -32.833 46.667 -46.5 68s-25.834 41.666 -36.501 60.999h29c32 -34 70.667 -72.667 116 -116zM795.001 410.001
l-210 -196c-44.667 -42.667 -83.334 -81.334 -116.001 -116.001h-27c18 36 46.5 80.833 85.5 134.5s85.833 112.834 140.5 177.501c-55.333 66 -102.166 125.333 -140.499 178s-66.833 97 -85.5 133h27c32 -34 70.667 -72.667 116 -116z" />
    <glyph glyph-name="onequarter" unicode="&#xbc;" horiz-adv-x="1583" 
d="M1229 0v20h94v250h-348l6 9l442 501l15 -8l-373 -424h258v258h111v-258h125v-78h-125v-250h98v-20h-303zM340 -25h-61l962 1385h62zM180 588l0.000976562 20h105v584c0 14 -0.833008 24.333 -2.5 31s-4.5 10 -8.5 10c-10.667 0 -35 -8.33301 -73 -25
c-18 -7.33301 -37.167 -16 -57.5 -26s-42.166 -21.667 -65.499 -35l-4 18c69.333 36 124.166 66.833 164.499 92.5s78.166 52.167 113.499 79.5h43v-729h97v-20h-312z" />
    <glyph glyph-name="onehalf" unicode="&#xbd;" horiz-adv-x="1583" 
d="M987 0c18 47.333 87.665 122.668 208.998 226.001l21 18c68.667 60 116.167 112.5 142.5 157.5s39.5 94.167 39.5 147.5c0 58.667 -16.333 105 -49 139s-78 51 -136 51c-46.667 0 -88.667 -13.333 -126 -40s-56 -55.667 -56 -87c0 -11.333 2.83301 -19 8.5 -23
s18.5 -7 38.5 -9c18 0 33.667 -5 47 -15c11.333 -8 17 -19.667 17 -35c0 -14.667 -6.16699 -27.5 -18.5 -38.5s-26.833 -16.5 -43.5 -16.5c-23.333 0 -42.833 9.16699 -58.5 27.5s-23.5 41.166 -23.5 68.499c0 54 23.5 99 70.5 135s106.167 54 177.5 54
c82.667 0 148.834 -19.333 198.501 -58s74.5 -90.334 74.5 -155.001c0 -42 -13.667 -81.667 -41 -119s-82.666 -86.333 -165.999 -147l-44 -31c-90 -63.333 -154.667 -116.666 -194 -159.999h430l21 117h18l-35 -207h-522zM339.998 -24.998h-61l962 1385h62z
M179.998 588.002l0.000976562 20h105v584c0 14 -0.833008 24.333 -2.5 31s-4.5 10 -8.5 10c-10.667 0 -35 -8.33301 -73 -25c-18 -7.33301 -37.167 -16 -57.5 -26s-42.166 -21.667 -65.499 -35l-4 18c69.333 36 124.166 66.833 164.499 92.5s78.166 52.167 113.499 79.5h43
v-729h97v-20h-312z" />
    <glyph glyph-name="threequarters" unicode="&#xbe;" horiz-adv-x="1583" 
d="M1229 0v20h94v250h-348l6 9l442 501l15 -8l-373 -424h258v258h111v-258h125v-78h-125v-250h98v-20h-303zM340 -25h-61l962 1385h62zM140 1018l18.999 -2.00195h34c88 0 149.5 12.5 184.5 37.5s52.5 68.5 52.5 130.5c0 46.667 -13.333 82.834 -40 108.501
s-64.667 38.5 -114 38.5c-40 0 -76.5 -8.33301 -109.5 -25s-49.5 -33 -49.5 -49c2.66699 -3.33301 5.33398 -5.83301 8.00098 -7.5s8 -2.5 16 -2.5h11c12.667 0 23.667 -4 33 -12s14 -18.333 14 -31c0 -14 -5.16699 -26.333 -15.5 -37s-22.5 -16 -36.5 -16
c-20.667 0 -37.334 6 -50.001 18s-19 29.333 -19 52c0 36 19.167 66.167 57.5 90.5s88.833 36.5 151.5 36.5c76 0 135.833 -15.167 179.5 -45.5s65.5 -71.833 65.5 -124.5c0 -42 -18.167 -78 -54.5 -108s-86.166 -48.667 -149.499 -56
c78.667 -10 138.834 -33.167 180.501 -69.5s62.5 -82.833 62.5 -139.5c0 -64 -29.667 -118.667 -89 -164s-132 -68 -218 -68c-70.667 0 -127.834 13.833 -171.501 41.5s-65.5 63.167 -65.5 106.5c0 22.667 7 41.667 21 57s32 23 54 23c18 0 33.167 -5.5 45.5 -16.5
s18.5 -24.167 18.5 -39.5c0 -14 -6 -27 -18 -39c-12 -10.667 -25 -16 -39 -16c-8.66699 0 -15.667 0.666992 -21 2l-12 2c-4 0 -7.66699 -1.66699 -11 -5l-4 -13c0 -17.333 19.5 -35.666 58.5 -54.999s82.5 -29 130.5 -29c66.667 0 118.167 17.5 154.5 52.5
s54.5 85.833 54.5 152.5c0 73.333 -19.5 126.5 -58.5 159.5s-102.167 49.5 -189.5 49.5l-42 -1l-30 -1z" />
    <glyph glyph-name="questiondown" unicode="&#xbf;" horiz-adv-x="920" 
d="M555 1075l27 4c9.33301 -36.667 16.333 -73.334 21 -110.001c2 -18 3.66699 -36.333 5 -55s2 -38 2 -58c0 -123.333 -58 -236 -174 -338l-14 -12l-6 -5c-122 -106 -183 -201.333 -183 -286c0 -62 22.167 -113.667 66.5 -155s100.833 -62 169.5 -62
c51.333 0 96.666 12 135.999 36s59 49 59 75c0 8 -3.33301 14.667 -10 20s-21.334 12.333 -44.001 21c-26 8.66699 -45.333 20 -58 34c-11.333 14.667 -17 32 -17 52c0 28.667 7.5 50.834 22.5 66.501s36.833 23.5 65.5 23.5c32 0 58 -11 78 -33s30 -51.333 30 -88
c0 -70 -24.167 -127.167 -72.5 -171.5s-112.166 -66.5 -191.499 -66.5c-89.333 0 -161.166 31.5 -215.499 94.5s-81.5 146.167 -81.5 249.5c0 68.667 13.333 130 40 184s74 112.333 142 175l51 45c105.333 91.333 158 180 158 266l-2 36v26c-2 14 -3.33301 24.667 -4 32z
M647 1294c0 -25.333 -8.66699 -47 -26 -65s-38.666 -27 -63.999 -27c-24 0 -45.333 9 -64 27s-28 39.667 -28 65s9 46.666 27 63.999s39.667 26 65 26s46.666 -8.66699 63.999 -26s26 -38.666 26 -63.999z" />
    <glyph glyph-name="Agrave" unicode="&#xc0;" horiz-adv-x="934" 
d="M162 469h397l-207 580zM-145 0v29h26c72 0 121 41 147 123l396 1218h22l482 -1341h135v-29h-520v29h176l-150 411h-417l-101 -326l-6 -21l-2 -15c0 -15.333 9.66699 -27 29 -35c10.667 -3.33301 28 -6.5 52 -9.5s52.333 -4.5 85 -4.5v-29h-354zM643 1495h-67l-330 205
c-19.333 12.667 -35 26 -47 40c-10 14 -15 28 -15 42c0 21.333 7 38.666 21 51.999s31.667 20 53 20c13.333 0 26.833 -4.16699 40.5 -12.5s32.167 -24.166 55.5 -47.499z" />
    <glyph glyph-name="Aacute" unicode="&#xc1;" horiz-adv-x="934" 
d="M162 469h397l-207 580zM-145 0v29h26c72 0 121 41 147 123l396 1218h22l482 -1341h135v-29h-520v29h176l-150 411h-417l-101 -326l-6 -21l-2 -15c0 -15.333 9.66699 -27 29 -35c10.667 -3.33301 28 -6.5 52 -9.5s52.333 -4.5 85 -4.5v-29h-354zM291 1495l289.002 298.999
c22 22 40.333 37.667 55 47c3.33301 2 9.16602 4.66699 17.499 8s16.166 5 23.499 5c22 0 39.833 -6.66699 53.5 -20s20.5 -30.666 20.5 -51.999c0 -14.667 -5.16699 -28.5 -15.5 -41.5s-25.833 -26.5 -46.5 -40.5l-330 -205h-67z" />
    <glyph glyph-name="Acircumflex" unicode="&#xc2;" horiz-adv-x="934" 
d="M162 469h397l-207 580zM-145 0v29h26c72 0 121 41 147 123l396 1218h22l482 -1341h135v-29h-520v29h176l-150 411h-417l-101 -326l-6 -21l-2 -15c0 -15.333 9.66699 -27 29 -35c10.667 -3.33301 28 -6.5 52 -9.5s52.333 -4.5 85 -4.5v-29h-354zM176 1495l232 348h118
l232 -348h-58l-233 209l-233 -209h-58z" />
    <glyph glyph-name="Atilde" unicode="&#xc3;" horiz-adv-x="934" 
d="M162 469h397l-207 580zM-145 0v29h26c72 0 121 41 147 123l396 1218h22l482 -1341h135v-29h-520v29h176l-150 411h-417l-101 -326l-6 -21l-2 -15c0 -15.333 9.66699 -27 29 -35c10.667 -3.33301 28 -6.5 52 -9.5s52.333 -4.5 85 -4.5v-29h-354zM754 1792
c-12.667 -67.333 -35.333 -118.333 -68 -153s-75 -52 -127 -52l-32 2l-42 9l-108 28l-30 6l-19 3c-25.333 0 -45.333 -7 -60 -21s-27 -38 -37 -72h-51c12 70 34.333 122.667 67 158s76 53 130 53c14 0 24.667 -0.666992 32 -2l31 -6l110 -28l36 -9l20 -2
c24.667 0 44 6.66699 58 20s26 35.333 36 66h54z" />
    <glyph glyph-name="Adieresis" unicode="&#xc4;" horiz-adv-x="934" 
d="M162 469h397l-207 580zM-145 0v29h26c72 0 121 41 147 123l396 1218h22l482 -1341h135v-29h-520v29h176l-150 411h-417l-101 -326l-6 -21l-2 -15c0 -15.333 9.66699 -27 29 -35c10.667 -3.33301 28 -6.5 52 -9.5s52.333 -4.5 85 -4.5v-29h-354zM559 1696
c0 26.667 9.83398 50 29.501 70s42.5 30 68.5 30c25.333 0 48.666 -10 69.999 -30c10 -10 17.667 -20.667 23 -32s8 -24 8 -38c0 -28 -9.83301 -51.333 -29.5 -70s-43.5 -28 -71.5 -28s-51.333 9.33301 -70 28s-28 42 -28 70zM178.001 1696c0 26.667 9.83203 50 29.499 70
s42.834 30 69.501 30c26 0 49 -10 69 -30c10 -10 17.667 -20.667 23 -32s8 -24 8 -38c0 -28 -9.66699 -51.333 -29 -70c-10 -9.33301 -20.5 -16.333 -31.5 -21s-24.167 -7 -39.5 -7c-28 0 -51.5 9.33301 -70.5 28s-28.5 42 -28.5 70z" />
    <glyph glyph-name="Aring" unicode="&#xc5;" horiz-adv-x="934" 
d="M270 1677c0 -46.667 16.001 -86.334 48.001 -119.001s71.333 -49 118 -49c46 0 85.5 16.5 118.5 49.5s49.5 72.5 49.5 118.5s-16.333 85.5 -49 118.5s-72.334 49.5 -119.001 49.5c-46 0 -85.167 -16.167 -117.5 -48.5s-48.5 -72.166 -48.5 -119.499zM197.001 1677
c0 68 23.002 125.001 69.002 171.001s102.667 69 170 69c68 0 125.333 -23.333 172 -70s70 -103.334 70 -170.001c0 -67.333 -23.333 -124.333 -70 -171c-22.667 -22.667 -48.334 -40 -77.001 -52s-60.334 -18 -95.001 -18c-66.667 0 -123.167 23.167 -169.5 69.5
s-69.5 103.5 -69.5 171.5zM162.003 469.001h397l-207 580zM-144.997 0.000976562v29h26c72 0 121 41 147 123l396 1218h22l482 -1341h135v-29h-520v29h176l-150 411h-417l-101 -326l-6 -21l-2 -15c0 -15.333 9.66699 -27 29 -35c10.667 -3.33301 28 -6.5 52 -9.5
s52.333 -4.5 85 -4.5v-29h-354z" />
    <glyph glyph-name="AE" unicode="&#xc6;" horiz-adv-x="1788" 
d="M713 473v856h-21l-440 -856h461zM205 0l-398.001 0.00195312v25h7c61.333 0 112.166 14.833 152.499 44.5s88.5 98.5 144.5 206.5l546 1053h-178v27h1092l24 -330h-28c-10 116.667 -41.5 196 -94.5 238s-152.5 63 -298.5 63h-259v-622h64
c118.667 0 197.834 16.167 237.501 48.5s59.5 93.166 59.5 182.499v8h29v-504h-29v13c0 85.333 -18.167 143.5 -54.5 174.5s-117.166 46.5 -242.499 46.5h-64v-645h263c174.667 0 295.667 26.667 363 80s101 146.666 101 279.999v6h29v-395h-1104v29h146v415h-482l-127 -251
l-28 -62c-3.33301 -12 -5.5 -20.333 -6.5 -25s-1.5 -10 -1.5 -16c0 -20 9.66699 -35 29 -45c20.667 -9.33301 51.667 -14 93 -14h15v-31z" />
    <glyph glyph-name="Ccedilla" unicode="&#xc7;" horiz-adv-x="1241" 
d="M1094 485h26.001v-458h-26c-4.66699 30.667 -13 54.334 -25 71.001c-10.667 16.667 -24.334 25 -41.001 25c-16 0 -45.667 -14.667 -89 -44l-29 -19l-2 -2c-86 -58 -169.667 -87 -251 -87c-77.333 0 -152.666 19 -225.999 57s-139.5 91 -198.5 159
s-102.333 139.667 -130 215s-41.5 157.666 -41.5 246.999c0 104 15.667 201 47 291c15.333 46 34 88.5 56 127.5s48 75.833 78 110.5c56 64.667 120.833 115.167 194.5 151.5s150.167 54.5 229.5 54.5c81.333 0 168.333 -27.667 261 -83l15 -9l28 -17
c31.333 -20 54 -30 68 -30c16.667 0 30 7 40 21c4.66699 6.66699 8.5 15.334 11.5 26.001s4.5 22.334 4.5 35.001h26v-405h-26c-12.667 125.333 -58.334 229 -137.001 311s-171 123 -277 123c-130.667 0 -228.5 -58 -293.5 -174s-97.5 -291 -97.5 -525
c0 -104 6.33301 -195.167 19 -273.5s31.667 -140.5 57 -186.5c32 -59.333 74.667 -107 128 -143c28 -18 55.167 -31.167 81.5 -39.5s54.5 -12.5 84.5 -12.5c68 0 134.333 19.333 199 58s120 93 166 163c19.333 29.333 34.666 64.666 45.999 105.999
c6.66699 25.333 12.334 50.666 17.001 75.999s7 52 7 80zM389.001 -342l21 41.001c44.667 -16.667 86 -30 124 -40s67.667 -15 89 -15c30.667 0 54.667 8.66699 72 26s26 41.333 26 72c0 28.667 -7.66699 51.5 -23 68.5s-35.666 25.5 -60.999 25.5h-11l-18 -3v167h35v-124
l16 1h27c58.667 0 104.667 -12.167 138 -36.5s50 -57.833 50 -100.5c0 -40.667 -20.333 -74.334 -61 -101.001c-20.667 -13.333 -43.834 -23.333 -69.501 -30s-55.834 -10 -90.501 -10c-34 0 -73.667 5 -119 15s-93.666 24.667 -144.999 44z" />
    <glyph glyph-name="Egrave" unicode="&#xc8;" horiz-adv-x="1284" 
d="M178 29l0.000976562 1298h-143v29h1003l25 -330h-31c-10 116.667 -41.5 196 -94.5 238s-152.5 63 -298.5 63h-256v-622h63c117.333 0 195.833 16 235.5 48s59.5 93 59.5 183v8h29v-508h-29v17c0 86 -17.833 144.333 -53.5 175s-116.167 46 -241.5 46h-63v-645h262
c175.333 0 296.666 26.667 363.999 80s101 146.666 101 279.999v6h29v-395h-1104v29h143zM864.001 1495h-67l-330 205c-19.333 12.667 -35 26 -47 40c-10 14 -15 28 -15 42c0 21.333 7 38.666 21 51.999s31.667 20 53 20c13.333 0 26.833 -4.16699 40.5 -12.5
s32.167 -24.166 55.5 -47.499z" />
    <glyph glyph-name="Eacute" unicode="&#xc9;" horiz-adv-x="1284" 
d="M178 29l0.000976562 1298h-143v29h1003l25 -330h-31c-10 116.667 -41.5 196 -94.5 238s-152.5 63 -298.5 63h-256v-622h63c117.333 0 195.833 16 235.5 48s59.5 93 59.5 183v8h29v-508h-29v17c0 86 -17.833 144.333 -53.5 175s-116.167 46 -241.5 46h-63v-645h262
c175.333 0 296.666 26.667 363.999 80s101 146.666 101 279.999v6h29v-395h-1104v29h143zM512.001 1495l289.002 298.999c22 22 40.333 37.667 55 47c3.33301 2 9.16602 4.66699 17.499 8s16.166 5 23.499 5c22 0 39.833 -6.66699 53.5 -20s20.5 -30.666 20.5 -51.999
c0 -14.667 -5.16699 -28.5 -15.5 -41.5s-25.833 -26.5 -46.5 -40.5l-330 -205h-67z" />
    <glyph glyph-name="Ecircumflex" unicode="&#xca;" horiz-adv-x="1284" 
d="M178 29l0.000976562 1298h-143v29h1003l25 -330h-31c-10 116.667 -41.5 196 -94.5 238s-152.5 63 -298.5 63h-256v-622h63c117.333 0 195.833 16 235.5 48s59.5 93 59.5 183v8h29v-508h-29v17c0 86 -17.833 144.333 -53.5 175s-116.167 46 -241.5 46h-63v-645h262
c175.333 0 296.666 26.667 363.999 80s101 146.666 101 279.999v6h29v-395h-1104v29h143zM397.001 1495l232 348h118l232 -348h-58l-233 209l-233 -209h-58z" />
    <glyph glyph-name="Edieresis" unicode="&#xcb;" horiz-adv-x="1284" 
d="M178 29l0.000976562 1298h-143v29h1003l25 -330h-31c-10 116.667 -41.5 196 -94.5 238s-152.5 63 -298.5 63h-256v-622h63c117.333 0 195.833 16 235.5 48s59.5 93 59.5 183v8h29v-508h-29v17c0 86 -17.833 144.333 -53.5 175s-116.167 46 -241.5 46h-63v-645h262
c175.333 0 296.666 26.667 363.999 80s101 146.666 101 279.999v6h29v-395h-1104v29h143zM780.001 1696c0 26.667 9.83398 50 29.501 70s42.5 30 68.5 30c25.333 0 48.666 -10 69.999 -30c10 -10 17.667 -20.667 23 -32s8 -24 8 -38c0 -28 -9.83301 -51.333 -29.5 -70
s-43.5 -28 -71.5 -28s-51.333 9.33301 -70 28s-28 42 -28 70zM399.002 1696c0 26.667 9.83203 50 29.499 70s42.834 30 69.501 30c26 0 49 -10 69 -30c10 -10 17.667 -20.667 23 -32s8 -24 8 -38c0 -28 -9.66699 -51.333 -29 -70c-10 -9.33301 -20.5 -16.333 -31.5 -21
s-24.167 -7 -39.5 -7c-28 0 -51.5 9.33301 -70.5 28s-28.5 42 -28.5 70z" />
    <glyph glyph-name="Igrave" unicode="&#xcc;" horiz-adv-x="555" 
d="M25 0v29h153v1298h-153v29h505v-29h-145v-1298h145v-29h-505zM422 1495h-67l-330 205c-19.333 12.667 -35 26 -47 40c-10 14 -15 28 -15 42c0 21.333 7 38.666 21 51.999s31.667 20 53 20c13.333 0 26.833 -4.16699 40.5 -12.5s32.167 -24.166 55.5 -47.499z" />
    <glyph glyph-name="Iacute" unicode="&#xcd;" horiz-adv-x="555" 
d="M25 0v29h153v1298h-153v29h505v-29h-145v-1298h145v-29h-505zM70 1495l289.002 298.999c22 22 40.333 37.667 55 47c3.33301 2 9.16602 4.66699 17.499 8s16.166 5 23.499 5c22 0 39.833 -6.66699 53.5 -20s20.5 -30.666 20.5 -51.999
c0 -14.667 -5.16699 -28.5 -15.5 -41.5s-25.833 -26.5 -46.5 -40.5l-330 -205h-67z" />
    <glyph glyph-name="Icircumflex" unicode="&#xce;" horiz-adv-x="555" 
d="M25 0v29h153v1298h-153v29h505v-29h-145v-1298h145v-29h-505zM-45 1495l232 348h118l232 -348h-58l-233 209l-233 -209h-58z" />
    <glyph glyph-name="Idieresis" unicode="&#xcf;" horiz-adv-x="555" 
d="M25 0v29h153v1298h-153v29h505v-29h-145v-1298h145v-29h-505zM338 1696c0 26.667 9.83398 50 29.501 70s42.5 30 68.5 30c25.333 0 48.666 -10 69.999 -30c10 -10 17.667 -20.667 23 -32s8 -24 8 -38c0 -28 -9.83301 -51.333 -29.5 -70s-43.5 -28 -71.5 -28
s-51.333 9.33301 -70 28s-28 42 -28 70zM-42.999 1696c0 26.667 9.83203 50 29.499 70s42.834 30 69.501 30c26 0 49 -10 69 -30c10 -10 17.667 -20.667 23 -32s8 -24 8 -38c0 -28 -9.66699 -51.333 -29 -70c-10 -9.33301 -20.5 -16.333 -31.5 -21s-24.167 -7 -39.5 -7
c-28 0 -51.5 9.33301 -70.5 28s-28.5 42 -28.5 70z" />
    <glyph glyph-name="Eth" unicode="&#xd0;" horiz-adv-x="1346" 
d="M1198 178c-74.667 -66.667 -154.665 -118.332 -239.998 -154.999c-42 -17.333 -84 -30.333 -126 -39s-85.333 -13 -130 -13c-191.333 0 -345.666 63.333 -462.999 190s-176 295.667 -176 507c0 115.333 17.5 218.166 52.5 308.499s87.833 168.833 158.5 235.5
c57.333 55.333 121.666 97.833 192.999 127.5s143.666 44.5 216.999 44.5c34.667 0 67.667 -3.33301 99 -10c33.333 -6 65.333 -16.333 96 -31c28.667 -12 62.167 -31.667 100.5 -59s64.166 -41 77.499 -41c18.667 0 33.5 7.16699 44.5 21.5s16.5 35.166 16.5 62.499v14h27
v-413h-29c-16 129.333 -62.333 233 -139 311s-170.334 117 -281.001 117c-125.333 0 -225.166 -57.167 -299.499 -171.5s-111.5 -270.166 -111.5 -467.499c0 -240 35 -419.167 105 -537.5s175 -177.5 315 -177.5c94 0 165.5 25.833 214.5 77.5s73.5 127.5 73.5 227.5v99
h-162v28h506v-28h-139v-228zM390.002 1805h51.002c11.333 -48.667 36.333 -84.667 75 -108c18.667 -10.667 42.167 -19 70.5 -25s60.5 -9 96.5 -9c71.333 0 126.166 10.833 164.499 32.5s63.5 58.167 75.5 109.5h51c-12.667 -88.667 -43.834 -156 -93.501 -202
s-115.5 -69 -197.5 -69c-80 0 -145.333 23 -196 69s-83 113.333 -97 202z" />
    <glyph glyph-name="Ntilde" unicode="&#xd1;" horiz-adv-x="1352" 
d="M217 186c0 -64 10.3359 -105.335 31.0029 -124.002c11.333 -9.33301 29.666 -17.166 54.999 -23.499s56.666 -9.5 93.999 -9.5v-29h-374v29c31.333 0 56.833 2.83301 76.5 8.5s35.167 13.834 46.5 24.501c18.667 18.667 28 60.667 28 126v1139h-151v29h387l725 -994v807
c0 64.667 -10.667 106.334 -32 125.001c-10.667 9.33301 -28.834 17.166 -54.501 23.499s-57.167 9.5 -94.5 9.5v29h373v-29c-30 0 -55.5 -3.16699 -76.5 -9.5s-36.5 -14.5 -46.5 -24.5c-18.667 -18.667 -28 -60.667 -28 -126v-1177h-23l-936 1278v-1082zM963.003 1792
c-12.667 -67.333 -35.333 -118.333 -68 -153s-75 -52 -127 -52l-32 2l-42 9l-108 28l-30 6l-19 3c-25.333 0 -45.333 -7 -60 -21s-27 -38 -37 -72h-51c12 70 34.333 122.667 67 158s76 53 130 53c14 0 24.667 -0.666992 32 -2l31 -6l110 -28l36 -9l20 -2
c24.667 0 44 6.66699 58 20s26 35.333 36 66h54z" />
    <glyph glyph-name="Ograve" unicode="&#xd2;" horiz-adv-x="1346" 
d="M289 678c0 -211.333 34 -376.834 102 -496.501s162.333 -179.5 283 -179.5c119.333 0 213 59.167 281 177.5s102 284.5 102 498.5c0 212.667 -34 378.834 -102 498.501s-161.667 179.5 -281 179.5s-213.333 -60 -282 -180s-103 -286 -103 -498zM66 677.999
c0 96 13.998 185.17 41.998 267.503s69.667 155.5 125 219.5c62 72 130.333 126.5 205 163.5s153.334 55.5 236.001 55.5s161.334 -18.333 236.001 -55s142.667 -91.334 204 -164.001c54.667 -63.333 96 -136 124 -218s42 -171.667 42 -269s-13.833 -186.833 -41.5 -268.5
s-69.167 -154.834 -124.5 -219.501c-60.667 -70.667 -128.5 -124.834 -203.5 -162.501s-153.833 -56.5 -236.5 -56.5s-161.167 18.5 -235.5 55.5s-142.833 91.5 -205.5 163.5c-54 64 -95.333 137.167 -124 219.5s-43 171.833 -43 268.5zM810.998 1495h-67l-330 205
c-19.333 12.667 -35 26 -47 40c-10 14 -15 28 -15 42c0 21.333 7 38.666 21 51.999s31.667 20 53 20c13.333 0 26.833 -4.16699 40.5 -12.5s32.167 -24.166 55.5 -47.499z" />
    <glyph glyph-name="Oacute" unicode="&#xd3;" horiz-adv-x="1346" 
d="M289 678c0 -211.333 34 -376.834 102 -496.501s162.333 -179.5 283 -179.5c119.333 0 213 59.167 281 177.5s102 284.5 102 498.5c0 212.667 -34 378.834 -102 498.501s-161.667 179.5 -281 179.5s-213.333 -60 -282 -180s-103 -286 -103 -498zM66 677.999
c0 96 13.998 185.17 41.998 267.503s69.667 155.5 125 219.5c62 72 130.333 126.5 205 163.5s153.334 55.5 236.001 55.5s161.334 -18.333 236.001 -55s142.667 -91.334 204 -164.001c54.667 -63.333 96 -136 124 -218s42 -171.667 42 -269s-13.833 -186.833 -41.5 -268.5
s-69.167 -154.834 -124.5 -219.501c-60.667 -70.667 -128.5 -124.834 -203.5 -162.501s-153.833 -56.5 -236.5 -56.5s-161.167 18.5 -235.5 55.5s-142.833 91.5 -205.5 163.5c-54 64 -95.333 137.167 -124 219.5s-43 171.833 -43 268.5zM458.998 1495l289.002 298.999
c22 22 40.333 37.667 55 47c3.33301 2 9.16602 4.66699 17.499 8s16.166 5 23.499 5c22 0 39.833 -6.66699 53.5 -20s20.5 -30.666 20.5 -51.999c0 -14.667 -5.16699 -28.5 -15.5 -41.5s-25.833 -26.5 -46.5 -40.5l-330 -205h-67z" />
    <glyph glyph-name="Ocircumflex" unicode="&#xd4;" horiz-adv-x="1346" 
d="M289 678c0 -211.333 34 -376.834 102 -496.501s162.333 -179.5 283 -179.5c119.333 0 213 59.167 281 177.5s102 284.5 102 498.5c0 212.667 -34 378.834 -102 498.501s-161.667 179.5 -281 179.5s-213.333 -60 -282 -180s-103 -286 -103 -498zM66 677.999
c0 96 13.998 185.17 41.998 267.503s69.667 155.5 125 219.5c62 72 130.333 126.5 205 163.5s153.334 55.5 236.001 55.5s161.334 -18.333 236.001 -55s142.667 -91.334 204 -164.001c54.667 -63.333 96 -136 124 -218s42 -171.667 42 -269s-13.833 -186.833 -41.5 -268.5
s-69.167 -154.834 -124.5 -219.501c-60.667 -70.667 -128.5 -124.834 -203.5 -162.501s-153.833 -56.5 -236.5 -56.5s-161.167 18.5 -235.5 55.5s-142.833 91.5 -205.5 163.5c-54 64 -95.333 137.167 -124 219.5s-43 171.833 -43 268.5zM343.998 1495l232 348h118l232 -348
h-58l-233 209l-233 -209h-58z" />
    <glyph glyph-name="Otilde" unicode="&#xd5;" horiz-adv-x="1346" 
d="M289 678c0 -211.333 34 -376.834 102 -496.501s162.333 -179.5 283 -179.5c119.333 0 213 59.167 281 177.5s102 284.5 102 498.5c0 212.667 -34 378.834 -102 498.501s-161.667 179.5 -281 179.5s-213.333 -60 -282 -180s-103 -286 -103 -498zM66 677.999
c0 96 13.998 185.17 41.998 267.503s69.667 155.5 125 219.5c62 72 130.333 126.5 205 163.5s153.334 55.5 236.001 55.5s161.334 -18.333 236.001 -55s142.667 -91.334 204 -164.001c54.667 -63.333 96 -136 124 -218s42 -171.667 42 -269s-13.833 -186.833 -41.5 -268.5
s-69.167 -154.834 -124.5 -219.501c-60.667 -70.667 -128.5 -124.834 -203.5 -162.501s-153.833 -56.5 -236.5 -56.5s-161.167 18.5 -235.5 55.5s-142.833 91.5 -205.5 163.5c-54 64 -95.333 137.167 -124 219.5s-43 171.833 -43 268.5zM921.998 1792
c-12.667 -67.333 -35.333 -118.333 -68 -153s-75 -52 -127 -52l-32 2l-42 9l-108 28l-30 6l-19 3c-25.333 0 -45.333 -7 -60 -21s-27 -38 -37 -72h-51c12 70 34.333 122.667 67 158s76 53 130 53c14 0 24.667 -0.666992 32 -2l31 -6l110 -28l36 -9l20 -2
c24.667 0 44 6.66699 58 20s26 35.333 36 66h54z" />
    <glyph glyph-name="Odieresis" unicode="&#xd6;" horiz-adv-x="1346" 
d="M289 678c0 -211.333 34 -376.834 102 -496.501s162.333 -179.5 283 -179.5c119.333 0 213 59.167 281 177.5s102 284.5 102 498.5c0 212.667 -34 378.834 -102 498.501s-161.667 179.5 -281 179.5s-213.333 -60 -282 -180s-103 -286 -103 -498zM66 677.999
c0 96 13.998 185.17 41.998 267.503s69.667 155.5 125 219.5c62 72 130.333 126.5 205 163.5s153.334 55.5 236.001 55.5s161.334 -18.333 236.001 -55s142.667 -91.334 204 -164.001c54.667 -63.333 96 -136 124 -218s42 -171.667 42 -269s-13.833 -186.833 -41.5 -268.5
s-69.167 -154.834 -124.5 -219.501c-60.667 -70.667 -128.5 -124.834 -203.5 -162.501s-153.833 -56.5 -236.5 -56.5s-161.167 18.5 -235.5 55.5s-142.833 91.5 -205.5 163.5c-54 64 -95.333 137.167 -124 219.5s-43 171.833 -43 268.5zM726.998 1696
c0 26.667 9.83398 50 29.501 70s42.5 30 68.5 30c25.333 0 48.666 -10 69.999 -30c10 -10 17.667 -20.667 23 -32s8 -24 8 -38c0 -28 -9.83301 -51.333 -29.5 -70s-43.5 -28 -71.5 -28s-51.333 9.33301 -70 28s-28 42 -28 70zM345.999 1696c0 26.667 9.83203 50 29.499 70
s42.834 30 69.501 30c26 0 49 -10 69 -30c10 -10 17.667 -20.667 23 -32s8 -24 8 -38c0 -28 -9.66699 -51.333 -29 -70c-10 -9.33301 -20.5 -16.333 -31.5 -21s-24.167 -7 -39.5 -7c-28 0 -51.5 9.33301 -70.5 28s-28.5 42 -28.5 70z" />
    <glyph glyph-name="multiply" unicode="&#xd7;" horiz-adv-x="1706" 
d="M381 1169l477 -477l475 477l82 -82l-475 -477l475 -475l-82 -82l-475 475l-477 -475l-80 82l475 475l-475 477z" />
    <glyph glyph-name="Oslash" unicode="&#xd8;" horiz-adv-x="1346" 
d="M63 0l166.001 197c-55.333 64.667 -96.333 136.334 -123 215.001c-13.333 40.667 -23.333 82.334 -30 125.001s-10 89.667 -10 141c0 38.667 2.33301 76.667 7 114s12 73.666 22 108.999c19.333 70 48.333 135 87 195c61.333 93.333 134.166 164.666 218.499 213.999
s175.5 74 273.5 74c78 0 149.333 -14.5 214 -43.5s128.334 -75.167 191.001 -138.5l164 193l33 -21l-170 -200c57.333 -62.667 100.666 -136 129.999 -220s44 -177.333 44 -280c0 -73.333 -8.66699 -143.5 -26 -210.5s-44 -130.167 -80 -189.5
c-58 -94.667 -131.167 -168.834 -219.5 -222.501s-181.833 -80.5 -280.5 -80.5c-78 0 -150.667 15.833 -218 47.5s-134 80.834 -200 147.501l-166 -195zM332.001 319l661 784.996c-39.333 84.667 -84.833 147.834 -136.5 189.501s-110.5 62.5 -176.5 62.5
c-124 0 -220.167 -59.667 -288.5 -179s-102.5 -287.666 -102.5 -504.999c0 -69.333 3.5 -132.166 10.5 -188.499s17.833 -111.166 32.5 -164.499zM1008 1057l-660.001 -783.001c35.333 -90 80.333 -157.833 135 -203.5s118.334 -68.5 191.001 -68.5
c121.333 0 215.5 61.333 282.5 184s100.5 297 100.5 523c0 30 -1 59.333 -3 88s-5.33301 58.334 -10 89.001c-8 58 -20 115 -36 171z" />
    <glyph glyph-name="Ugrave" unicode="&#xd9;" horiz-adv-x="1346" 
d="M168 1327h-156v29h535v-29h-168v-895c0 -92 3 -156.667 9 -194s17.333 -68.333 34 -93c26 -40.667 65.5 -71.667 118.5 -93s115.833 -32 188.5 -32c77.333 0 144.333 12 201 36s103.667 60.667 141 110c21.333 28.667 37 62.167 47 100.5s15 99.166 15 182.499v22v684
c0 82.667 -9.16699 132 -27.5 148s-64.5 24 -138.5 24h-35v29h401v-29h-16c-62 0 -102.167 -8.16699 -120.5 -24.5s-27.5 -66.166 -27.5 -149.499v-696c0 -49.333 -1 -90 -3 -122s-5.5 -58.833 -10.5 -80.5s-11.167 -41.167 -18.5 -58.5s-17 -34.333 -29 -51
c-40.667 -57.333 -97.667 -101 -171 -131c-36 -14 -76 -24.667 -120 -32s-92.333 -11 -145 -11c-94.667 0 -177.167 11.5 -247.5 34.5s-126.5 56.5 -168.5 100.5c-31.333 33.333 -53.833 73 -67.5 119s-20.5 122 -20.5 228v874zM850 1495h-67l-330 205
c-19.333 12.667 -35 26 -47 40c-10 14 -15 28 -15 42c0 21.333 7 38.666 21 51.999s31.667 20 53 20c13.333 0 26.833 -4.16699 40.5 -12.5s32.167 -24.166 55.5 -47.499z" />
    <glyph glyph-name="Uacute" unicode="&#xda;" horiz-adv-x="1346" 
d="M168 1327h-156v29h535v-29h-168v-895c0 -92 3 -156.667 9 -194s17.333 -68.333 34 -93c26 -40.667 65.5 -71.667 118.5 -93s115.833 -32 188.5 -32c77.333 0 144.333 12 201 36s103.667 60.667 141 110c21.333 28.667 37 62.167 47 100.5s15 99.166 15 182.499v22v684
c0 82.667 -9.16699 132 -27.5 148s-64.5 24 -138.5 24h-35v29h401v-29h-16c-62 0 -102.167 -8.16699 -120.5 -24.5s-27.5 -66.166 -27.5 -149.499v-696c0 -49.333 -1 -90 -3 -122s-5.5 -58.833 -10.5 -80.5s-11.167 -41.167 -18.5 -58.5s-17 -34.333 -29 -51
c-40.667 -57.333 -97.667 -101 -171 -131c-36 -14 -76 -24.667 -120 -32s-92.333 -11 -145 -11c-94.667 0 -177.167 11.5 -247.5 34.5s-126.5 56.5 -168.5 100.5c-31.333 33.333 -53.833 73 -67.5 119s-20.5 122 -20.5 228v874zM498 1495l289.002 298.999
c22 22 40.333 37.667 55 47c3.33301 2 9.16602 4.66699 17.499 8s16.166 5 23.499 5c22 0 39.833 -6.66699 53.5 -20s20.5 -30.666 20.5 -51.999c0 -14.667 -5.16699 -28.5 -15.5 -41.5s-25.833 -26.5 -46.5 -40.5l-330 -205h-67z" />
    <glyph glyph-name="Ucircumflex" unicode="&#xdb;" horiz-adv-x="1346" 
d="M168 1327h-156v29h535v-29h-168v-895c0 -92 3 -156.667 9 -194s17.333 -68.333 34 -93c26 -40.667 65.5 -71.667 118.5 -93s115.833 -32 188.5 -32c77.333 0 144.333 12 201 36s103.667 60.667 141 110c21.333 28.667 37 62.167 47 100.5s15 99.166 15 182.499v22v684
c0 82.667 -9.16699 132 -27.5 148s-64.5 24 -138.5 24h-35v29h401v-29h-16c-62 0 -102.167 -8.16699 -120.5 -24.5s-27.5 -66.166 -27.5 -149.499v-696c0 -49.333 -1 -90 -3 -122s-5.5 -58.833 -10.5 -80.5s-11.167 -41.167 -18.5 -58.5s-17 -34.333 -29 -51
c-40.667 -57.333 -97.667 -101 -171 -131c-36 -14 -76 -24.667 -120 -32s-92.333 -11 -145 -11c-94.667 0 -177.167 11.5 -247.5 34.5s-126.5 56.5 -168.5 100.5c-31.333 33.333 -53.833 73 -67.5 119s-20.5 122 -20.5 228v874zM383 1495l232 348h118l232 -348h-58l-233 209
l-233 -209h-58z" />
    <glyph glyph-name="Udieresis" unicode="&#xdc;" horiz-adv-x="1346" 
d="M168 1327h-156v29h535v-29h-168v-895c0 -92 3 -156.667 9 -194s17.333 -68.333 34 -93c26 -40.667 65.5 -71.667 118.5 -93s115.833 -32 188.5 -32c77.333 0 144.333 12 201 36s103.667 60.667 141 110c21.333 28.667 37 62.167 47 100.5s15 99.166 15 182.499v22v684
c0 82.667 -9.16699 132 -27.5 148s-64.5 24 -138.5 24h-35v29h401v-29h-16c-62 0 -102.167 -8.16699 -120.5 -24.5s-27.5 -66.166 -27.5 -149.499v-696c0 -49.333 -1 -90 -3 -122s-5.5 -58.833 -10.5 -80.5s-11.167 -41.167 -18.5 -58.5s-17 -34.333 -29 -51
c-40.667 -57.333 -97.667 -101 -171 -131c-36 -14 -76 -24.667 -120 -32s-92.333 -11 -145 -11c-94.667 0 -177.167 11.5 -247.5 34.5s-126.5 56.5 -168.5 100.5c-31.333 33.333 -53.833 73 -67.5 119s-20.5 122 -20.5 228v874zM766 1696c0 26.667 9.83398 50 29.501 70
s42.5 30 68.5 30c25.333 0 48.666 -10 69.999 -30c10 -10 17.667 -20.667 23 -32s8 -24 8 -38c0 -28 -9.83301 -51.333 -29.5 -70s-43.5 -28 -71.5 -28s-51.333 9.33301 -70 28s-28 42 -28 70zM385.001 1696c0 26.667 9.83203 50 29.499 70s42.834 30 69.501 30
c26 0 49 -10 69 -30c10 -10 17.667 -20.667 23 -32s8 -24 8 -38c0 -28 -9.66699 -51.333 -29 -70c-10 -9.33301 -20.5 -16.333 -31.5 -21s-24.167 -7 -39.5 -7c-28 0 -51.5 9.33301 -70.5 28s-28.5 42 -28.5 70z" />
    <glyph glyph-name="Yacute" unicode="&#xdd;" horiz-adv-x="555" 
d="M25 0v29h153v1298h-153v29h505v-29h-145v-1298h145v-29h-505zM186 1633c0 29.333 10.165 54.165 30.498 74.498s45.166 30.5 74.499 30.5c28.667 0 53.334 -10.167 74.001 -30.5s31 -45.166 31 -74.499s-10.167 -54.166 -30.5 -74.499s-45.166 -30.5 -74.499 -30.5
s-54.166 10 -74.499 30s-30.5 45 -30.5 75z" />
    <glyph glyph-name="Thorn" unicode="&#xde;" horiz-adv-x="1014" 
d="M94 485l28.9971 -0.000976562c0 -71.333 11.667 -137.666 35 -198.999c21.333 -55.333 52.333 -106.666 93 -153.999c76.667 -86.667 174 -130 292 -130c94 0 172.333 29.5 235 88.5s94 132.5 94 220.5c0 36.667 -7.16699 71.167 -21.5 103.5
s-35.833 60.166 -64.5 83.499c-44 39.333 -147.667 74.333 -311 105l-26 5c-128.667 25.333 -219.667 67.166 -273 125.499s-80 141.5 -80 249.5c0 123.333 33.667 221 101 293s158 108 272 108c72 0 144.333 -19.333 217 -58l113 -58c14.667 0 26.834 6.16699 36.501 18.5
s14.5 28.5 14.5 48.5v11h29v-400h-29c-16 130.667 -57.167 231.667 -123.5 303s-152.166 107 -257.499 107c-89.333 0 -159.166 -23.833 -209.499 -71.5s-75.5 -114.834 -75.5 -201.501c0 -25.333 2 -48.333 6 -69s10.667 -40 20 -58c16.667 -33.333 44.334 -62 83.001 -86
c22.667 -14 73.167 -27.167 151.5 -39.5s138.5 -23.5 180.5 -33.5c122 -28 209.167 -71.667 261.5 -131s78.5 -142.666 78.5 -249.999c0 -133.333 -38.167 -240.5 -114.5 -321.5s-176.833 -121.5 -301.5 -121.5c-74.667 0 -153.834 17.833 -237.501 53.5
s-130.167 53.5 -139.5 53.5c-13.333 0 -25 -7.33301 -35 -22c-4 -6.66699 -7.5 -15.167 -10.5 -25.5s-4.5 -21.166 -4.5 -32.499h-28v485zM253.997 -342.001l21 41.001c44.667 -16.667 86 -30 124 -40s67.667 -15 89 -15c30.667 0 54.667 8.66699 72 26s26 41.333 26 72
c0 28.667 -7.66699 51.5 -23 68.5s-35.666 25.5 -60.999 25.5h-11l-18 -3v167h35v-124l16 1h27c58.667 0 104.667 -12.167 138 -36.5s50 -57.833 50 -100.5c0 -40.667 -20.333 -74.334 -61 -101.001c-20.667 -13.333 -43.834 -23.333 -69.501 -30s-55.834 -10 -90.501 -10
c-34 0 -73.667 5 -119 15s-93.666 24.667 -144.999 44z" />
    <glyph glyph-name="germandbls" unicode="&#xdf;" horiz-adv-x="1034" 
d="M20 0l-0.000976562 29.001h107v757h-107v29h107v35c0 176.667 35.333 313.334 106 410.001s171.334 145 302.001 145c81.333 0 149.333 -25.833 204 -77.5s82 -115.834 82 -192.501c0 -38.667 -7.16699 -76 -21.5 -112s-37.833 -72.667 -70.5 -110l-62 -70
c-56.667 -64 -85 -108.667 -85 -134c0 -26 34.667 -54 104 -84l64 -29c88.667 -42 148 -82.833 178 -122.5s45 -92.5 45 -158.5c0 -100 -30.333 -181.667 -91 -245s-139.667 -95 -237 -95c-73.333 0 -132.666 19.5 -177.999 58.5s-68 89.833 -68 152.5
c0 32.667 9.66699 59 29 79s44.666 30 75.999 30c24 0 43.667 -7.16699 59 -21.5s23 -33.833 23 -58.5c0 -22.667 -15.333 -45.834 -46 -69.501s-46 -42.167 -46 -55.5c0 -22.667 15 -42.334 45 -59.001s68 -25 114 -25c68 0 125.333 21.333 172 64s70 95.667 70 159
c0 40.667 -11 76 -33 106s-55.667 55 -101 75l-59 25c-142 60 -213 119.667 -213 179c0 44 36.333 110.333 109 199l57 72c24.667 31.333 44 69.333 58 114c6.66699 22.667 11.667 45 15 67s5 46.333 5 73c0 72.667 -18.333 130 -55 172s-85.334 63 -146.001 63
c-81.333 0 -141.166 -35.167 -179.499 -105.5s-57.5 -183.166 -57.5 -338.499v-901h100v-29h-375z" />
    <glyph glyph-name="agrave" unicode="&#xe0;" horiz-adv-x="901" 
d="M922 88c-29.333 -37.333 -58.002 -64.335 -86.002 -81.002s-58.333 -25 -91 -25c-41.333 0 -76.333 10.833 -105 32.5s-48 53.834 -58 96.501c-26 -45.333 -63.667 -79.333 -113 -102s-108.666 -34 -177.999 -34c-34.667 0 -65.667 4.66699 -93 14
s-52.666 24.333 -75.999 45c-44.667 39.333 -67 88 -67 146c0 88 44 156 132 204c43.333 23.333 96.666 41.333 159.999 54s135.333 19 216 19h10v207c0 52 -12.333 89.5 -37 112.5s-64.667 34.5 -120 34.5c-46.667 0 -87.667 -11.167 -123 -33.5s-53 -44.5 -53 -66.5
c2 -3.33301 4.5 -6.66602 7.5 -9.99902s9.83301 -10 20.5 -20c19.333 -18 29 -38 29 -60c0 -29.333 -8 -52.833 -24 -70.5s-37.333 -26.5 -64 -26.5c-28.667 0 -51.667 8.66699 -69 26c-16.667 18.667 -25 42.334 -25 71.001c0 59.333 29.167 110.666 87.5 153.999
s130.833 65 217.5 65c42 0 82 -5.83301 120 -17.5s73.667 -29.5 107 -53.5s56 -48.667 68 -74s18 -66.666 18 -123.999v-411c0 -43.333 5 -76 15 -98c10.667 -20.667 26.334 -31 47.001 -31c16 0 32 5.66699 48 17s34.667 31.666 56 60.999zM572.998 149.998
l0.000976562 276l-24 1l-37 1c-94 0 -164 -18.167 -210 -54.5s-69 -93.166 -69 -170.499c0 -58.667 12.667 -103.834 38 -135.501s60.666 -47.5 105.999 -47.5c40 0 77.667 11.5 113 34.5s63 54.833 83 95.5zM626.999 949.998h-67l-330 205c-19.333 12.667 -35 26 -47 40
c-10 14 -15 28 -15 42c0 21.333 7 38.666 21 51.999s31.667 20 53 20c13.333 0 26.833 -4.16699 40.5 -12.5s32.167 -24.166 55.5 -47.499z" />
    <glyph glyph-name="aacute" unicode="&#xe1;" horiz-adv-x="901" 
d="M922 88c-29.333 -37.333 -58.002 -64.335 -86.002 -81.002s-58.333 -25 -91 -25c-41.333 0 -76.333 10.833 -105 32.5s-48 53.834 -58 96.501c-26 -45.333 -63.667 -79.333 -113 -102s-108.666 -34 -177.999 -34c-34.667 0 -65.667 4.66699 -93 14
s-52.666 24.333 -75.999 45c-44.667 39.333 -67 88 -67 146c0 88 44 156 132 204c43.333 23.333 96.666 41.333 159.999 54s135.333 19 216 19h10v207c0 52 -12.333 89.5 -37 112.5s-64.667 34.5 -120 34.5c-46.667 0 -87.667 -11.167 -123 -33.5s-53 -44.5 -53 -66.5
c2 -3.33301 4.5 -6.66602 7.5 -9.99902s9.83301 -10 20.5 -20c19.333 -18 29 -38 29 -60c0 -29.333 -8 -52.833 -24 -70.5s-37.333 -26.5 -64 -26.5c-28.667 0 -51.667 8.66699 -69 26c-16.667 18.667 -25 42.334 -25 71.001c0 59.333 29.167 110.666 87.5 153.999
s130.833 65 217.5 65c42 0 82 -5.83301 120 -17.5s73.667 -29.5 107 -53.5s56 -48.667 68 -74s18 -66.666 18 -123.999v-411c0 -43.333 5 -76 15 -98c10.667 -20.667 26.334 -31 47.001 -31c16 0 32 5.66699 48 17s34.667 31.666 56 60.999zM572.998 149.998
l0.000976562 276l-24 1l-37 1c-94 0 -164 -18.167 -210 -54.5s-69 -93.166 -69 -170.499c0 -58.667 12.667 -103.834 38 -135.501s60.666 -47.5 105.999 -47.5c40 0 77.667 11.5 113 34.5s63 54.833 83 95.5zM274.999 949.998l289.002 298.999c22 22 40.333 37.667 55 47
c3.33301 2 9.16602 4.66699 17.499 8s16.166 5 23.499 5c22 0 39.833 -6.66699 53.5 -20s20.5 -30.666 20.5 -51.999c0 -14.667 -5.16699 -28.5 -15.5 -41.5s-25.833 -26.5 -46.5 -40.5l-330 -205h-67z" />
    <glyph glyph-name="acircumflex" unicode="&#xe2;" horiz-adv-x="901" 
d="M922 88c-29.333 -37.333 -58.002 -64.335 -86.002 -81.002s-58.333 -25 -91 -25c-41.333 0 -76.333 10.833 -105 32.5s-48 53.834 -58 96.501c-26 -45.333 -63.667 -79.333 -113 -102s-108.666 -34 -177.999 -34c-34.667 0 -65.667 4.66699 -93 14
s-52.666 24.333 -75.999 45c-44.667 39.333 -67 88 -67 146c0 88 44 156 132 204c43.333 23.333 96.666 41.333 159.999 54s135.333 19 216 19h10v207c0 52 -12.333 89.5 -37 112.5s-64.667 34.5 -120 34.5c-46.667 0 -87.667 -11.167 -123 -33.5s-53 -44.5 -53 -66.5
c2 -3.33301 4.5 -6.66602 7.5 -9.99902s9.83301 -10 20.5 -20c19.333 -18 29 -38 29 -60c0 -29.333 -8 -52.833 -24 -70.5s-37.333 -26.5 -64 -26.5c-28.667 0 -51.667 8.66699 -69 26c-16.667 18.667 -25 42.334 -25 71.001c0 59.333 29.167 110.666 87.5 153.999
s130.833 65 217.5 65c42 0 82 -5.83301 120 -17.5s73.667 -29.5 107 -53.5s56 -48.667 68 -74s18 -66.666 18 -123.999v-411c0 -43.333 5 -76 15 -98c10.667 -20.667 26.334 -31 47.001 -31c16 0 32 5.66699 48 17s34.667 31.666 56 60.999zM572.998 149.998
l0.000976562 276l-24 1l-37 1c-94 0 -164 -18.167 -210 -54.5s-69 -93.166 -69 -170.499c0 -58.667 12.667 -103.834 38 -135.501s60.666 -47.5 105.999 -47.5c40 0 77.667 11.5 113 34.5s63 54.833 83 95.5zM159.999 949.998l232 348h118l232 -348h-58l-233 209l-233 -209
h-58z" />
    <glyph glyph-name="atilde" unicode="&#xe3;" horiz-adv-x="901" 
d="M922 88c-29.333 -37.333 -58.002 -64.335 -86.002 -81.002s-58.333 -25 -91 -25c-41.333 0 -76.333 10.833 -105 32.5s-48 53.834 -58 96.501c-26 -45.333 -63.667 -79.333 -113 -102s-108.666 -34 -177.999 -34c-34.667 0 -65.667 4.66699 -93 14
s-52.666 24.333 -75.999 45c-44.667 39.333 -67 88 -67 146c0 88 44 156 132 204c43.333 23.333 96.666 41.333 159.999 54s135.333 19 216 19h10v207c0 52 -12.333 89.5 -37 112.5s-64.667 34.5 -120 34.5c-46.667 0 -87.667 -11.167 -123 -33.5s-53 -44.5 -53 -66.5
c2 -3.33301 4.5 -6.66602 7.5 -9.99902s9.83301 -10 20.5 -20c19.333 -18 29 -38 29 -60c0 -29.333 -8 -52.833 -24 -70.5s-37.333 -26.5 -64 -26.5c-28.667 0 -51.667 8.66699 -69 26c-16.667 18.667 -25 42.334 -25 71.001c0 59.333 29.167 110.666 87.5 153.999
s130.833 65 217.5 65c42 0 82 -5.83301 120 -17.5s73.667 -29.5 107 -53.5s56 -48.667 68 -74s18 -66.666 18 -123.999v-411c0 -43.333 5 -76 15 -98c10.667 -20.667 26.334 -31 47.001 -31c16 0 32 5.66699 48 17s34.667 31.666 56 60.999zM572.998 149.998
l0.000976562 276l-24 1l-37 1c-94 0 -164 -18.167 -210 -54.5s-69 -93.166 -69 -170.499c0 -58.667 12.667 -103.834 38 -135.501s60.666 -47.5 105.999 -47.5c40 0 77.667 11.5 113 34.5s63 54.833 83 95.5zM737.999 1247c-12.667 -67.333 -35.333 -118.333 -68 -153
s-75 -52 -127 -52l-32 2l-42 9l-108 28l-30 6l-19 3c-25.333 0 -45.333 -7 -60 -21s-27 -38 -37 -72h-51c12 70 34.333 122.667 67 158s76 53 130 53c14 0 24.667 -0.666992 32 -2l31 -6l110 -28l36 -9l20 -2c24.667 0 44 6.66699 58 20s26 35.333 36 66h54z" />
    <glyph glyph-name="adieresis" unicode="&#xe4;" horiz-adv-x="901" 
d="M922 88c-29.333 -37.333 -58.002 -64.335 -86.002 -81.002s-58.333 -25 -91 -25c-41.333 0 -76.333 10.833 -105 32.5s-48 53.834 -58 96.501c-26 -45.333 -63.667 -79.333 -113 -102s-108.666 -34 -177.999 -34c-34.667 0 -65.667 4.66699 -93 14
s-52.666 24.333 -75.999 45c-44.667 39.333 -67 88 -67 146c0 88 44 156 132 204c43.333 23.333 96.666 41.333 159.999 54s135.333 19 216 19h10v207c0 52 -12.333 89.5 -37 112.5s-64.667 34.5 -120 34.5c-46.667 0 -87.667 -11.167 -123 -33.5s-53 -44.5 -53 -66.5
c2 -3.33301 4.5 -6.66602 7.5 -9.99902s9.83301 -10 20.5 -20c19.333 -18 29 -38 29 -60c0 -29.333 -8 -52.833 -24 -70.5s-37.333 -26.5 -64 -26.5c-28.667 0 -51.667 8.66699 -69 26c-16.667 18.667 -25 42.334 -25 71.001c0 59.333 29.167 110.666 87.5 153.999
s130.833 65 217.5 65c42 0 82 -5.83301 120 -17.5s73.667 -29.5 107 -53.5s56 -48.667 68 -74s18 -66.666 18 -123.999v-411c0 -43.333 5 -76 15 -98c10.667 -20.667 26.334 -31 47.001 -31c16 0 32 5.66699 48 17s34.667 31.666 56 60.999zM572.998 149.998
l0.000976562 276l-24 1l-37 1c-94 0 -164 -18.167 -210 -54.5s-69 -93.166 -69 -170.499c0 -58.667 12.667 -103.834 38 -135.501s60.666 -47.5 105.999 -47.5c40 0 77.667 11.5 113 34.5s63 54.833 83 95.5zM542.999 1151c0 26.667 9.83398 50 29.501 70s42.5 30 68.5 30
c25.333 0 48.666 -10 69.999 -30c10 -10 17.667 -20.667 23 -32s8 -24 8 -38c0 -28 -9.83301 -51.333 -29.5 -70s-43.5 -28 -71.5 -28s-51.333 9.33301 -70 28s-28 42 -28 70zM162 1151c0 26.667 9.83203 50 29.499 70s42.834 30 69.501 30c26 0 49 -10 69 -30
c10 -10 17.667 -20.667 23 -32s8 -24 8 -38c0 -28 -9.66699 -51.333 -29 -70c-10 -9.33301 -20.5 -16.333 -31.5 -21s-24.167 -7 -39.5 -7c-28 0 -51.5 9.33301 -70.5 28s-28.5 42 -28.5 70z" />
    <glyph glyph-name="aring" unicode="&#xe5;" horiz-adv-x="901" 
d="M254 1147c0 -48.667 15.835 -88.8311 47.502 -120.498s71.167 -47.5 118.5 -47.5c45.333 0 84.666 16.167 117.999 48.5s50 72.166 50 119.499c0 46 -16.333 85.5 -49 118.5s-72.334 49.5 -119.001 49.5c-46 0 -85.167 -16.333 -117.5 -49s-48.5 -72.334 -48.5 -119.001z
M178.002 1147c0 66.667 23.167 123.167 69.5 169.5s103.833 69.5 172.5 69.5c67.333 0 124.5 -23.167 171.5 -69.5s70.5 -102.833 70.5 -169.5c0 -67.333 -23.5 -124.5 -70.5 -171.5s-104.167 -70.5 -171.5 -70.5c-68 0 -125.333 23.667 -172 71s-70 104.333 -70 171z
M922.002 88.0029c-29.333 -37.333 -58.002 -64.335 -86.002 -81.002s-58.333 -25 -91 -25c-41.333 0 -76.333 10.833 -105 32.5s-48 53.834 -58 96.501c-26 -45.333 -63.667 -79.333 -113 -102s-108.666 -34 -177.999 -34c-34.667 0 -65.667 4.66699 -93 14
s-52.666 24.333 -75.999 45c-44.667 39.333 -67 88 -67 146c0 88 44 156 132 204c43.333 23.333 96.666 41.333 159.999 54s135.333 19 216 19h10v207c0 52 -12.333 89.5 -37 112.5s-64.667 34.5 -120 34.5c-46.667 0 -87.667 -11.167 -123 -33.5s-53 -44.5 -53 -66.5
c2 -3.33301 4.5 -6.66602 7.5 -9.99902s9.83301 -10 20.5 -20c19.333 -18 29 -38 29 -60c0 -29.333 -8 -52.833 -24 -70.5s-37.333 -26.5 -64 -26.5c-28.667 0 -51.667 8.66699 -69 26c-16.667 18.667 -25 42.334 -25 71.001c0 59.333 29.167 110.666 87.5 153.999
s130.833 65 217.5 65c42 0 82 -5.83301 120 -17.5s73.667 -29.5 107 -53.5s56 -48.667 68 -74s18 -66.666 18 -123.999v-411c0 -43.333 5 -76 15 -98c10.667 -20.667 26.334 -31 47.001 -31c16 0 32 5.66699 48 17s34.667 31.666 56 60.999zM573 150.001l0.000976562 276
l-24 1l-37 1c-94 0 -164 -18.167 -210 -54.5s-69 -93.166 -69 -170.499c0 -58.667 12.667 -103.834 38 -135.501s60.666 -47.5 105.999 -47.5c40 0 77.667 11.5 113 34.5s63 54.833 83 95.5z" />
    <glyph glyph-name="ae" unicode="&#xe6;" horiz-adv-x="1331" 
d="M580 150l-1.00098 276l-25 1l-38 1c-96 0 -166.667 -18.333 -212 -55s-68 -94.667 -68 -174c0 -56.667 12.167 -100.667 36.5 -132s59.833 -47 106.5 -47c40.667 0 78.834 11.5 114.501 34.5s64.5 54.833 86.5 95.5zM751.999 520l327 0.000976562v94
c0 66 -13.333 115.333 -40 148s-68 49 -124 49c-51.333 0 -91.333 -19.833 -120 -59.5s-43 -94.834 -43 -165.501v-66zM581.999 104.001c-31.333 -44.667 -71.167 -77.6689 -119.5 -99.002s-106.166 -32 -173.499 -32s-123.166 19.167 -167.499 57.5
s-66.5 86.833 -66.5 145.5c0 90 43.833 159.333 131.5 208s212.5 73 374.5 73h19v207c0 52.667 -13.333 90.334 -40 113.001s-70.667 34 -132 34c-43.333 0 -82.166 -11.167 -116.499 -33.5s-51.5 -43.833 -51.5 -64.5c2 -3.33301 4.33301 -6.5 7 -9.5
s9.66699 -10.167 21 -21.5c19.333 -18 29 -38.333 29 -61c0 -29.333 -8 -52.833 -24 -70.5s-37.333 -26.5 -64 -26.5c-28.667 0 -51.5 8.83301 -68.5 26.5s-25.5 41.167 -25.5 70.5c0 60.667 28.833 112.334 86.5 155.001s130.5 64 218.5 64
c62 0 117.167 -8.16699 165.5 -24.5s88.833 -41.166 121.5 -74.499c31.333 31.333 66.166 55.666 104.499 72.999s77.166 26 116.499 26c96 0 176.5 -32 241.5 -96s101.833 -148 110.5 -252h-528v-213c0 -92.667 17.833 -160.667 53.5 -204s91.5 -65 167.5 -65
c69.333 0 129.666 23 180.999 69s88 111 110 195h32c-26.667 -100.667 -70.5 -175.667 -131.5 -225s-140.5 -74 -238.5 -74c-76 0 -141.667 10.5 -197 31.5s-104.333 53.5 -147 97.5z" />
    <glyph glyph-name="ccedilla" unicode="&#xe7;" horiz-adv-x="801" 
d="M764 272c-8.66699 -92 -40.168 -164.502 -94.501 -217.502s-123.166 -79.5 -206.499 -79.5c-118 0 -214.5 38 -289.5 114s-112.5 174 -112.5 294c0 127.333 41.167 235.666 123.5 324.999s182.5 134 300.5 134c75.333 0 138.666 -18.167 189.999 -54.5
s77 -80.5 77 -132.5c0 -22.667 -10.333 -44 -31 -64c-20.667 -18.667 -43.334 -28 -68.001 -28c-23.333 0 -44.666 9 -63.999 27c-17.333 18.667 -26 41 -26 67c0 28.667 15.333 59.334 46 92.001l9 13c0 10.667 -13.333 22.834 -40 36.501s-57 20.5 -91 20.5
c-20 0 -37.667 -1.33301 -53 -4s-32 -8 -50 -16c-30 -11.333 -55.667 -29.5 -77 -54.5s-37.666 -56.167 -48.999 -93.5c-9.33301 -37.333 -14 -95.333 -14 -174v-63v-68c0 -73.333 4 -128.666 12 -165.999s22 -68.333 42 -93s43.667 -43.667 71 -57
c27.333 -12 60.666 -18 99.999 -18c76.667 0 137.334 22 182.001 66s72 108.667 82 194h31zM185.999 -342.002l21 41.001c44.667 -16.667 86 -30 124 -40s67.667 -15 89 -15c30.667 0 54.667 8.66699 72 26s26 41.333 26 72c0 28.667 -7.66699 51.5 -23 68.5
s-35.666 25.5 -60.999 25.5h-11l-18 -3v167h35v-124l16 1h27c58.667 0 104.667 -12.167 138 -36.5s50 -57.833 50 -100.5c0 -40.667 -20.333 -74.334 -61 -101.001c-20.667 -13.333 -43.834 -23.333 -69.501 -30s-55.834 -10 -90.501 -10c-34 0 -73.667 5 -119 15
s-93.666 24.667 -144.999 44z" />
    <glyph glyph-name="egrave" unicode="&#xe8;" horiz-adv-x="801" 
d="M233 518l316.001 -0.000976562v96c0 66 -13 115.333 -39 148s-66.333 49 -121 49c-52.667 0 -91.834 -18.667 -117.501 -56s-38.5 -93.666 -38.5 -168.999v-68zM233.001 488.999l-0.000976562 -237c0 -85.333 16.333 -147.333 49 -186s84.667 -58 156 -58
c70.667 0 132 23 184 69s89 111 111 195h31c-24 -94 -65.5 -167.333 -124.5 -220s-128.833 -79 -209.5 -79c-104.667 0 -194.667 41.667 -270 125s-113 184.333 -113 303c0 124.667 33.833 229 101.5 313s150.5 126 248.5 126c93.333 0 174 -33 242 -99
c34.667 -34.667 61.834 -73.167 81.501 -115.5s29.5 -87.833 29.5 -136.5h-517zM631 949.999h-67l-330 205c-19.333 12.667 -35 26 -47 40c-10 14 -15 28 -15 42c0 21.333 7 38.666 21 51.999s31.667 20 53 20c13.333 0 26.833 -4.16699 40.5 -12.5
s32.167 -24.166 55.5 -47.499z" />
    <glyph glyph-name="eacute" unicode="&#xe9;" horiz-adv-x="801" 
d="M233 518l316.001 -0.000976562v96c0 66 -13 115.333 -39 148s-66.333 49 -121 49c-52.667 0 -91.834 -18.667 -117.501 -56s-38.5 -93.666 -38.5 -168.999v-68zM233.001 488.999l-0.000976562 -237c0 -85.333 16.333 -147.333 49 -186s84.667 -58 156 -58
c70.667 0 132 23 184 69s89 111 111 195h31c-24 -94 -65.5 -167.333 -124.5 -220s-128.833 -79 -209.5 -79c-104.667 0 -194.667 41.667 -270 125s-113 184.333 -113 303c0 124.667 33.833 229 101.5 313s150.5 126 248.5 126c93.333 0 174 -33 242 -99
c34.667 -34.667 61.834 -73.167 81.501 -115.5s29.5 -87.833 29.5 -136.5h-517zM279 949.999l289.002 298.999c22 22 40.333 37.667 55 47c3.33301 2 9.16602 4.66699 17.499 8s16.166 5 23.499 5c22 0 39.833 -6.66699 53.5 -20s20.5 -30.666 20.5 -51.999
c0 -14.667 -5.16699 -28.5 -15.5 -41.5s-25.833 -26.5 -46.5 -40.5l-330 -205h-67z" />
    <glyph glyph-name="ecircumflex" unicode="&#xea;" horiz-adv-x="801" 
d="M233 518l316.001 -0.000976562v96c0 66 -13 115.333 -39 148s-66.333 49 -121 49c-52.667 0 -91.834 -18.667 -117.501 -56s-38.5 -93.666 -38.5 -168.999v-68zM233.001 488.999l-0.000976562 -237c0 -85.333 16.333 -147.333 49 -186s84.667 -58 156 -58
c70.667 0 132 23 184 69s89 111 111 195h31c-24 -94 -65.5 -167.333 -124.5 -220s-128.833 -79 -209.5 -79c-104.667 0 -194.667 41.667 -270 125s-113 184.333 -113 303c0 124.667 33.833 229 101.5 313s150.5 126 248.5 126c93.333 0 174 -33 242 -99
c34.667 -34.667 61.834 -73.167 81.501 -115.5s29.5 -87.833 29.5 -136.5h-517zM164 949.999l232 348h118l232 -348h-58l-233 209l-233 -209h-58z" />
    <glyph glyph-name="edieresis" unicode="&#xeb;" horiz-adv-x="801" 
d="M233 518l316.001 -0.000976562v96c0 66 -13 115.333 -39 148s-66.333 49 -121 49c-52.667 0 -91.834 -18.667 -117.501 -56s-38.5 -93.666 -38.5 -168.999v-68zM233.001 488.999l-0.000976562 -237c0 -85.333 16.333 -147.333 49 -186s84.667 -58 156 -58
c70.667 0 132 23 184 69s89 111 111 195h31c-24 -94 -65.5 -167.333 -124.5 -220s-128.833 -79 -209.5 -79c-104.667 0 -194.667 41.667 -270 125s-113 184.333 -113 303c0 124.667 33.833 229 101.5 313s150.5 126 248.5 126c93.333 0 174 -33 242 -99
c34.667 -34.667 61.834 -73.167 81.501 -115.5s29.5 -87.833 29.5 -136.5h-517zM547 1151c0 26.667 9.83398 50 29.501 70s42.5 30 68.5 30c25.333 0 48.666 -10 69.999 -30c10 -10 17.667 -20.667 23 -32s8 -24 8 -38c0 -28 -9.83301 -51.333 -29.5 -70
s-43.5 -28 -71.5 -28s-51.333 9.33301 -70 28s-28 42 -28 70zM166.001 1151c0 26.667 9.83203 50 29.499 70s42.834 30 69.501 30c26 0 49 -10 69 -30c10 -10 17.667 -20.667 23 -32s8 -24 8 -38c0 -28 -9.66699 -51.333 -29 -70c-10 -9.33301 -20.5 -16.333 -31.5 -21
s-24.167 -7 -39.5 -7c-28 0 -51.5 9.33301 -70.5 28s-28.5 42 -28.5 70z" />
    <glyph glyph-name="igrave" unicode="&#xec;" horiz-adv-x="455" 
d="M141 786h-116v29h98c45.333 0 84.5 2.16699 117.5 6.5s57.167 10.5 72.5 18.5v-811h113v-29h-401v29h116v757zM403 950h-67l-330 205c-19.333 12.667 -35 26 -47 40c-10 14 -15 28 -15 42c0 21.333 7 38.666 21 51.999s31.667 20 53 20
c13.333 0 26.833 -4.16699 40.5 -12.5s32.167 -24.166 55.5 -47.499z" />
    <glyph glyph-name="iacute" unicode="&#xed;" horiz-adv-x="455" 
d="M141 786h-116v29h98c45.333 0 84.5 2.16699 117.5 6.5s57.167 10.5 72.5 18.5v-811h113v-29h-401v29h116v757zM51 950l289.002 298.999c22 22 40.333 37.667 55 47c3.33301 2 9.16602 4.66699 17.499 8s16.166 5 23.499 5c22 0 39.833 -6.66699 53.5 -20
s20.5 -30.666 20.5 -51.999c0 -14.667 -5.16699 -28.5 -15.5 -41.5s-25.833 -26.5 -46.5 -40.5l-330 -205h-67z" />
    <glyph glyph-name="icircumflex" unicode="&#xee;" horiz-adv-x="455" 
d="M141 786h-116v29h98c45.333 0 84.5 2.16699 117.5 6.5s57.167 10.5 72.5 18.5v-811h113v-29h-401v29h116v757zM-64 950l232 348h118l232 -348h-58l-233 209l-233 -209h-58z" />
    <glyph glyph-name="idieresis" unicode="&#xef;" horiz-adv-x="455" 
d="M141 786h-116v29h98c45.333 0 84.5 2.16699 117.5 6.5s57.167 10.5 72.5 18.5v-811h113v-29h-401v29h116v757zM319 1151c0 26.667 9.83398 50 29.501 70s42.5 30 68.5 30c25.333 0 48.666 -10 69.999 -30c10 -10 17.667 -20.667 23 -32s8 -24 8 -38
c0 -28 -9.83301 -51.333 -29.5 -70s-43.5 -28 -71.5 -28s-51.333 9.33301 -70 28s-28 42 -28 70zM-61.999 1151c0 26.667 9.83203 50 29.499 70s42.834 30 69.501 30c26 0 49 -10 69 -30c10 -10 17.667 -20.667 23 -32s8 -24 8 -38c0 -28 -9.66699 -51.333 -29 -70
c-10 -9.33301 -20.5 -16.333 -31.5 -21s-24.167 -7 -39.5 -7c-28 0 -51.5 9.33301 -70.5 28s-28.5 42 -28.5 70z" />
    <glyph glyph-name="eth" unicode="&#xf0;" horiz-adv-x="905" 
d="M549 -37l-180.001 0.00195312c-77.333 0 -137 -18.833 -179 -56.5s-63 -91.167 -63 -160.5c0 -68.667 25.333 -123.334 76 -164.001s119.667 -61 207 -61c110.667 0 203.834 30.167 279.501 90.5s113.5 132.5 113.5 216.5c0 49.333 -18.167 84.166 -54.5 104.499
s-102.833 30.5 -199.5 30.5zM261.999 528.002c0 -78.667 13.666 -135.832 40.999 -171.499s71 -53.5 131 -53.5c58.667 0 100.334 19.167 125.001 57.5s37 107.166 37 206.499c0 87.333 -12.833 150.5 -38.5 189.5s-67.5 58.5 -125.5 58.5
c-62 0 -105.833 -20.833 -131.5 -62.5s-38.5 -116.5 -38.5 -224.5zM218.998 -42.9961c-44.667 4 -82.1699 24.499 -112.503 61.499s-45.5 81.5 -45.5 133.5c0 55.333 16.667 98.333 50 129c18 16.667 38.667 29.334 62 38.001s51 13 83 13
c-49.333 33.333 -86.666 68.333 -111.999 105c-23.333 36.667 -35 76.667 -35 120c0 80.667 31 148 93 202s140 81 234 81c44 0 83.833 -6.66699 119.5 -20s67.5 -34 95.5 -62c22 24.667 45.5 43.834 70.5 57.501s51.5 20.5 79.5 20.5c27.333 0 50.5 -7.83301 69.5 -23.5
s28.5 -35.167 28.5 -58.5c0 -20 -6.16699 -36.333 -18.5 -49s-29.5 -19 -51.5 -19s-40 5.83301 -54 17.5s-21 25.5 -21 41.5c0 10 2 20.5 6 31.5s10.667 20.5 20 28.5c-17.333 -2.66699 -35.666 -9.66699 -54.999 -21c-15.333 -9.33301 -33 -24.333 -53 -45
c25.333 -30.667 44.333 -61.334 57 -92.001c6 -15.333 10.667 -30.5 14 -45.5s5 -30.5 5 -46.5c0 -76 -31.333 -141.833 -94 -197.5s-136.667 -83.5 -222 -83.5c-21.333 0 -53 5.16699 -95 15.5s-71.667 15.5 -89 15.5c-40 0 -74.333 -10 -103 -30s-43 -44 -43 -72
c0 -30.667 13.333 -52.334 40 -65.001c28 -11.333 88.667 -17 182 -17h172c142.667 0 237 -17.667 283 -53s69 -99.666 69 -192.999c0 -112.667 -40.5 -205.334 -121.5 -278.001s-185.833 -109 -314.5 -109c-115.333 0 -208.666 22.833 -279.999 68.5
s-107 104.834 -107 177.501c0 43.333 16.833 84.333 50.5 123s81.5 72 143.5 100zM159.995 1260h51.002c11.333 -48.667 36.333 -84.667 75 -108c18.667 -10.667 42.167 -19 70.5 -25s60.5 -9 96.5 -9c71.333 0 126.166 10.833 164.499 32.5s63.5 58.167 75.5 109.5h51
c-12.667 -88.667 -43.834 -156 -93.501 -202s-115.5 -69 -197.5 -69c-80 0 -145.333 23 -196 69s-83 113.333 -97 202z" />
    <glyph glyph-name="ntilde" unicode="&#xf1;" horiz-adv-x="995" 
d="M25 0v29h116v757h-116v29h98c41.333 0 78.666 2 111.999 6s59.333 10.333 78 19v-183c38.667 62.667 81.5 108.834 128.5 138.501s100.5 44.5 160.5 44.5c79.333 0 142.5 -22.833 189.5 -68.5s70.5 -108.167 70.5 -187.5v-555h119v-29h-403v29h114v614
c0 60 -8.33301 101.333 -25 124s-45.667 34 -87 34c-53.333 0 -101.666 -16.333 -144.999 -49s-84 -83.334 -122 -152.001v-571h113v-29h-401zM785 1247c-12.667 -67.333 -35.333 -118.333 -68 -153s-75 -52 -127 -52l-32 2l-42 9l-108 28l-30 6l-19 3
c-25.333 0 -45.333 -7 -60 -21s-27 -38 -37 -72h-51c12 70 34.333 122.667 67 158s76 53 130 53c14 0 24.667 -0.666992 32 -2l31 -6l110 -28l36 -9l20 -2c24.667 0 44 6.66699 58 20s26 35.333 36 66h54z" />
    <glyph glyph-name="ograve" unicode="&#xf2;" horiz-adv-x="891" 
d="M47 408c0 56.667 10.498 110.831 31.498 162.498s52.167 99.834 93.5 144.501c38.667 40.667 81.334 71.667 128.001 93s95.334 32 146.001 32c106 0 198.833 -43.167 278.5 -129.5s119.5 -187.166 119.5 -302.499c0 -56.667 -10.5 -111.167 -31.5 -163.5
s-52.167 -100.5 -93.5 -144.5c-36.667 -38.667 -78.5 -68.834 -125.5 -90.501s-96.167 -32.5 -147.5 -32.5c-52 0 -101.167 10.5 -147.5 31.5s-88.5 51.5 -126.5 91.5c-40.667 42.667 -71.667 90.334 -93 143.001s-32 107.667 -32 165zM230.998 284.997
c0 -95.333 17.665 -165.668 52.998 -211.001s89.333 -68 162 -68s126.334 22.833 161.001 68.5s52 115.834 52 210.501v247c0 95.333 -17.167 165.666 -51.5 210.999s-88.166 68 -161.499 68c-72.667 0 -126.667 -22.667 -162 -68s-53 -115.666 -53 -210.999v-247z
M642.996 949.995h-67l-330 205c-19.333 12.667 -35 26 -47 40c-10 14 -15 28 -15 42c0 21.333 7 38.666 21 51.999s31.667 20 53 20c13.333 0 26.833 -4.16699 40.5 -12.5s32.167 -24.166 55.5 -47.499z" />
    <glyph glyph-name="oacute" unicode="&#xf3;" horiz-adv-x="891" 
d="M47 408c0 56.667 10.498 110.831 31.498 162.498s52.167 99.834 93.5 144.501c38.667 40.667 81.334 71.667 128.001 93s95.334 32 146.001 32c106 0 198.833 -43.167 278.5 -129.5s119.5 -187.166 119.5 -302.499c0 -56.667 -10.5 -111.167 -31.5 -163.5
s-52.167 -100.5 -93.5 -144.5c-36.667 -38.667 -78.5 -68.834 -125.5 -90.501s-96.167 -32.5 -147.5 -32.5c-52 0 -101.167 10.5 -147.5 31.5s-88.5 51.5 -126.5 91.5c-40.667 42.667 -71.667 90.334 -93 143.001s-32 107.667 -32 165zM230.998 284.997
c0 -95.333 17.665 -165.668 52.998 -211.001s89.333 -68 162 -68s126.334 22.833 161.001 68.5s52 115.834 52 210.501v247c0 95.333 -17.167 165.666 -51.5 210.999s-88.166 68 -161.499 68c-72.667 0 -126.667 -22.667 -162 -68s-53 -115.666 -53 -210.999v-247z
M290.996 949.995l289.002 298.999c22 22 40.333 37.667 55 47c3.33301 2 9.16602 4.66699 17.499 8s16.166 5 23.499 5c22 0 39.833 -6.66699 53.5 -20s20.5 -30.666 20.5 -51.999c0 -14.667 -5.16699 -28.5 -15.5 -41.5s-25.833 -26.5 -46.5 -40.5l-330 -205h-67z" />
    <glyph glyph-name="ocircumflex" unicode="&#xf4;" horiz-adv-x="891" 
d="M47 408c0 56.667 10.498 110.831 31.498 162.498s52.167 99.834 93.5 144.501c38.667 40.667 81.334 71.667 128.001 93s95.334 32 146.001 32c106 0 198.833 -43.167 278.5 -129.5s119.5 -187.166 119.5 -302.499c0 -56.667 -10.5 -111.167 -31.5 -163.5
s-52.167 -100.5 -93.5 -144.5c-36.667 -38.667 -78.5 -68.834 -125.5 -90.501s-96.167 -32.5 -147.5 -32.5c-52 0 -101.167 10.5 -147.5 31.5s-88.5 51.5 -126.5 91.5c-40.667 42.667 -71.667 90.334 -93 143.001s-32 107.667 -32 165zM230.998 284.997
c0 -95.333 17.665 -165.668 52.998 -211.001s89.333 -68 162 -68s126.334 22.833 161.001 68.5s52 115.834 52 210.501v247c0 95.333 -17.167 165.666 -51.5 210.999s-88.166 68 -161.499 68c-72.667 0 -126.667 -22.667 -162 -68s-53 -115.666 -53 -210.999v-247z
M175.996 949.995l232 348h118l232 -348h-58l-233 209l-233 -209h-58z" />
    <glyph glyph-name="otilde" unicode="&#xf5;" horiz-adv-x="891" 
d="M47 408c0 56.667 10.498 110.831 31.498 162.498s52.167 99.834 93.5 144.501c38.667 40.667 81.334 71.667 128.001 93s95.334 32 146.001 32c106 0 198.833 -43.167 278.5 -129.5s119.5 -187.166 119.5 -302.499c0 -56.667 -10.5 -111.167 -31.5 -163.5
s-52.167 -100.5 -93.5 -144.5c-36.667 -38.667 -78.5 -68.834 -125.5 -90.501s-96.167 -32.5 -147.5 -32.5c-52 0 -101.167 10.5 -147.5 31.5s-88.5 51.5 -126.5 91.5c-40.667 42.667 -71.667 90.334 -93 143.001s-32 107.667 -32 165zM230.998 284.997
c0 -95.333 17.665 -165.668 52.998 -211.001s89.333 -68 162 -68s126.334 22.833 161.001 68.5s52 115.834 52 210.501v247c0 95.333 -17.167 165.666 -51.5 210.999s-88.166 68 -161.499 68c-72.667 0 -126.667 -22.667 -162 -68s-53 -115.666 -53 -210.999v-247z
M753.996 1247c-12.667 -67.333 -35.333 -118.333 -68 -153s-75 -52 -127 -52l-32 2l-42 9l-108 28l-30 6l-19 3c-25.333 0 -45.333 -7 -60 -21s-27 -38 -37 -72h-51c12 70 34.333 122.667 67 158s76 53 130 53c14 0 24.667 -0.666992 32 -2l31 -6l110 -28l36 -9l20 -2
c24.667 0 44 6.66699 58 20s26 35.333 36 66h54z" />
    <glyph glyph-name="odieresis" unicode="&#xf6;" horiz-adv-x="891" 
d="M47 408c0 56.667 10.498 110.831 31.498 162.498s52.167 99.834 93.5 144.501c38.667 40.667 81.334 71.667 128.001 93s95.334 32 146.001 32c106 0 198.833 -43.167 278.5 -129.5s119.5 -187.166 119.5 -302.499c0 -56.667 -10.5 -111.167 -31.5 -163.5
s-52.167 -100.5 -93.5 -144.5c-36.667 -38.667 -78.5 -68.834 -125.5 -90.501s-96.167 -32.5 -147.5 -32.5c-52 0 -101.167 10.5 -147.5 31.5s-88.5 51.5 -126.5 91.5c-40.667 42.667 -71.667 90.334 -93 143.001s-32 107.667 -32 165zM230.998 284.997
c0 -95.333 17.665 -165.668 52.998 -211.001s89.333 -68 162 -68s126.334 22.833 161.001 68.5s52 115.834 52 210.501v247c0 95.333 -17.167 165.666 -51.5 210.999s-88.166 68 -161.499 68c-72.667 0 -126.667 -22.667 -162 -68s-53 -115.666 -53 -210.999v-247z
M558.996 1151c0 26.667 9.83398 50 29.501 70s42.5 30 68.5 30c25.333 0 48.666 -10 69.999 -30c10 -10 17.667 -20.667 23 -32s8 -24 8 -38c0 -28 -9.83301 -51.333 -29.5 -70s-43.5 -28 -71.5 -28s-51.333 9.33301 -70 28s-28 42 -28 70zM177.997 1151
c0 26.667 9.83203 50 29.499 70s42.834 30 69.501 30c26 0 49 -10 69 -30c10 -10 17.667 -20.667 23 -32s8 -24 8 -38c0 -28 -9.66699 -51.333 -29 -70c-10 -9.33301 -20.5 -16.333 -31.5 -21s-24.167 -7 -39.5 -7c-28 0 -51.5 9.33301 -70.5 28s-28.5 42 -28.5 70z" />
    <glyph glyph-name="divide" unicode="&#xf7;" horiz-adv-x="1706" 
d="M854 365c31.333 0 58.333 -11.333 81 -34s34 -49.667 34 -81s-11.333 -58.333 -34 -81s-49.667 -34 -81 -34s-58.333 11 -81 33s-34 49.333 -34 82c0 32 11.333 59.167 34 81.5s49.667 33.5 81 33.5zM254 670h1198v-117h-1198v117zM854 1085
c32 0 59.167 -11.333 81.5 -34s33.5 -49.334 33.5 -80.001c0 -32 -11.167 -59.167 -33.5 -81.5s-49.5 -33.5 -81.5 -33.5c-31.333 0 -58.333 11 -81 33s-34 49.333 -34 82c0 30.667 11.333 57.334 34 80.001s49.667 34 81 34z" />
    <glyph glyph-name="oslash" unicode="&#xf8;" horiz-adv-x="901" 
d="M659 285l-0.000976562 327l-411 -450c4.66699 -46 25.334 -83.5 62.001 -112.5s82 -43.5 136 -43.5c74 0 128 22.5 162 67.5s51 115.5 51 211.5zM237.999 532l0.000976562 -331l411 450c-8.66699 50 -30.834 89.167 -66.501 117.5s-81.167 42.5 -136.5 42.5
c-73.333 0 -126.333 -21.5 -159 -64.5s-49 -114.5 -49 -214.5zM715 723l107.999 118.998l23 -25l-107 -115c34.667 -44.667 60.834 -91.334 78.501 -140.001s26.5 -98.667 26.5 -150c0 -120.667 -39.167 -223.667 -117.5 -309s-171.833 -128 -280.5 -128
c-53.333 0 -103.5 10.333 -150.5 31s-84.833 49.334 -113.5 86.001l-121 -135l-22 27l121 131c-37.333 48.667 -65.166 96.667 -83.499 144s-27.5 97 -27.5 149c0 116.667 39.667 217.834 119 303.501s173.666 128.5 282.999 128.5c52 0 100 -9.66699 144 -29
s84 -48.666 120 -87.999z" />
    <glyph glyph-name="ugrave" unicode="&#xf9;" horiz-adv-x="991" 
d="M686 786h-118.998v29h99c42 0 79.167 2 111.5 6s58.5 10.333 78.5 19v-811h115v-29h-287v182c-42.667 -62.667 -87.334 -108.667 -134.001 -138s-99.667 -44 -159 -44c-79.333 0 -142.833 23 -190.5 69s-71.5 108.333 -71.5 187v530h-117v29h99c42 0 79.167 2 111.5 6
s58.5 10.333 78.5 19v-645c0 -56.667 9.16699 -96.834 27.5 -120.501s49.5 -35.5 93.5 -35.5c47.333 0 92.666 16.333 135.999 49s86 83.334 128 152.001v546zM672.002 950h-67l-330 205c-19.333 12.667 -35 26 -47 40c-10 14 -15 28 -15 42c0 21.333 7 38.666 21 51.999
s31.667 20 53 20c13.333 0 26.833 -4.16699 40.5 -12.5s32.167 -24.166 55.5 -47.499z" />
    <glyph glyph-name="uacute" unicode="&#xfa;" horiz-adv-x="991" 
d="M686 786h-118.998v29h99c42 0 79.167 2 111.5 6s58.5 10.333 78.5 19v-811h115v-29h-287v182c-42.667 -62.667 -87.334 -108.667 -134.001 -138s-99.667 -44 -159 -44c-79.333 0 -142.833 23 -190.5 69s-71.5 108.333 -71.5 187v530h-117v29h99c42 0 79.167 2 111.5 6
s58.5 10.333 78.5 19v-645c0 -56.667 9.16699 -96.834 27.5 -120.501s49.5 -35.5 93.5 -35.5c47.333 0 92.666 16.333 135.999 49s86 83.334 128 152.001v546zM320.002 950l289.002 298.999c22 22 40.333 37.667 55 47c3.33301 2 9.16602 4.66699 17.499 8
s16.166 5 23.499 5c22 0 39.833 -6.66699 53.5 -20s20.5 -30.666 20.5 -51.999c0 -14.667 -5.16699 -28.5 -15.5 -41.5s-25.833 -26.5 -46.5 -40.5l-330 -205h-67z" />
    <glyph glyph-name="ucircumflex" unicode="&#xfb;" horiz-adv-x="991" 
d="M686 786h-118.998v29h99c42 0 79.167 2 111.5 6s58.5 10.333 78.5 19v-811h115v-29h-287v182c-42.667 -62.667 -87.334 -108.667 -134.001 -138s-99.667 -44 -159 -44c-79.333 0 -142.833 23 -190.5 69s-71.5 108.333 -71.5 187v530h-117v29h99c42 0 79.167 2 111.5 6
s58.5 10.333 78.5 19v-645c0 -56.667 9.16699 -96.834 27.5 -120.501s49.5 -35.5 93.5 -35.5c47.333 0 92.666 16.333 135.999 49s86 83.334 128 152.001v546zM205.002 950l232 348h118l232 -348h-58l-233 209l-233 -209h-58z" />
    <glyph glyph-name="udieresis" unicode="&#xfc;" horiz-adv-x="991" 
d="M686 786h-118.998v29h99c42 0 79.167 2 111.5 6s58.5 10.333 78.5 19v-811h115v-29h-287v182c-42.667 -62.667 -87.334 -108.667 -134.001 -138s-99.667 -44 -159 -44c-79.333 0 -142.833 23 -190.5 69s-71.5 108.333 -71.5 187v530h-117v29h99c42 0 79.167 2 111.5 6
s58.5 10.333 78.5 19v-645c0 -56.667 9.16699 -96.834 27.5 -120.501s49.5 -35.5 93.5 -35.5c47.333 0 92.666 16.333 135.999 49s86 83.334 128 152.001v546zM588.002 1151c0 26.667 9.83398 50 29.501 70s42.5 30 68.5 30c25.333 0 48.666 -10 69.999 -30
c10 -10 17.667 -20.667 23 -32s8 -24 8 -38c0 -28 -9.83301 -51.333 -29.5 -70s-43.5 -28 -71.5 -28s-51.333 9.33301 -70 28s-28 42 -28 70zM207.003 1151c0 26.667 9.83203 50 29.499 70s42.834 30 69.501 30c26 0 49 -10 69 -30c10 -10 17.667 -20.667 23 -32
s8 -24 8 -38c0 -28 -9.66699 -51.333 -29 -70c-10 -9.33301 -20.5 -16.333 -31.5 -21s-24.167 -7 -39.5 -7c-28 0 -51.5 9.33301 -70.5 28s-28.5 42 -28.5 70z" />
    <glyph glyph-name="yacute" unicode="&#xfd;" horiz-adv-x="455" 
d="M141 786h-116v29h98c45.333 0 84.5 2.16699 117.5 6.5s57.167 10.5 72.5 18.5v-811h113v-29h-401v29h116v757z" />
    <glyph glyph-name="thorn" unicode="&#xfe;" horiz-adv-x="674" 
d="M72 -6v287h20c25.333 -94.667 58.333 -163.5 99 -206.5s93.667 -64.5 159 -64.5c57.333 0 102.5 17 135.5 51s49.5 80 49.5 138c0 49.333 -17.333 87.5 -52 114.5s-83.667 40.5 -147 40.5c-82 0 -146.5 20.667 -193.5 62s-70.5 98.666 -70.5 171.999
c0 71.333 21.667 130.833 65 178.5s97.333 71.5 162 71.5c56 0 113.667 -15 173 -45l22 -9c8 0 14 3 18 9s6 14.667 6 26l-1 12l-1 8l33 1v-240h-23c-14.667 71.333 -40.5 124.333 -77.5 159s-85.5 52 -145.5 52c-48 0 -88 -14.167 -120 -42.5s-48 -63.833 -48 -106.5
c0 -18 3 -34.833 9 -50.5s15.333 -30.5 28 -44.5c24 -23.333 76.667 -39 158 -47c17.333 0 30.5 -0.5 39.5 -1.5s21.167 -3.16699 36.5 -6.5c68 -10 121.167 -36.667 159.5 -80s57.5 -99.333 57.5 -168c0 -87.333 -23.667 -157.666 -71 -210.999s-109.666 -80 -186.999 -80
c-68 0 -134 21 -198 63c-15.333 10 -25.333 15 -30 15c-12.667 0 -22.334 -4.33301 -29.001 -13c-2.66699 -4 -4.66699 -9.33301 -6 -16s-2 -16 -2 -28h-28zM84 -342l21 41.001c44.667 -16.667 86 -30 124 -40s67.667 -15 89 -15c30.667 0 54.667 8.66699 72 26
s26 41.333 26 72c0 28.667 -7.66699 51.5 -23 68.5s-35.666 25.5 -60.999 25.5h-11l-18 -3v167h35v-124l16 1h27c58.667 0 104.667 -12.167 138 -36.5s50 -57.833 50 -100.5c0 -40.667 -20.333 -74.334 -61 -101.001c-20.667 -13.333 -43.834 -23.333 -69.501 -30
s-55.834 -10 -90.501 -10c-34 0 -73.667 5 -119 15s-93.666 24.667 -144.999 44z" />
    <glyph glyph-name="ydieresis" unicode="&#xff;" horiz-adv-x="901" 
d="M541 139c-28 -76 -57.166 -169.335 -87.499 -280.002s-47.833 -173 -52.5 -187c-20.667 -68 -44.667 -115.333 -72 -142s-64 -40 -110 -40c-28.667 0 -52.5 9.83301 -71.5 29.5s-28.5 43.834 -28.5 72.501c0 26 8.16699 48 24.5 66s37.5 27 63.5 27
c24 0 44.333 -9 61 -27s25 -40 25 -66l-1 -10l-1 -14l1 -3l5 -1c21.333 0 42.333 26.833 63 80.5s48.667 161.834 84 324.501l-352 817h-86v29h381v-29h-117l252 -602l180 487l13 40l4 28c0 31.333 -53.667 47 -161 47h-7v29h321v-29h-10c-28 0 -52.333 -11.5 -73 -34.5
s-43.334 -65.833 -68.001 -128.5zM543.001 1151c0 26.667 9.83398 50 29.501 70s42.5 30 68.5 30c25.333 0 48.666 -10 69.999 -30c10 -10 17.667 -20.667 23 -32s8 -24 8 -38c0 -28 -9.83301 -51.333 -29.5 -70s-43.5 -28 -71.5 -28s-51.333 9.33301 -70 28s-28 42 -28 70z
M162.002 1151c0 26.667 9.83203 50 29.499 70s42.834 30 69.501 30c26 0 49 -10 69 -30c10 -10 17.667 -20.667 23 -32s8 -24 8 -38c0 -28 -9.66699 -51.333 -29 -70c-10 -9.33301 -20.5 -16.333 -31.5 -21s-24.167 -7 -39.5 -7c-28 0 -51.5 9.33301 -70.5 28
s-28.5 42 -28.5 70z" />
    <glyph glyph-name="Cacute" unicode="&#x106;" horiz-adv-x="1241" 
d="M1094 485h26.001v-458h-26c-4.66699 30.667 -13 54.334 -25 71.001c-10.667 16.667 -24.334 25 -41.001 25c-16 0 -45.667 -14.667 -89 -44l-29 -19l-2 -2c-86 -58 -169.667 -87 -251 -87c-77.333 0 -152.666 19 -225.999 57s-139.5 91 -198.5 159
s-102.333 139.667 -130 215s-41.5 157.666 -41.5 246.999c0 104 15.667 201 47 291c15.333 46 34 88.5 56 127.5s48 75.833 78 110.5c56 64.667 120.833 115.167 194.5 151.5s150.167 54.5 229.5 54.5c81.333 0 168.333 -27.667 261 -83l15 -9l28 -17
c31.333 -20 54 -30 68 -30c16.667 0 30 7 40 21c4.66699 6.66699 8.5 15.334 11.5 26.001s4.5 22.334 4.5 35.001h26v-405h-26c-12.667 125.333 -58.334 229 -137.001 311s-171 123 -277 123c-130.667 0 -228.5 -58 -293.5 -174s-97.5 -291 -97.5 -525
c0 -104 6.33301 -195.167 19 -273.5s31.667 -140.5 57 -186.5c32 -59.333 74.667 -107 128 -143c28 -18 55.167 -31.167 81.5 -39.5s54.5 -12.5 84.5 -12.5c68 0 134.333 19.333 199 58s120 93 166 163c19.333 29.333 34.666 64.666 45.999 105.999
c6.66699 25.333 12.334 50.666 17.001 75.999s7 52 7 80zM445.001 1495l289.002 298.999c22 22 40.333 37.667 55 47c3.33301 2 9.16602 4.66699 17.499 8s16.166 5 23.499 5c22 0 39.833 -6.66699 53.5 -20s20.5 -30.666 20.5 -51.999
c0 -14.667 -5.16699 -28.5 -15.5 -41.5s-25.833 -26.5 -46.5 -40.5l-330 -205h-67z" />
    <glyph glyph-name="cacute" unicode="&#x107;" horiz-adv-x="801" 
d="M764 272c-8.66699 -92 -40.168 -164.502 -94.501 -217.502s-123.166 -79.5 -206.499 -79.5c-118 0 -214.5 38 -289.5 114s-112.5 174 -112.5 294c0 127.333 41.167 235.666 123.5 324.999s182.5 134 300.5 134c75.333 0 138.666 -18.167 189.999 -54.5
s77 -80.5 77 -132.5c0 -22.667 -10.333 -44 -31 -64c-20.667 -18.667 -43.334 -28 -68.001 -28c-23.333 0 -44.666 9 -63.999 27c-17.333 18.667 -26 41 -26 67c0 28.667 15.333 59.334 46 92.001l9 13c0 10.667 -13.333 22.834 -40 36.501s-57 20.5 -91 20.5
c-20 0 -37.667 -1.33301 -53 -4s-32 -8 -50 -16c-30 -11.333 -55.667 -29.5 -77 -54.5s-37.666 -56.167 -48.999 -93.5c-9.33301 -37.333 -14 -95.333 -14 -174v-63v-68c0 -73.333 4 -128.666 12 -165.999s22 -68.333 42 -93s43.667 -43.667 71 -57
c27.333 -12 60.666 -18 99.999 -18c76.667 0 137.334 22 182.001 66s72 108.667 82 194h31zM263.999 949.998l289.002 298.999c22 22 40.333 37.667 55 47c3.33301 2 9.16602 4.66699 17.499 8s16.166 5 23.499 5c22 0 39.833 -6.66699 53.5 -20s20.5 -30.666 20.5 -51.999
c0 -14.667 -5.16699 -28.5 -15.5 -41.5s-25.833 -26.5 -46.5 -40.5l-330 -205h-67z" />
    <glyph glyph-name="Ccaron" unicode="&#x10c;" horiz-adv-x="1241" 
d="M1094 485h26.001v-458h-26c-4.66699 30.667 -13 54.334 -25 71.001c-10.667 16.667 -24.334 25 -41.001 25c-16 0 -45.667 -14.667 -89 -44l-29 -19l-2 -2c-86 -58 -169.667 -87 -251 -87c-77.333 0 -152.666 19 -225.999 57s-139.5 91 -198.5 159
s-102.333 139.667 -130 215s-41.5 157.666 -41.5 246.999c0 104 15.667 201 47 291c15.333 46 34 88.5 56 127.5s48 75.833 78 110.5c56 64.667 120.833 115.167 194.5 151.5s150.167 54.5 229.5 54.5c81.333 0 168.333 -27.667 261 -83l15 -9l28 -17
c31.333 -20 54 -30 68 -30c16.667 0 30 7 40 21c4.66699 6.66699 8.5 15.334 11.5 26.001s4.5 22.334 4.5 35.001h26v-405h-26c-12.667 125.333 -58.334 229 -137.001 311s-171 123 -277 123c-130.667 0 -228.5 -58 -293.5 -174s-97.5 -291 -97.5 -525
c0 -104 6.33301 -195.167 19 -273.5s31.667 -140.5 57 -186.5c32 -59.333 74.667 -107 128 -143c28 -18 55.167 -31.167 81.5 -39.5s54.5 -12.5 84.5 -12.5c68 0 134.333 19.333 199 58s120 93 166 163c19.333 29.333 34.666 64.666 45.999 105.999
c6.66699 25.333 12.334 50.666 17.001 75.999s7 52 7 80zM330.001 1843h58l233 -211l233 211h58l-232 -348h-118z" />
    <glyph glyph-name="ccaron" unicode="&#x10d;" horiz-adv-x="801" 
d="M764 272c-8.66699 -92 -40.168 -164.502 -94.501 -217.502s-123.166 -79.5 -206.499 -79.5c-118 0 -214.5 38 -289.5 114s-112.5 174 -112.5 294c0 127.333 41.167 235.666 123.5 324.999s182.5 134 300.5 134c75.333 0 138.666 -18.167 189.999 -54.5
s77 -80.5 77 -132.5c0 -22.667 -10.333 -44 -31 -64c-20.667 -18.667 -43.334 -28 -68.001 -28c-23.333 0 -44.666 9 -63.999 27c-17.333 18.667 -26 41 -26 67c0 28.667 15.333 59.334 46 92.001l9 13c0 10.667 -13.333 22.834 -40 36.501s-57 20.5 -91 20.5
c-20 0 -37.667 -1.33301 -53 -4s-32 -8 -50 -16c-30 -11.333 -55.667 -29.5 -77 -54.5s-37.666 -56.167 -48.999 -93.5c-9.33301 -37.333 -14 -95.333 -14 -174v-63v-68c0 -73.333 4 -128.666 12 -165.999s22 -68.333 42 -93s43.667 -43.667 71 -57
c27.333 -12 60.666 -18 99.999 -18c76.667 0 137.334 22 182.001 66s72 108.667 82 194h31zM148.999 1298h58l233 -211l233 211h58l-232 -348h-118z" />
    <glyph glyph-name="c274" unicode="&#x10e;" 
 />
    <glyph glyph-name="c275" unicode="&#x10f;" 
 />
    <glyph glyph-name="c276" unicode="&#x110;" 
 />
    <glyph glyph-name="dcroat" unicode="&#x111;" horiz-adv-x="1010" 
d="M246 291c0 -100.667 15.001 -173.333 45.001 -218s79 -67 147 -67c60 0 112.167 17 156.5 51s80.166 84.667 107.499 152v366c-24 70 -59.167 125.167 -105.5 165.5s-97.833 60.5 -154.5 60.5c-64.667 0 -113.5 -23.167 -146.5 -69.5s-49.5 -114.833 -49.5 -205.5v-235z
M702.001 135.001c-32 -53.333 -69.499 -93.335 -112.499 -120.002s-89.833 -40 -140.5 -40c-113.333 0 -206.666 40.333 -279.999 121s-110 185.334 -110 314.001c0 116 37.333 216.333 112 301s161.667 127 261 127c57.333 0 110.166 -16.667 158.499 -50
s85.5 -79.666 111.5 -138.999v389h-294v52h294v237h-116v29h98c40.667 0 74.667 3.66699 102 11c15.333 4 30.166 9 44.499 15s28.833 13.667 43.5 23v-315h138v-52h-138v-1009h119v-29h-291v135z" />
    <glyph glyph-name="Gbreve" unicode="&#x11e;" horiz-adv-x="1346" 
d="M1198 178c-74.667 -66.667 -154.665 -118.332 -239.998 -154.999c-42 -17.333 -84 -30.333 -126 -39s-85.333 -13 -130 -13c-191.333 0 -345.666 63.333 -462.999 190s-176 295.667 -176 507c0 115.333 17.5 218.166 52.5 308.499s87.833 168.833 158.5 235.5
c57.333 55.333 121.666 97.833 192.999 127.5s143.666 44.5 216.999 44.5c34.667 0 67.667 -3.33301 99 -10c33.333 -6 65.333 -16.333 96 -31c28.667 -12 62.167 -31.667 100.5 -59s64.166 -41 77.499 -41c18.667 0 33.5 7.16699 44.5 21.5s16.5 35.166 16.5 62.499v14h27
v-413h-29c-16 129.333 -62.333 233 -139 311s-170.334 117 -281.001 117c-125.333 0 -225.166 -57.167 -299.499 -171.5s-111.5 -270.166 -111.5 -467.499c0 -240 35 -419.167 105 -537.5s175 -177.5 315 -177.5c94 0 165.5 25.833 214.5 77.5s73.5 127.5 73.5 227.5v99
h-162v28h506v-28h-139v-228zM390.002 1805h51.002c11.333 -48.667 36.333 -84.667 75 -108c18.667 -10.667 42.167 -19 70.5 -25s60.5 -9 96.5 -9c71.333 0 126.166 10.833 164.499 32.5s63.5 58.167 75.5 109.5h51c-12.667 -88.667 -43.834 -156 -93.501 -202
s-115.5 -69 -197.5 -69c-80 0 -145.333 23 -196 69s-83 113.333 -97 202z" />
    <glyph glyph-name="gbreve" unicode="&#x11f;" horiz-adv-x="905" 
d="M549 -37l-180.001 0.00195312c-77.333 0 -137 -18.833 -179 -56.5s-63 -91.167 -63 -160.5c0 -68.667 25.333 -123.334 76 -164.001s119.667 -61 207 -61c110.667 0 203.834 30.167 279.501 90.5s113.5 132.5 113.5 216.5c0 49.333 -18.167 84.166 -54.5 104.499
s-102.833 30.5 -199.5 30.5zM261.999 528.002c0 -78.667 13.666 -135.832 40.999 -171.499s71 -53.5 131 -53.5c58.667 0 100.334 19.167 125.001 57.5s37 107.166 37 206.499c0 87.333 -12.833 150.5 -38.5 189.5s-67.5 58.5 -125.5 58.5
c-62 0 -105.833 -20.833 -131.5 -62.5s-38.5 -116.5 -38.5 -224.5zM218.998 -42.9961c-44.667 4 -82.1699 24.499 -112.503 61.499s-45.5 81.5 -45.5 133.5c0 55.333 16.667 98.333 50 129c18 16.667 38.667 29.334 62 38.001s51 13 83 13
c-49.333 33.333 -86.666 68.333 -111.999 105c-23.333 36.667 -35 76.667 -35 120c0 80.667 31 148 93 202s140 81 234 81c44 0 83.833 -6.66699 119.5 -20s67.5 -34 95.5 -62c22 24.667 45.5 43.834 70.5 57.501s51.5 20.5 79.5 20.5c27.333 0 50.5 -7.83301 69.5 -23.5
s28.5 -35.167 28.5 -58.5c0 -20 -6.16699 -36.333 -18.5 -49s-29.5 -19 -51.5 -19s-40 5.83301 -54 17.5s-21 25.5 -21 41.5c0 10 2 20.5 6 31.5s10.667 20.5 20 28.5c-17.333 -2.66699 -35.666 -9.66699 -54.999 -21c-15.333 -9.33301 -33 -24.333 -53 -45
c25.333 -30.667 44.333 -61.334 57 -92.001c6 -15.333 10.667 -30.5 14 -45.5s5 -30.5 5 -46.5c0 -76 -31.333 -141.833 -94 -197.5s-136.667 -83.5 -222 -83.5c-21.333 0 -53 5.16699 -95 15.5s-71.667 15.5 -89 15.5c-40 0 -74.333 -10 -103 -30s-43 -44 -43 -72
c0 -30.667 13.333 -52.334 40 -65.001c28 -11.333 88.667 -17 182 -17h172c142.667 0 237 -17.667 283 -53s69 -99.666 69 -192.999c0 -112.667 -40.5 -205.334 -121.5 -278.001s-185.833 -109 -314.5 -109c-115.333 0 -208.666 22.833 -279.999 68.5
s-107 104.834 -107 177.501c0 43.333 16.833 84.333 50.5 123s81.5 72 143.5 100zM159.995 1260h51.002c11.333 -48.667 36.333 -84.667 75 -108c18.667 -10.667 42.167 -19 70.5 -25s60.5 -9 96.5 -9c71.333 0 126.166 10.833 164.499 32.5s63.5 58.167 75.5 109.5h51
c-12.667 -88.667 -43.834 -156 -93.501 -202s-115.5 -69 -197.5 -69c-80 0 -145.333 23 -196 69s-83 113.333 -97 202z" />
    <glyph glyph-name="Idotaccent" unicode="&#x130;" horiz-adv-x="555" 
d="M25 0v29h153v1298h-153v29h505v-29h-145v-1298h145v-29h-505zM186 1633c0 29.333 10.165 54.165 30.498 74.498s45.166 30.5 74.499 30.5c28.667 0 53.334 -10.167 74.001 -30.5s31 -45.166 31 -74.499s-10.167 -54.166 -30.5 -74.499s-45.166 -30.5 -74.499 -30.5
s-54.166 10 -74.499 30s-30.5 45 -30.5 75z" />
    <glyph glyph-name="dotlessi" unicode="&#x131;" horiz-adv-x="455" 
d="M141 786h-116v29h98c45.333 0 84.5 2.16699 117.5 6.5s57.167 10.5 72.5 18.5v-811h113v-29h-401v29h116v757z" />
    <glyph glyph-name="c316" unicode="&#x13c;" horiz-adv-x="494" 
d="M156 668c0 24.667 8.66699 46.1689 26 64.502s38.666 27.5 63.999 27.5c24 0 45.333 -9 64 -27s28 -39.667 28 -65c0 -24.667 -8.83301 -45.834 -26.5 -63.501s-39.5 -26.5 -65.5 -26.5c-25.333 0 -46.666 8.66699 -63.999 26s-26 38.666 -26 63.999z" />
    <glyph glyph-name="Lslash" unicode="&#x141;" horiz-adv-x="1180" 
d="M25 0v29h151v549l-176 -127v67l176 123v686h-151v29h505v-29h-145v-557l406 285v-68l-406 -287v-671h229c206 0 342.833 26 410.5 78s101.5 151.667 101.5 299v36h29v-442h-1130z" />
    <glyph glyph-name="lslash" unicode="&#x142;" horiz-adv-x="455" 
d="M25 0v29h118v592l-143 -99v60l143 104v641h-118v29h98c38 0 71.333 3.66699 100 11c16 4 31 9 45 15s29 13.667 45 23v-610l142 100v-68l-142 -100v-698h113v-29h-401z" />
    <glyph glyph-name="OE" unicode="&#x152;" horiz-adv-x="1907" 
d="M864 156v1056c0 48 -13 81.667 -39 101c-13.333 9.33301 -31.5 16.333 -54.5 21s-53.167 7 -90.5 7c-144 0 -251.667 -53.333 -323 -160s-107 -267.667 -107 -483c0 -239.333 34 -413.166 102 -521.499s177.333 -162.5 328 -162.5c71.333 0 119.833 9.16699 145.5 27.5
s38.5 52.166 38.5 101.499v13zM973 0c-4 0 -34.3301 -1.66504 -90.9971 -4.99805c-22.667 -1.33301 -46 -2 -70 -2l-134 -7c-85.333 0 -162.833 13.833 -232.5 41.5s-134.167 69.167 -193.5 124.5c-74.667 70 -130.834 148.333 -168.501 235s-56.5 181.667 -56.5 285
c0 202.667 61.5 369.667 184.5 501s279.167 197 468.5 197c27.333 -2 51.5 -3.66699 72.5 -5s43.833 -2 68.5 -2l158 -7h745l25 -330h-29c-10 116 -41.333 195.167 -94 237.5s-152.334 63.5 -299.001 63.5h-258v-622h64c118.667 0 197.834 16.167 237.501 48.5
s59.5 93.166 59.5 182.499v8h28v-500h-28v9c0 86 -18.333 144.333 -55 175s-117.334 46 -242.001 46h-64v-645h262c175.333 0 296.666 26.667 363.999 80s101 146.666 101 279.999v6h29v-395h-852z" />
    <glyph glyph-name="oe" unicode="&#x153;" horiz-adv-x="1421" 
d="M854 520h312.999v94c0 65.333 -12.833 114.5 -38.5 147.5s-65.167 49.5 -118.5 49.5c-49.333 0 -87.666 -19.5 -114.999 -58.5s-41 -94.5 -41 -166.5v-66zM230.999 283c0 -94 17.667 -163.667 53 -209s89.333 -68 162 -68c71.333 0 124.666 22.667 159.999 68
s53 115 53 209v247c0 94 -17.167 163.667 -51.5 209s-88.166 68 -161.499 68c-72.667 0 -126.667 -22.667 -162 -68s-53 -115 -53 -209v-247zM751.999 137c-47.333 -55.333 -95.832 -96.166 -145.499 -122.499s-103.167 -39.5 -160.5 -39.5c-52.667 0 -102 10.167 -148 30.5
s-88 51.166 -126 92.499c-40 44 -70.833 92.333 -92.5 145s-32.5 107.667 -32.5 165c0 117.333 41 218.666 123 303.999s181 128 297 128c53.333 0 104 -11.167 152 -33.5s95.667 -57.833 143 -106.5c39.333 48 80.333 83.333 123 106s89 34 139 34c92 0 171 -33 237 -99
c34.667 -34.667 61.5 -73 80.5 -115s28.5 -87.667 28.5 -137h-516v-237c0 -86 16.167 -148.167 48.5 -186.5s85.166 -57.5 158.499 -57.5c70.667 0 131.667 23.333 183 70s88 111.334 110 194.001h30c-24 -94 -65.833 -167.333 -125.5 -220s-129.5 -79 -209.5 -79
c-58.667 0 -113.667 14 -165 42s-95.333 68.667 -132 122z" />
    <glyph glyph-name="Scedilla" unicode="&#x15e;" horiz-adv-x="1014" 
d="M94 485l28.9971 -0.000976562c0 -71.333 11.667 -137.666 35 -198.999c21.333 -55.333 52.333 -106.666 93 -153.999c76.667 -86.667 174 -130 292 -130c94 0 172.333 29.5 235 88.5s94 132.5 94 220.5c0 36.667 -7.16699 71.167 -21.5 103.5
s-35.833 60.166 -64.5 83.499c-44 39.333 -147.667 74.333 -311 105l-26 5c-128.667 25.333 -219.667 67.166 -273 125.499s-80 141.5 -80 249.5c0 123.333 33.667 221 101 293s158 108 272 108c72 0 144.333 -19.333 217 -58l113 -58c14.667 0 26.834 6.16699 36.501 18.5
s14.5 28.5 14.5 48.5v11h29v-400h-29c-16 130.667 -57.167 231.667 -123.5 303s-152.166 107 -257.499 107c-89.333 0 -159.166 -23.833 -209.499 -71.5s-75.5 -114.834 -75.5 -201.501c0 -25.333 2 -48.333 6 -69s10.667 -40 20 -58c16.667 -33.333 44.334 -62 83.001 -86
c22.667 -14 73.167 -27.167 151.5 -39.5s138.5 -23.5 180.5 -33.5c122 -28 209.167 -71.667 261.5 -131s78.5 -142.666 78.5 -249.999c0 -133.333 -38.167 -240.5 -114.5 -321.5s-176.833 -121.5 -301.5 -121.5c-74.667 0 -153.834 17.833 -237.501 53.5
s-130.167 53.5 -139.5 53.5c-13.333 0 -25 -7.33301 -35 -22c-4 -6.66699 -7.5 -15.167 -10.5 -25.5s-4.5 -21.166 -4.5 -32.499h-28v485zM253.997 -342.001l21 41.001c44.667 -16.667 86 -30 124 -40s67.667 -15 89 -15c30.667 0 54.667 8.66699 72 26s26 41.333 26 72
c0 28.667 -7.66699 51.5 -23 68.5s-35.666 25.5 -60.999 25.5h-11l-18 -3v167h35v-124l16 1h27c58.667 0 104.667 -12.167 138 -36.5s50 -57.833 50 -100.5c0 -40.667 -20.333 -74.334 -61 -101.001c-20.667 -13.333 -43.834 -23.333 -69.501 -30s-55.834 -10 -90.501 -10
c-34 0 -73.667 5 -119 15s-93.666 24.667 -144.999 44z" />
    <glyph glyph-name="scedilla" unicode="&#x15f;" horiz-adv-x="674" 
d="M72 -6v287h20c25.333 -94.667 58.333 -163.5 99 -206.5s93.667 -64.5 159 -64.5c57.333 0 102.5 17 135.5 51s49.5 80 49.5 138c0 49.333 -17.333 87.5 -52 114.5s-83.667 40.5 -147 40.5c-82 0 -146.5 20.667 -193.5 62s-70.5 98.666 -70.5 171.999
c0 71.333 21.667 130.833 65 178.5s97.333 71.5 162 71.5c56 0 113.667 -15 173 -45l22 -9c8 0 14 3 18 9s6 14.667 6 26l-1 12l-1 8l33 1v-240h-23c-14.667 71.333 -40.5 124.333 -77.5 159s-85.5 52 -145.5 52c-48 0 -88 -14.167 -120 -42.5s-48 -63.833 -48 -106.5
c0 -18 3 -34.833 9 -50.5s15.333 -30.5 28 -44.5c24 -23.333 76.667 -39 158 -47c17.333 0 30.5 -0.5 39.5 -1.5s21.167 -3.16699 36.5 -6.5c68 -10 121.167 -36.667 159.5 -80s57.5 -99.333 57.5 -168c0 -87.333 -23.667 -157.666 -71 -210.999s-109.666 -80 -186.999 -80
c-68 0 -134 21 -198 63c-15.333 10 -25.333 15 -30 15c-12.667 0 -22.334 -4.33301 -29.001 -13c-2.66699 -4 -4.66699 -9.33301 -6 -16s-2 -16 -2 -28h-28zM84 -342l21 41.001c44.667 -16.667 86 -30 124 -40s67.667 -15 89 -15c30.667 0 54.667 8.66699 72 26
s26 41.333 26 72c0 28.667 -7.66699 51.5 -23 68.5s-35.666 25.5 -60.999 25.5h-11l-18 -3v167h35v-124l16 1h27c58.667 0 104.667 -12.167 138 -36.5s50 -57.833 50 -100.5c0 -40.667 -20.333 -74.334 -61 -101.001c-20.667 -13.333 -43.834 -23.333 -69.501 -30
s-55.834 -10 -90.501 -10c-34 0 -73.667 5 -119 15s-93.666 24.667 -144.999 44z" />
    <glyph glyph-name="Scaron" unicode="&#x160;" horiz-adv-x="1014" 
d="M94 485l28.9971 -0.000976562c0 -71.333 11.667 -137.666 35 -198.999c21.333 -55.333 52.333 -106.666 93 -153.999c76.667 -86.667 174 -130 292 -130c94 0 172.333 29.5 235 88.5s94 132.5 94 220.5c0 36.667 -7.16699 71.167 -21.5 103.5
s-35.833 60.166 -64.5 83.499c-44 39.333 -147.667 74.333 -311 105l-26 5c-128.667 25.333 -219.667 67.166 -273 125.499s-80 141.5 -80 249.5c0 123.333 33.667 221 101 293s158 108 272 108c72 0 144.333 -19.333 217 -58l113 -58c14.667 0 26.834 6.16699 36.501 18.5
s14.5 28.5 14.5 48.5v11h29v-400h-29c-16 130.667 -57.167 231.667 -123.5 303s-152.166 107 -257.499 107c-89.333 0 -159.166 -23.833 -209.499 -71.5s-75.5 -114.834 -75.5 -201.501c0 -25.333 2 -48.333 6 -69s10.667 -40 20 -58c16.667 -33.333 44.334 -62 83.001 -86
c22.667 -14 73.167 -27.167 151.5 -39.5s138.5 -23.5 180.5 -33.5c122 -28 209.167 -71.667 261.5 -131s78.5 -142.666 78.5 -249.999c0 -133.333 -38.167 -240.5 -114.5 -321.5s-176.833 -121.5 -301.5 -121.5c-74.667 0 -153.834 17.833 -237.501 53.5
s-130.167 53.5 -139.5 53.5c-13.333 0 -25 -7.33301 -35 -22c-4 -6.66699 -7.5 -15.167 -10.5 -25.5s-4.5 -21.166 -4.5 -32.499h-28v485zM216.997 1843h58l233 -211l233 211h58l-232 -348h-118z" />
    <glyph glyph-name="scaron" unicode="&#x161;" horiz-adv-x="674" 
d="M72 -6v287h20c25.333 -94.667 58.333 -163.5 99 -206.5s93.667 -64.5 159 -64.5c57.333 0 102.5 17 135.5 51s49.5 80 49.5 138c0 49.333 -17.333 87.5 -52 114.5s-83.667 40.5 -147 40.5c-82 0 -146.5 20.667 -193.5 62s-70.5 98.666 -70.5 171.999
c0 71.333 21.667 130.833 65 178.5s97.333 71.5 162 71.5c56 0 113.667 -15 173 -45l22 -9c8 0 14 3 18 9s6 14.667 6 26l-1 12l-1 8l33 1v-240h-23c-14.667 71.333 -40.5 124.333 -77.5 159s-85.5 52 -145.5 52c-48 0 -88 -14.167 -120 -42.5s-48 -63.833 -48 -106.5
c0 -18 3 -34.833 9 -50.5s15.333 -30.5 28 -44.5c24 -23.333 76.667 -39 158 -47c17.333 0 30.5 -0.5 39.5 -1.5s21.167 -3.16699 36.5 -6.5c68 -10 121.167 -36.667 159.5 -80s57.5 -99.333 57.5 -168c0 -87.333 -23.667 -157.666 -71 -210.999s-109.666 -80 -186.999 -80
c-68 0 -134 21 -198 63c-15.333 10 -25.333 15 -30 15c-12.667 0 -22.334 -4.33301 -29.001 -13c-2.66699 -4 -4.66699 -9.33301 -6 -16s-2 -16 -2 -28h-28zM47 1298h58l233 -211l233 211h58l-232 -348h-118z" />
    <glyph glyph-name="Ydieresis" unicode="&#x178;" horiz-adv-x="1014" 
d="M233 0v29h177v483l-363 815h-160v29h523v-29h-146l328 -729l264 598l16 43l5 31c0 19.333 -9 34 -27 44c-18.667 8.66699 -48.667 13 -90 13h-19v29h349v-29h-31c-22.667 0 -40.667 -1.33301 -54 -4s-26 -8 -38 -16c-19.333 -12.667 -40 -42.667 -62 -90l-295 -666v-522
h174v-29h-551zM600 1696c0 26.667 9.83398 50 29.501 70s42.5 30 68.5 30c25.333 0 48.666 -10 69.999 -30c10 -10 17.667 -20.667 23 -32s8 -24 8 -38c0 -28 -9.83301 -51.333 -29.5 -70s-43.5 -28 -71.5 -28s-51.333 9.33301 -70 28s-28 42 -28 70zM219.001 1696
c0 26.667 9.83203 50 29.499 70s42.834 30 69.501 30c26 0 49 -10 69 -30c10 -10 17.667 -20.667 23 -32s8 -24 8 -38c0 -28 -9.66699 -51.333 -29 -70c-10 -9.33301 -20.5 -16.333 -31.5 -21s-24.167 -7 -39.5 -7c-28 0 -51.5 9.33301 -70.5 28s-28.5 42 -28.5 70z" />
    <glyph glyph-name="Zcaron" unicode="&#x17d;" horiz-adv-x="1223" 
d="M43 0l808.999 1327h-225c-197.333 0 -327.666 -20.167 -390.999 -60.5s-95 -115.166 -95 -224.499v-32c0 -9.33301 0.666992 -16.333 2 -21h-28v367h995l-821 -1327h262c209.333 0 350.333 23.333 423 70s109 131 109 253l-1 21l-1 22h29v-395h-1067zM320.999 1843h58
l233 -211l233 211h58l-232 -348h-118z" />
    <glyph glyph-name="zcaron" unicode="&#x17e;" horiz-adv-x="782" 
d="M25 0l503.001 786.001h-198c-80 0 -136.167 -17.333 -168.5 -52s-48.5 -96.334 -48.5 -185.001v-39h-31v305h672l-518 -786h202c81.333 0 141.666 21 180.999 63s59 105.667 59 191v20h27v-303h-680zM100.001 1298h58l233 -211l233 211h58l-232 -348h-118z" />
    <glyph glyph-name="florin" unicode="&#x192;" horiz-adv-x="985" 
d="M373 649h-236v37h240c27.333 209.333 78 374 152 494s161.333 180 262 180c46 0 83.333 -13.333 112 -40s43 -61 43 -103c0 -28 -9.16699 -52.167 -27.5 -72.5s-41.166 -30.5 -68.499 -30.5c-24 0 -44.333 7.66699 -61 23s-25 34.333 -25 57c0 20 7.83301 40.667 23.5 62
s24.167 34 25.5 38c0 10.667 -3.66699 18.834 -11 24.501s-17.333 8.5 -30 8.5c-49.333 0 -90.833 -35 -124.5 -105s-57.834 -172.333 -72.501 -307l-24 -229h248v-37h-248c-38 -397.333 -90.833 -680.333 -158.5 -849s-160.167 -253 -277.5 -253
c-42.667 0 -77 10.667 -103 32s-39 49.666 -39 84.999c0 27.333 8.66699 49.833 26 67.5s39.666 26.5 66.999 26.5c20.667 0 38.334 -7.83301 53.001 -23.5s22 -35.167 22 -58.5c0 -7.33301 -4 -18.333 -12 -33s-12 -26 -12 -34s2.83301 -13.833 8.5 -17.5
s15.167 -5.5 28.5 -5.5c48 0 84.833 33.833 110.5 101.5s46.167 191.5 61.5 371.5z" />
    <glyph glyph-name="circumflex" unicode="&#x2c6;" horiz-adv-x="1024" 
d="M221 950l232 348h118l232 -348h-58l-233 209l-233 -209h-58z" />
    <glyph glyph-name="caron" unicode="&#x2c7;" horiz-adv-x="1024" 
d="M221 1298h58l233 -211l233 211h58l-232 -348h-118z" />
    <glyph glyph-name="breve" unicode="&#x2d8;" horiz-adv-x="1024" 
d="M219 1260h51.002c11.333 -48.667 36.333 -84.667 75 -108c18.667 -10.667 42.167 -19 70.5 -25s60.5 -9 96.5 -9c71.333 0 126.166 10.833 164.499 32.5s63.5 58.167 75.5 109.5h51c-12.667 -88.667 -43.834 -156 -93.501 -202s-115.5 -69 -197.5 -69
c-80 0 -145.333 23 -196 69s-83 113.333 -97 202z" />
    <glyph glyph-name="dotaccent" unicode="&#x2d9;" horiz-adv-x="1024" 
d="M412 1106c0 27.333 9.83301 50.833 29.5 70.5s43.167 29.5 70.5 29.5c26.667 0 50 -9.83301 70 -29.5s30 -43.167 30 -70.5s-9.83301 -50.833 -29.5 -70.5s-43.167 -29.5 -70.5 -29.5s-50.833 9.66699 -70.5 29s-29.5 43 -29.5 71z" />
    <glyph glyph-name="ring" unicode="&#x2da;" horiz-adv-x="1024" 
d="M362 1171c0 -42 14.6699 -77.333 44.0029 -106s64.666 -43 105.999 -43c42 0 77.5 14.167 106.5 42.5s43.5 63.833 43.5 106.5c0 40 -14.833 75.333 -44.5 106s-64.834 46 -105.501 46s-75.834 -14.833 -105.501 -44.5s-44.5 -65.5 -44.5 -107.5zM272.003 1171
c0 67.333 23.1689 124.5 69.502 171.5s103.166 70.5 170.499 70.5s124.5 -23.167 171.5 -69.5s70.5 -103.833 70.5 -172.5c0 -66.667 -23.167 -123.167 -69.5 -169.5s-103.833 -69.5 -172.5 -69.5c-66.667 0 -123.334 23 -170.001 69s-70 102.667 -70 170z" />
    <glyph glyph-name="ogonek" unicode="&#x2db;" horiz-adv-x="1024" 
d="M625 0c-62 -48 -107.999 -93.832 -137.999 -137.499s-45 -86.5 -45 -128.5c0 -36 9.5 -64.833 28.5 -86.5s43.833 -32.5 74.5 -32.5c26 0 48.833 6.16699 68.5 18.5s36.5 30.833 50.5 55.5l28 -19c-23.333 -47.333 -53.333 -84 -90 -110s-77 -39 -121 -39
c-46.667 0 -84.834 13.333 -114.501 40s-44.5 61 -44.5 103c0 58 20.833 114.667 62.5 170s105.167 110.666 190.5 165.999h50z" />
    <glyph glyph-name="tilde" unicode="&#x2dc;" horiz-adv-x="1024" 
d="M799 1247c-12.667 -67.333 -35.333 -118.333 -68 -153s-75 -52 -127 -52l-32 2l-42 9l-108 28l-30 6l-19 3c-25.333 0 -45.333 -7 -60 -21s-27 -38 -37 -72h-51c12 70 34.333 122.667 67 158s76 53 130 53c14 0 24.667 -0.666992 32 -2l31 -6l110 -28l36 -9l20 -2
c24.667 0 44 6.66699 58 20s26 35.333 36 66h54z" />
    <glyph glyph-name="Omega" unicode="&#x3a9;" horiz-adv-x="1567" 
d="M1100 188v-26h313l66 203h61l-108 -365h-500c88.667 154 156 304.333 202 451c22.667 72.667 39.667 143.167 51 211.5s17 135.5 17 201.5c0 179.333 -35.833 317.666 -107.5 414.999s-174.5 146 -308.5 146s-237 -48.167 -309 -144.5s-108 -235.166 -108 -416.499
c0 -132 22.5 -269.5 67.5 -412.5s113.167 -293.5 204.5 -451.5h-500l-110 365h61l68 -203h311v26c-110 135.333 -188 255.833 -234 361.5s-69 214.834 -69 327.501c0 180 58 328.333 174 445s264 175 444 175c178.667 0 326.167 -58.167 442.5 -174.5
s174.5 -264.833 174.5 -445.5c0 -111.333 -23 -219.833 -69 -325.5s-124 -226.834 -234 -363.501z" />
    <glyph glyph-name="pi" unicode="&#x3c0;" horiz-adv-x="1354" 
d="M1329 885l-34.999 -161.999h-329c-18 -96 -29.667 -163.333 -35 -202c-12.667 -88 -19 -171.333 -19 -250c0 -100.667 -11.333 -178.167 -34 -232.5s-51.334 -81.5 -86.001 -81.5c-24.667 0 -43.834 8.33301 -57.501 25s-20.5 39.667 -20.5 69
c0 39.333 25.667 133.166 77 281.499s90.333 278.5 117 390.5h-375c-10 -53.333 -17.667 -96 -23 -128c-10 -58 -17 -107.667 -21 -149c-6 -58.667 -9 -115.667 -9 -171c0 -102 -11.667 -180.5 -35 -235.5s-52.666 -82.5 -87.999 -82.5c-24 0 -42.833 8.33301 -56.5 25
s-20.5 40.334 -20.5 71.001c0 38.667 25.333 129.667 76 273s90.667 275.666 120 396.999h-133c-90.667 0 -150.5 -14.333 -179.5 -43s-53.167 -86 -72.5 -172h-59c24 137.333 63.167 234.5 117.5 291.5s133.833 85.5 238.5 85.5h942z" />
    <glyph glyph-name="endash" unicode="&#x2013;" horiz-adv-x="1024" 
d="M0 352v115h1024v-115h-1024z" />
    <glyph glyph-name="emdash" unicode="&#x2014;" horiz-adv-x="2048" 
d="M0 467h2048v-115h-2048v115z" />
    <glyph glyph-name="c279" unicode="&#x2015;" 
 />
    <glyph glyph-name="c280" unicode="&#x2016;" 
 />
    <glyph glyph-name="c281" unicode="&#x2017;" 
 />
    <glyph glyph-name="quoteleft" unicode="&#x2018;" horiz-adv-x="494" 
d="M291 1384l20.001 -22c-54.667 -54.667 -96.667 -110.167 -126 -166.5s-44 -109.5 -44 -159.5c0 -16 3.5 -28.5 10.5 -37.5s17.167 -13.5 30.5 -13.5c10 0 27.5 4.83301 52.5 14.5s46.5 14.5 64.5 14.5c34 0 60.667 -9.16699 80 -27.5s29 -43.5 29 -75.5
c0 -29.333 -11.833 -54.333 -35.5 -75s-53.5 -31 -89.5 -31c-50.667 0 -92.334 20 -125.001 60s-49 91.667 -49 155c0 66 15 129.333 45 190s75.667 118.667 137 174z" />
    <glyph glyph-name="quoteright" unicode="&#x2019;" horiz-adv-x="494" 
d="M225 807l-20.0029 22.001c54.667 54 97 109.167 127 165.5s45 109.166 45 158.499c0 16 -3.83301 28.833 -11.5 38.5s-18.167 14.5 -31.5 14.5c-10 0 -27.667 -4.66699 -53 -14s-46.666 -14 -63.999 -14c-34 0 -60.667 8.66699 -80 26
c-18.667 18.667 -28 43.334 -28 74.001c0 30 11.667 55.167 35 75.5s53 30.5 89 30.5c51.333 0 93.333 -19.833 126 -59.5s49 -90.834 49 -153.501c0 -66 -15.333 -129.333 -46 -190c-15.333 -30 -34.166 -59.5 -56.499 -88.5s-49.166 -57.5 -80.499 -85.5z" />
    <glyph glyph-name="quotesinglbase" unicode="&#x201a;" horiz-adv-x="494" 
d="M225 -393l-20.002 22c54.667 54 97 109 127 165s45 109 45 159c0 16 -3.83301 28.833 -11.5 38.5s-18.167 14.5 -31.5 14.5c-10 0 -27.5 -4.83301 -52.5 -14.5s-46.5 -14.5 -64.5 -14.5c-33.333 0 -60 9 -80 27c-18.667 18.667 -28 43.334 -28 74.001
c0 30 11.667 55.167 35 75.5s53 30.5 89 30.5c51.333 0 93.333 -19.833 126 -59.5s49 -90.834 49 -153.501c0 -66 -15.333 -129.333 -46 -190c-15.333 -30 -34.166 -59.5 -56.499 -88.5s-49.166 -57.5 -80.499 -85.5z" />
    <glyph glyph-name="c282" unicode="&#x201b;" 
 />
    <glyph glyph-name="quotedblleft" unicode="&#x201c;" horiz-adv-x="872" 
d="M674 1384l20 -22c-54.667 -54.667 -96.667 -110.167 -126 -166.5s-44 -109.5 -44 -159.5c0 -16 3.5 -28.5 10.5 -37.5s17.167 -13.5 30.5 -13.5c10 0 27.5 4.83301 52.5 14.5s46.5 14.5 64.5 14.5c34 0 60.667 -9.16699 80 -27.5s29 -43.5 29 -75.5
c0 -29.333 -11.833 -54.333 -35.5 -75s-53.5 -31 -89.5 -31c-50 0 -91.167 19.833 -123.5 59.5s-48.5 91.5 -48.5 155.5c0 36 3.33301 68.667 10 98s18 60.333 34 93c30 59.333 75.333 117 136 173zM291 1384l20.001 -22c-54.667 -54.667 -96.667 -110.167 -126 -166.5
s-44 -109.5 -44 -159.5c0 -16 3.5 -28.5 10.5 -37.5s17.167 -13.5 30.5 -13.5c10 0 27.5 4.83301 52.5 14.5s46.5 14.5 64.5 14.5c34 0 60.667 -9.16699 80 -27.5s29 -43.5 29 -75.5c0 -29.333 -11.833 -54.333 -35.5 -75s-53.5 -31 -89.5 -31
c-50.667 0 -92.334 20 -125.001 60s-49 91.667 -49 155c0 66 15 129.333 45 190s75.667 118.667 137 174z" />
    <glyph glyph-name="quotedblright" unicode="&#x201d;" horiz-adv-x="872" 
d="M596 807l-21.0029 22.001c55.333 54 97.5 109.167 126.5 165.5s43.5 109.166 43.5 158.499c0 17.333 -3.16699 30.5 -9.5 39.5s-16.5 13.5 -30.5 13.5c-10 0 -27.667 -4.66699 -53 -14s-46.666 -14 -63.999 -14c-34 0 -60.667 8.83301 -80 26.5s-29 42.167 -29 73.5
c0 30.667 11.5 56 34.5 76s52.5 30 88.5 30c50.667 0 92.334 -19.833 125.001 -59.5s49 -90.834 49 -153.501c0 -65.333 -14.667 -128.166 -44 -188.499s-74.666 -118.833 -135.999 -175.5zM224.997 807.001l-20.0029 22.001c54.667 54 97 109.167 127 165.5
s45 109.166 45 158.499c0 16 -3.83301 28.833 -11.5 38.5s-18.167 14.5 -31.5 14.5c-10 0 -27.667 -4.66699 -53 -14s-46.666 -14 -63.999 -14c-34 0 -60.667 8.66699 -80 26c-18.667 18.667 -28 43.334 -28 74.001c0 30 11.667 55.167 35 75.5s53 30.5 89 30.5
c51.333 0 93.333 -19.833 126 -59.5s49 -90.834 49 -153.501c0 -66 -15.333 -129.333 -46 -190c-15.333 -30 -34.166 -59.5 -56.499 -88.5s-49.166 -57.5 -80.499 -85.5z" />
    <glyph glyph-name="quotedblbase" unicode="&#x201e;" horiz-adv-x="872" 
d="M600 -393l-22.002 22.001c54.667 54 97 109 127 165s45 109 45 159c0 17.333 -3.5 30.5 -10.5 39.5s-17.167 13.5 -30.5 13.5c-10 0 -27.5 -4.83301 -52.5 -14.5s-46.5 -14.5 -64.5 -14.5c-33.333 0 -59.833 9 -79.5 27s-29.5 42.667 -29.5 74c0 30.667 11.5 56 34.5 76
s52.5 30 88.5 30c50.667 0 92.334 -19.833 125.001 -59.5s49 -90.834 49 -153.501c0 -66 -14.667 -129 -44 -189s-74.666 -118.333 -135.999 -175zM224.998 -392.999l-20.002 22c54.667 54 97 109 127 165s45 109 45 159c0 16 -3.83301 28.833 -11.5 38.5
s-18.167 14.5 -31.5 14.5c-10 0 -27.5 -4.83301 -52.5 -14.5s-46.5 -14.5 -64.5 -14.5c-33.333 0 -60 9 -80 27c-18.667 18.667 -28 43.334 -28 74.001c0 30 11.667 55.167 35 75.5s53 30.5 89 30.5c51.333 0 93.333 -19.833 126 -59.5s49 -90.834 49 -153.501
c0 -66 -15.333 -129.333 -46 -190c-15.333 -30 -34.166 -59.5 -56.499 -88.5s-49.166 -57.5 -80.499 -85.5z" />
    <glyph glyph-name="c283" unicode="&#x201f;" 
 />
    <glyph glyph-name="dagger" unicode="&#x2020;" horiz-adv-x="1024" 
d="M491 760c-128.667 0 -239.666 -31.9941 -332.999 -95.9941l-23 -13c-5.33301 0 -10 1.83301 -14 5.5s-6 8.16699 -6 13.5v6l14 49l-31 6c-53.333 9.33301 -80 21 -80 35c0 11.333 24 23.666 72 36.999l39 10l-14 51v4c0 6 2 11 6 15s9.33301 6.66699 16 8
c6 0 20.833 -10.167 44.5 -30.5s46.834 -35.5 69.501 -45.5s49.667 -18 81 -24c16 -2 34.333 -3.66699 55 -5s44 -2 70 -2h34c0 81.333 -7.83301 157.666 -23.5 228.999s-38.834 137 -69.501 197c-3.33301 5.33301 -5.5 9.16602 -6.5 11.499s-1.83301 4.83301 -2.5 7.5l3 12
l9 4c6 0 12.667 -1.33301 20 -4l31 -12l29 121l1 3c6 20.667 15.333 31 28 31c6.66699 0 12 -2.16699 16 -6.5s7.66699 -13.833 11 -28.5l26 -120l31 12l20 4c4 0 6.83301 -1 8.5 -3s3.16699 -6.33301 4.5 -13l-9 -19c-30 -59.333 -53.167 -124.833 -69.5 -196.5
s-24.5 -147.834 -24.5 -228.501c74 0 128 2.66699 162 8c31.333 4 57.666 11 78.999 21s44 25 68 45s39.333 30.667 46 32c5.33301 0 9.33301 -0.833008 12 -2.5s4.66699 -4.83398 6 -9.50098l-1 -7l-1 -8l-6 -51l36 -10c48 -12 72 -24.333 72 -37
c0 -13.333 -26.333 -25 -79 -35l-31 -6l10 -43l1 -6l1 -8c0 -6 -1 -10 -3 -12s-6.33301 -3.66699 -13 -5l-23 13c-92 64 -203.667 96 -335 96c0 -190.667 9.33301 -366.5 28 -527.5s47 -314.833 85 -461.5l9 -39c-2 -4 -3.66699 -6.66699 -5 -8l-13 -5
c-7.33301 0 -14.833 1.66699 -22.5 5s-19.5 10.666 -35.5 21.999l-26 -147c-3.33301 -16.667 -8 -28.667 -14 -36c-4.66699 -7.33301 -11.667 -11.333 -21 -12c-9.33301 0 -17.166 3.5 -23.499 10.5s-11.5 19.167 -15.5 36.5l-27 148l-36 -22
c-4.66699 -2 -11.667 -3.66699 -21 -5c-5.33301 0 -9.66602 1.66699 -12.999 5c-2.66699 1.33301 -4.33398 4 -5.00098 8l8 38c37.333 145.333 65.666 300.5 84.999 465.5s29 339.833 29 524.5z" />
    <glyph glyph-name="daggerdbl" unicode="&#x2021;" horiz-adv-x="1024" 
d="M422 465c26 36 45.0039 83.665 57.0039 142.998c6.66699 31.333 11.834 66 15.501 104s5.5 79.667 5.5 125c-28 0 -53.667 -1.66699 -77 -5s-49.666 -8.16602 -78.999 -14.499s-55.333 -15.166 -78 -26.499c-14 -7.33301 -31.5 -19.833 -52.5 -37.5
s-35.5 -26.5 -43.5 -26.5c-5.33301 0 -9.33301 1 -12 3s-4.66699 6.33301 -6 13v8l2 7l11 49c-14.667 0 -28.5 1.16699 -41.5 3.5s-24.833 5.83301 -35.5 10.5c-18 7.33301 -27 17 -27 29c0 8 6 15 18 21s41 13.333 87 22l-11 48l-1 3v8c0 4.66699 1.66699 8.33398 5 11.001
l15 4c9.33301 0 22.666 -7.33301 39.999 -22l44 -32c13.333 -7.33301 28.166 -14.166 44.499 -20.499s34.833 -12.166 55.5 -17.499c40 -8.66699 81.667 -13 125 -13h17c0 50.667 -8 104 -24 160c-13.333 46.667 -34 100 -62 160
c-3.33301 7.33301 -6.83301 15.666 -10.5 24.999s-5.83398 15.333 -6.50098 18c2 4 4.16699 6.66699 6.5 8s6.5 2 12.5 2l17 -3l29 -7l23 114c4 16 8 27.667 12 35c4 5.33301 9 8.66602 15 9.99902c6.66699 0 11.667 -2.33301 15 -7s7.33301 -17.334 12 -38.001l23 -114
l28 7l18 3c5.33301 0 9.66602 -0.666992 12.999 -2s5.33301 -4 6 -8c0 -6 -5.66699 -20.333 -17 -43c-26.667 -55.333 -46.667 -107.666 -60 -156.999c-15.333 -56 -23 -110.333 -23 -163c26 0 50.5 1 73.5 3s45.167 5.33301 66.5 10c40 8 74.333 21.333 103 40
c9.33301 5.33301 22.833 15.333 40.5 30s30.834 22 39.501 22c6.66699 0 11.5 -1 14.5 -3s4.83301 -6 5.5 -12l-1 -8l-11 -51c44 -8 72.667 -15.333 86 -22c11.333 -4.66699 17.666 -11.667 18.999 -21c0 -11.333 -9.33301 -21 -28 -29c-16 -6 -41.333 -10.667 -76 -14
l11 -49l1 -7l1 -8c0 -5.33301 -1.66699 -9.33301 -5 -12l-13 -4c-9.33301 0 -25.333 9.5 -48 28.5s-42 32.833 -58 41.5c-26 12 -54 20.667 -84 26s-54.167 9 -72.5 11s-40.166 3 -65.499 3c0 -91.333 6.16699 -167.333 18.5 -228s31.5 -108.667 57.5 -144
c-26 -34.667 -45.333 -82.334 -58 -143.001c-6 -30 -10.667 -63.833 -14 -101.5s-5 -80.5 -5 -128.5c28 0 51.667 1.5 71 4.5s45.166 8 77.499 15s60.5 16.167 84.5 27.5c14 7.33301 31.167 19.833 51.5 37.5s35.166 26.5 44.499 26.5c5.33301 0 9.33301 -1 12 -3
s4.66699 -6.66699 6 -14l-1 -8v-5l-13 -50c15.333 0 29.333 -1.16699 42 -3.5s24.334 -5.83301 35.001 -10.5c18.667 -7.33301 28 -17 28 -29c0 -8 -6.33301 -15.333 -19 -22c-12.667 -5.33301 -41.334 -12.333 -86.001 -21l11 -48l1 -12c0 -4 -1.66699 -7.33301 -5 -10
l-15 -4c-8.66699 0 -21.834 7 -39.501 21s-32.5 24.667 -44.5 32c-29.333 17.333 -63.333 30.333 -102 39s-79.667 13 -123 13h-17c0 -50 8 -103.333 24 -160c13.333 -48 34 -101.667 62 -161l12 -28c2.66699 -7.33301 4.33398 -12 5.00098 -14
c-2 -4 -4.16699 -6.66699 -6.5 -8s-6.5 -2 -12.5 -2l-18 3l-29 7l-24 -115c-4 -18.667 -7.66699 -30.5 -11 -35.5s-8 -8.16699 -14 -9.5c-6 0 -10.667 2.5 -14 7.5s-7.66602 17.5 -12.999 37.5l-22 115l-29 -7l-18 -3c-5.33301 0 -9.66602 0.666992 -12.999 2
s-5.33301 4 -6 8c0 6 5.66699 20.333 17 43c27.333 56.667 48.166 110.667 62.499 162s21.5 103.666 21.5 156.999c-55.333 0 -102.666 -4.16699 -141.999 -12.5s-73.333 -21.833 -102 -40.5l-42 -30c-16 -14 -28.667 -21 -38 -21c-6.66699 0 -11.334 1 -14.001 3
s-4.66699 5.66699 -6 11v9l1 3l11 48c-42.667 8 -71.334 15 -86.001 21c-12 6 -18.333 13.333 -19 22c0 11.333 9 21 27 29c16 6 42 10.667 78 14l-13 50l-1 5v8c0 6 1.66699 10.333 5 13l13 4c9.33301 0 24.666 -9.16699 45.999 -27.5s41.333 -32.5 60 -42.5
c24.667 -11.333 55 -20.666 91 -27.999c26 -4.66699 47.667 -8 65 -10s39 -3 65 -3c0 90 -6 166.167 -18 228.5s-31 110.5 -57 144.5z" />
    <glyph glyph-name="bullet" unicode="&#x2022;" horiz-adv-x="1208" 
d="M307 762c0 81.333 29.167 150.833 87.5 208.5s128.166 86.5 209.499 86.5c80.667 0 150 -28.833 208 -86.5s87 -127.167 87 -208.5s-29.167 -151.166 -87.5 -209.499s-128.166 -87.5 -209.499 -87.5s-150.833 29.167 -208.5 87.5s-86.5 128.166 -86.5 209.499z" />
    <glyph glyph-name="c284" unicode="&#x2023;" 
 />
    <glyph glyph-name="c285" unicode="&#x2024;" 
 />
    <glyph glyph-name="c286" unicode="&#x2025;" 
 />
    <glyph glyph-name="ellipsis" unicode="&#x2026;" horiz-adv-x="2048" 
d="M250 76c0 25.333 8.66699 47.002 26 65.002s38.666 27 63.999 27c24 0 45.333 -9 64 -27s28 -39.667 28 -65c0 -24.667 -8.83301 -45.834 -26.5 -63.501s-39.5 -26.5 -65.5 -26.5c-25.333 0 -46.666 8.66699 -63.999 26s-26 38.666 -26 63.999zM932 76.002
c0 25.333 8.66699 47.002 26 65.002s38.666 27 63.999 27c24 0 45.333 -9 64 -27s28 -39.667 28 -65c0 -24.667 -8.83301 -45.834 -26.5 -63.501s-39.5 -26.5 -65.5 -26.5c-25.333 0 -46.666 8.66699 -63.999 26s-26 38.666 -26 63.999zM1616 76.0039
c0 25.333 8.66699 47.002 26 65.002s38.666 27 63.999 27c24 0 45.333 -9 64 -27s28 -39.667 28 -65c0 -24.667 -8.83301 -45.834 -26.5 -63.501s-39.5 -26.5 -65.5 -26.5c-25.333 0 -46.666 8.66699 -63.999 26s-26 38.666 -26 63.999z" />
    <glyph glyph-name="perthousand" unicode="&#x2030;" horiz-adv-x="2134" 
d="M1671 346c0 -124 10 -210.335 30 -259.002s55 -73 105 -73c49.333 0 84.666 24.167 105.999 72.5s32 134.833 32 259.5c0 126.667 -10.167 213.334 -30.5 260.001s-56.166 70 -107.499 70c-50 0 -85 -23.167 -105 -69.5s-30 -133.166 -30 -260.499zM1538 345.998
c0 102.667 26 188.166 78 256.499s115.333 102.5 190 102.5c76 0 140.167 -34.333 192.5 -103s78.5 -154 78.5 -256s-26.333 -187.5 -79 -256.5s-116.667 -103.5 -192 -103.5c-74.667 0 -138 34.333 -190 103s-78 154.334 -78 257.001zM979 345.997
c0 -124 10 -210.335 30 -259.002s55 -73 105 -73s85.333 24.167 106 72.5s31 134.833 31 259.5c0 126.667 -10.167 213.334 -30.5 260.001s-55.833 70 -106.5 70c-50 0 -85 -23.167 -105 -69.5s-30 -133.166 -30 -260.499zM846 345.995
c0 102.667 26.001 188.166 78.001 256.499s115.333 102.5 190 102.5c76 0 140 -34.167 192 -102.5s78 -153.833 78 -256.5c0 -102 -26.333 -187.5 -79 -256.5s-116.334 -103.5 -191.001 -103.5s-138 34.333 -190 103s-78 154.334 -78 257.001zM188.001 990.994
c0 -124.667 10.499 -211.167 31.499 -259.5s56.5 -72.5 106.5 -72.5s85.333 24.167 106 72.5s31 134.833 31 259.5c0 126.667 -10.167 213.667 -30.5 261s-55.833 71 -106.5 71c-49.333 0 -84.666 -24.167 -105.999 -72.5s-32 -134.833 -32 -259.5zM57 990.994
c0 102.667 26.167 188.501 78.5 257.501s115.833 103.5 190.5 103.5s138.334 -34.5 191.001 -103.5s79 -154.833 79 -257.5c0 -102 -26.333 -187.5 -79 -256.5s-116.334 -103.5 -191.001 -103.5s-138.167 34.167 -190.5 102.5s-78.5 154.166 -78.5 257.499zM391 -25.0049
h-61l719 1385h63z" />
    <glyph glyph-name="guilsinglleft" unicode="&#x2039;" horiz-adv-x="569" 
d="M111 410l121.999 112.999l87 82c44.667 42.667 83.334 81.334 116.001 116.001h29c-20 -37.333 -47.667 -80.333 -83 -129c-32.667 -45.333 -80.667 -106 -144 -182l81 -100.5c25.333 -32.333 46.333 -60.166 63 -83.499c36 -48.667 63.667 -91.334 83 -128.001h-29
c-32 34 -70.667 72.667 -116 116z" />
    <glyph glyph-name="guilsinglright" unicode="&#x203a;" horiz-adv-x="569" 
d="M459 410l-210.001 -196.001l-116 -116h-29c18 36 46.5 80.833 85.5 134.5s85.833 112.834 140.5 177.501c-55.333 66 -102.166 125.333 -140.499 178s-66.833 97 -85.5 133h29c32 -34 70.667 -72.667 116 -116z" />
    <glyph glyph-name="franc" unicode="&#x20a3;" horiz-adv-x="1853" 
d="M39 0v29h158v1298h-158v29h1026l29 -346h-33c-10 118.667 -46.667 201.167 -110 247.5s-175.666 69.5 -336.999 69.5h-213v-622h54c135.333 0 222.666 16.833 261.999 50.5s59 99.167 59 196.5v9h29v-525l-29 1c0 94 -19.5 157.333 -58.5 190s-126.5 49 -262.5 49h-54
v-647h166v-29h-528zM1196 0l0.000976562 29.0029h116v757h-116v29h98c41.333 0 78.666 2 111.999 6s59.333 10.333 78 19v-213c28.667 71.333 61.5 124.666 98.5 159.999s79.5 53 127.5 53c37.333 0 68.5 -10.167 93.5 -30.5s37.5 -45.833 37.5 -76.5
s-7.66699 -54.667 -23 -72c-14 -17.333 -33.667 -26 -59 -26c-24 0 -45.667 8.33301 -65 25c-18 17.333 -27 37.666 -27 60.999c0 11.333 3.16699 23.666 9.5 36.999s15.833 27.666 28.5 42.999l-15 3l-9 1c-40 0 -77.667 -26.667 -113 -80s-63.333 -125.666 -84 -216.999
v-479h113v-29h-401z" />
    <glyph glyph-name="trademark" unicode="&#x2122;" horiz-adv-x="1683" 
d="M788 1438h183.001l141 -400l148 400h174v-25l-30 -2c-13.333 0 -24.333 -4.66699 -33 -14s-13 -22.333 -13 -39v-373c0 -15.333 4 -28 12 -38c8 -8 19.333 -13 34 -15l30 -2v-27h-236v27l31 2c13.333 0 24.166 5 32.499 15s12.5 22.667 12.5 38v395l-178 -479h-15
l-174 479v-395c0 -14.667 4 -26.667 12 -36s19.667 -15 35 -17l31 -2v-27h-197v27l34 2c12.667 0 23.167 5 31.5 15s12.5 22.667 12.5 38v371c0 15.333 -4.16699 27.5 -12.5 36.5s-19.833 14.5 -34.5 16.5l-31 2v27zM256.001 1438l439.999 -0.000976562l11 -178h-25
c-5.33301 52.667 -18.833 91 -40.5 115s-53.834 36 -96.501 36h-21v-426c0 -14.667 3.83301 -26.667 11.5 -36s18.834 -15 33.501 -17l31 -2v-27h-248v27l31 2c14 0 25 5 33 15s12 22.667 12 38v426h-20c-41.333 0 -73.666 -12 -96.999 -36
c-21.333 -23.333 -35 -61.666 -41 -114.999h-26z" />
    <glyph glyph-name="partialdiff" unicode="&#x2202;" horiz-adv-x="1044" 
d="M754 604c7.33301 49.333 13.666 102.998 18.999 160.998c0 18.667 1.16699 46.667 3.5 84s3.5 62.333 3.5 75c0 93.333 -13.167 165.5 -39.5 216.5s-63.5 76.5 -111.5 76.5c-35.333 0 -74.166 -21.167 -116.499 -63.5s-78.833 -63.5 -109.5 -63.5
c-18.667 0 -35.667 7 -51 21c-6.66699 6.66699 -12 14.334 -16 23.001s-6 18.334 -6 29.001c0 39.333 22.667 74.5 68 105.5s99.666 46.5 162.999 46.5c114 0 205 -50.833 273 -152.5s102 -239.167 102 -412.5c0 -223.333 -46.333 -408.333 -139 -555
s-207.334 -220 -344.001 -220c-97.333 0 -177.666 35.667 -240.999 107s-95 162 -95 272c0 125.333 36.167 230.5 108.5 315.5s161.166 127.5 266.499 127.5c66.667 0 120.834 -15.5 162.501 -46.5s74.834 -79.833 99.501 -146.5zM709 482.998
c0 78 -15.167 138.166 -45.5 180.499s-72.5 63.5 -126.5 63.5c-74.667 0 -136 -42.5 -184 -127.5s-72 -196.167 -72 -333.5c0 -78.667 14.667 -138.167 44 -178.5s72 -60.5 128 -60.5c74.667 0 136 42.833 184 128.5s72 194.834 72 327.501z" />
    <glyph glyph-name="c288" unicode="&#x2203;" 
 />
    <glyph glyph-name="c289" unicode="&#x2204;" 
 />
    <glyph glyph-name="c290" unicode="&#x2205;" 
 />
    <glyph glyph-name="Delta" unicode="&#x2206;" horiz-adv-x="1208" 
d="M555 1212l-389 -1042h768zM596 1497h29l555 -1497h-1151z" />
    <glyph glyph-name="product" unicode="&#x220f;" horiz-adv-x="1595" 
d="M57 1473h1479v-70h-186v-1727h186v-69h-555v69h197v1727h-762v-1727h196v-69h-555v69h187v1727h-187v70z" />
    <glyph glyph-name="c293" unicode="&#x2210;" 
 />
    <glyph glyph-name="c294" unicode="&#x2211;" horiz-adv-x="1434" 
d="M12 1473l1135 -0.000976562l98 -340h-74l-67 219c-5.33301 18.667 -16 31.834 -32 39.501s-40.333 11.5 -73 11.5h-741l864 -850v-37l-858 -756h893c40 0 65.833 4.16699 77.5 12.5s21.5 25.5 29.5 51.5l71 229h74l-135 -446h-1260v28l959 838l-961 950v50z" />
    <glyph glyph-name="c295" unicode="&#x2212;" horiz-adv-x="1706" 
d="M254 670h1198v-119h-1198v119z" />
    <glyph glyph-name="c296" unicode="&#x2213;" 
 />
    <glyph glyph-name="c297" unicode="&#x2214;" 
 />
    <glyph glyph-name="fraction" unicode="&#x2215;" horiz-adv-x="342" 
d="M-281 -25h-61l963 1385h61z" />
    <glyph glyph-name="c298" unicode="&#x2216;" 
 />
    <glyph glyph-name="c299" unicode="&#x2217;" 
 />
    <glyph glyph-name="c300" unicode="&#x2218;" 
 />
    <glyph glyph-name="periodcentered" unicode="&#x2219;" horiz-adv-x="494" 
d="M156 668c0 24.667 8.66699 46.1689 26 64.502s38.666 27.5 63.999 27.5c24 0 45.333 -9 64 -27s28 -39.667 28 -65c0 -24.667 -8.83301 -45.834 -26.5 -63.501s-39.5 -26.5 -65.5 -26.5c-25.333 0 -46.666 8.66699 -63.999 26s-26 38.666 -26 63.999z" />
    <glyph glyph-name="radical" unicode="&#x221a;" horiz-adv-x="1288" 
d="M1106 1647h182v-82h-119l-594 -1606h-53l-323 893l-119 -43l-23 68l262 92l265 -729z" />
    <glyph glyph-name="c302" unicode="&#x221b;" 
 />
    <glyph glyph-name="c303" unicode="&#x221c;" 
 />
    <glyph glyph-name="c304" unicode="&#x221d;" 
 />
    <glyph glyph-name="infinity" unicode="&#x221e;" horiz-adv-x="1706" 
d="M905 559c34 -63.333 73.8311 -110.501 119.498 -141.501s97.5 -46.5 155.5 -46.5c68.667 0 125 23.833 169 71.5s66 107.834 66 180.501c0 72 -20.167 131.833 -60.5 179.5s-91.166 71.5 -152.499 71.5c-56 0 -106.667 -24 -152 -72s-93.666 -129 -144.999 -243z
M802.998 665.999c-34 63.333 -73.666 110.833 -118.999 142.5s-96.666 47.5 -153.999 47.5c-70.667 0 -127.834 -23.667 -171.501 -71s-65.5 -108.333 -65.5 -183c0 -72 20.167 -131.667 60.5 -179s91.166 -71 152.499 -71c55.333 0 105.5 23 150.5 69
s93.833 127.667 146.5 245zM865.999 493.999c-46.667 -92 -95.834 -159.167 -147.501 -201.5s-109.5 -63.5 -173.5 -63.5c-88.667 0 -163.834 36.333 -225.501 109s-92.5 163.334 -92.5 272.001c0 114 27.5 206.333 82.5 277s126.5 106 214.5 106
c63.333 0 120.5 -21.167 171.5 -63.5s99.167 -109.833 144.5 -202.5c22.667 46.667 45.834 86.834 69.501 120.501s49.167 61.5 76.5 83.5c52 44 110.333 66 175 66c88.667 0 163.834 -36.333 225.501 -109s92.5 -163.334 92.5 -272.001c0 -114 -27.333 -206.333 -82 -277
s-125.667 -106 -213 -106c-63.333 0 -119 19.667 -167 59s-98.333 106.666 -151 201.999z" />
    <glyph glyph-name="integral" unicode="&#x222b;" horiz-adv-x="1020" 
d="M301 -268c77.333 0 115.998 221.334 115.998 664.001l5 216c0 163.333 9 304.5 27 423.5s43 217.5 75 295.5c60 144.667 153.667 217 281 217c49.333 0 90 -13 122 -39c14.667 -12.667 26 -27.667 34 -45s12 -37 12 -59c0 -32 -10.333 -57.833 -31 -77.5
s-48 -29.5 -82 -29.5c-35.333 0 -63.666 11.667 -84.999 35s-32 54 -32 92c0 4.66699 -1.83301 9.5 -5.5 14.5s-8.5 7.83301 -14.5 8.5c-79.333 0 -119 -211.333 -119 -634l-6 -245c0 -94 -3 -179.167 -9 -255.5s-13.667 -144.833 -23 -205.5
c-14 -104 -34.667 -186.333 -62 -247c-31.333 -74.667 -72 -132 -122 -172s-106.333 -60 -169 -60c-48.667 0 -88.5 12.667 -119.5 38s-46.5 57.666 -46.5 96.999c0 35.333 10.667 63.333 32 84s49 31 83 31c31.333 0 57.833 -9.66699 79.5 -29s32.5 -41.666 32.5 -66.999
c0 -16 2.33301 -28.333 7 -37s11.334 -13.334 20.001 -14.001z" />
    <glyph glyph-name="approxequal" unicode="&#x2248;" horiz-adv-x="1706" 
d="M1530 584v-131.001c-71.333 -50 -138.833 -86.833 -202.5 -110.5s-125.834 -35.5 -186.501 -35.5c-64.667 0 -160.834 23.167 -288.501 69.5s-224.167 69.5 -289.5 69.5c-53.333 0 -109.166 -11.667 -167.499 -35s-130.833 -64.666 -217.5 -123.999v131
c70.667 48 138.667 84.5 204 109.5s126.333 37.5 183 37.5c74.667 0 175.334 -23.167 302.001 -69.5s218.667 -69.5 276 -69.5c56.667 0 114.167 11.833 172.5 35.5s129.833 64.5 214.5 122.5zM1530 933.999l-0.00195312 -131c-68.667 -48 -135.334 -84 -200.001 -108
s-127 -36 -187 -36c-65.333 0 -161.5 23 -288.5 69s-224.167 69 -291.5 69c-54.667 0 -112 -12 -172 -36c-28 -12 -60.167 -28.167 -96.5 -48.5s-75.166 -44.833 -116.499 -73.5v131c69.333 47.333 136.333 83.333 201 108s126.667 37 186 37
c74 0 174.167 -22.833 300.5 -68.5s218.833 -68.5 277.5 -68.5c30.667 0 59.834 2.66699 87.501 8s56.834 14.333 87.501 27c57.333 22.667 128 63 212 121z" />
    <glyph glyph-name="notequal" unicode="&#x2260;" horiz-adv-x="1706" 
d="M1210 1180l88 -70l-196 -250h350v-115h-424l-211 -270h635v-115h-709l-251 -319l-89 70l197 249h-346v115h420l211 270h-631v115h704z" />
    <glyph glyph-name="c309" unicode="&#x2261;" 
 />
    <glyph glyph-name="c310" unicode="&#x2262;" 
 />
    <glyph glyph-name="c311" unicode="&#x2263;" 
 />
    <glyph glyph-name="lessequal" unicode="&#x2264;" horiz-adv-x="1706" 
d="M262 150h1182v-117h-1182v117zM1444 1192v-125l-977 -324l977 -323v-125l-1182 399v101z" />
    <glyph glyph-name="greaterequal" unicode="&#x2265;" horiz-adv-x="1706" 
d="M262 150h1182v-117h-1182v117zM262 1192l1182 -397v-101l-1182 -399v125l979 323l-979 324v125z" />
    <glyph glyph-name="lozenge" unicode="&#x25ca;" horiz-adv-x="1012" 
d="M506 1409l-385 -817l385 -825l385 825zM506 1653l500 -1061l-500 -1069l-500 1069z" />
    <glyph glyph-name="apple" unicode="&#xf000;" horiz-adv-x="1618" 
d="M836 1216l-2 14v23c0 82.667 31.667 159 95 229s142 114 236 132l1 -23l1 -39c0 -87.333 -34.5 -165.5 -103.5 -234.5s-136.833 -103.5 -203.5 -103.5h-8l-8 1zM1505 403c-76 -164 -144.165 -278 -204.498 -342s-128.5 -96 -204.5 -96c-32.667 0 -76.334 11 -131.001 33
s-95.667 33 -123 33c-29.333 0 -72.833 -11 -130.5 -33s-100.167 -33 -127.5 -33c-42.667 0 -85.334 14.667 -128.001 44s-86 73.333 -130 132c-66.667 91.333 -119.334 189.666 -158.001 294.999c-18 52 -31.667 103 -41 153s-14 99.333 -14 148
c0 146 41.667 264.833 125 356.5s191 137.5 323 137.5c45.333 0 97.5 -11.333 156.5 -34s99.833 -34 122.5 -34c12 0 27.333 2.66699 46 8s43.667 14.333 75 27c58.667 23.333 109.667 35 153 35c74 0 139.833 -13.167 197.5 -39.5s111.5 -67.833 161.5 -124.5
c-67.333 -42.667 -117.666 -91.167 -150.999 -145.5s-50 -115.166 -50 -182.499c0 -74 20 -140.5 60 -199.5s97.667 -105.167 173 -138.5z" />
    <glyph glyph-name="fi" unicode="&#xf001;" horiz-adv-x="985" 
d="M47 0v29h119v757h-119v29h118l-1 25v41c0 168 36.5 297.667 109.5 389s176.5 137 310.5 137c75.333 0 137.5 -16.167 186.5 -48.5s73.5 -73.5 73.5 -123.5c0 -33.333 -8.83301 -59.833 -26.5 -79.5s-42.5 -29.5 -74.5 -29.5c-24.667 0 -45.667 8.33301 -63 25
c-16.667 18 -25 39 -25 63c0 15.333 4 30.833 12 46.5s17.667 26.167 29 31.5l30 10c20 4.66699 30.667 11.667 32 21c0 16 -15.5 30.167 -46.5 42.5s-66.833 18.5 -107.5 18.5c-100 0 -170 -24.667 -210 -74s-60 -139.333 -60 -270v-225h313c42 0 79 2 111 6
s58 10.333 78 19v-811h114v-29h-403v29h119v757h-330v-757h115v-29h-404z" />
    <glyph glyph-name="fl" unicode="&#xf002;" horiz-adv-x="985" 
d="M840 1405l0.00195312 -1376h112v-29h-397v29h119v1110c-14.667 7.33301 -27.334 18.333 -38.001 33c-8.66699 15.333 -13 32.333 -13 51c0 24 9 47 27 69l28 35c0 15.333 -11.667 28.333 -35 39c-12 5.33301 -24.5 9.33301 -37.5 12s-29.167 4 -48.5 4
c-76 0 -132.167 -27.167 -168.5 -81.5s-54.5 -139.833 -54.5 -256.5v-229h158v-29h-156v-757h115v-29h-404v29h119v757h-119v29h118l-1 24v40c0 162 35.167 290.5 105.5 385.5s164.833 142.5 283.5 142.5c27.333 0 63.666 -5.83301 108.999 -17.5s75.333 -17.5 90 -17.5
c5.33301 0 11.5 0.166992 18.5 0.5s17 3 30 8s26.167 13.167 39.5 24.5z" />
    <glyph glyph-name=".null" horiz-adv-x="0" 
 />
    <glyph glyph-name="nonmarkingreturn" horiz-adv-x="494" 
 />
    </font>
</defs>
</svg>
